<?xml version="1.0" encoding="iso-8859-1"?>
<!-- Generator: Adobe Illustrator 22.0.1, SVG Export Plug-In . SVG Version: 6.00 Build 0)  -->
<svg version="1.1" id="Icons" xmlns="http://www.w3.org/2000/svg" xmlns:xlink="http://www.w3.org/1999/xlink" x="0px" y="0px"
	 viewBox="0 0 512 512" style="enable-background:new 0 0 512 512;" xml:space="preserve">
<g>
	<path id="XMLID_839_" style="fill:#EEA8C6;" d="M512,255.904c0,70.692-28.654,134.692-74.981,181.019S326.692,511.904,256,511.904
		S121.308,483.25,74.981,436.924S0,326.597,0,255.904S28.654,121.212,74.981,74.885S185.308-0.096,256-0.096
		s134.692,28.654,181.019,74.981S512,185.212,512,255.904z"/>
	<g id="XMLID_840_">
		<path id="XMLID_1695_" style="fill:#FB80A5;" d="M507.82,302.194c-10.89,59.645-42.453,112.073-86.989,149.589
			S318.785,511.904,256,511.904s-120.295-22.605-164.831-60.121S15.07,361.839,4.18,302.194H256H507.82z"/>
		<g id="XMLID_841_">
			<g id="XMLID_1390_">
				<g id="XMLID_1427_">
					<path id="XMLID_1431_" style="fill:#C53A4C;" d="M96.869,214.648c-3.646-16.599-0.57-33.105,7.41-46.683
						c7.98-13.578,20.865-24.229,36.835-29.118c-5.175-1.603-10.587-2.567-16.123-2.819c-5.536-0.252-11.195,0.208-16.866,1.454
						c-17.471,3.838-31.732,14.394-40.667,28.358s-12.541,31.337-8.703,48.808c3.838,17.471,16.308,40.443,32.186,58.088
						s35.164,29.963,52.635,26.125c1.919-0.422,3.776-1.03,5.57-1.808c1.795-0.778,3.527-1.727,5.197-2.83
						c0.086-0.057,0.174-0.11,0.262-0.162c0.088-0.052,0.176-0.104,0.264-0.157c-13.503-7.188-26.562-20.443-36.966-35.18
						S99.751,227.767,96.869,214.648z"/>
					<path id="XMLID_1430_" style="fill:#F94755;" d="M224.927,138.846c-0.839-0.257-1.684-0.502-2.537-0.731
						s-1.715-0.442-2.587-0.633c-6.372-1.4-12.729-1.806-18.913-1.324c-6.183,0.482-12.193,1.852-17.869,4.004
						c-0.558,0.212-1.115,0.428-1.667,0.652s-1.102,0.456-1.647,0.697c-5.027,2.23-10.384,3.344-15.742,3.344
						s-10.715-1.115-15.742-3.344c-1.155-0.512-2.325-0.991-3.51-1.435c-1.185-0.444-2.385-0.855-3.597-1.23
						c-15.97,4.889-28.855,15.54-36.835,29.118c-7.98,13.578-11.057,30.084-7.41,46.683c2.882,13.119,10.63,29.339,21.034,44.076
						s23.463,27.992,36.966,35.18c2.87-1.752,6.139-2.603,9.395-2.551c3.256,0.052,6.5,1.008,9.32,2.87
						c1.475,0.975,3,1.828,4.573,2.55c1.573,0.722,3.194,1.313,4.864,1.761c0.22,0.059,0.441,0.116,0.663,0.171
						c0.222,0.055,0.444,0.107,0.668,0.156c4.352,0.956,8.817,0.909,13.314,0.027c4.497-0.882,9.026-2.6,13.506-4.985
						c13.503-7.188,26.562-20.443,36.966-35.18c10.404-14.737,18.152-30.957,21.034-44.076c3.646-16.599,0.57-33.105-7.41-46.683
						C253.782,154.386,240.897,143.736,224.927,138.846z"/>
					<path id="XMLID_1429_" style="fill:#87C328;" d="M170.019,96.085c4.558,10.892,3.641,22.863,1.585,32.111
						s-5.252,15.773-5.252,15.773s-6.891-2.304-14.921-7.332c-8.03-5.027-17.2-12.777-21.758-23.669
						c-4.558-10.892-3.641-22.863-1.585-32.111s5.252-15.773,5.252-15.773s6.891,2.304,14.921,7.332
						C156.291,77.443,165.461,85.193,170.019,96.085z"/>
					<path id="XMLID_1428_" style="fill:none;stroke:#FA7701;stroke-width:8;stroke-linecap:round;stroke-miterlimit:10;" d="
						M163.864,156.519c0,0-0.235-10.048,4.424-20.849c4.659-10.801,14.212-22.356,33.79-25.371"/>
				</g>
				<path id="XMLID_1426_" style="fill:#F56476;" d="M257.231,181.846c2.536,8.997,2.696,17.744,0.906,24.613
					s-5.532,11.86-10.801,13.345c-5.268,1.485-11.066-0.817-16.18-5.74s-9.546-12.466-12.081-21.463
					c-2.536-8.997-2.696-17.744-0.906-24.613s5.532-11.86,10.8-13.345c5.268-1.485,11.066,0.817,16.18,5.74
					C250.264,165.306,254.695,172.849,257.231,181.846z"/>
			</g>
			<g id="XMLID_1373_">
				<path id="XMLID_1389_" style="fill:#FC7701;" d="M478.629,212.963c0,24.415-8.656,46.81-23.068,64.283
					c-14.412,17.472-34.579,30.022-57.6,34.745c-3.298,0.674-6.655,1.19-10.062,1.537c-3.407,0.347-6.863,0.526-10.36,0.526
					c-27.917,0-53.19-11.316-71.483-29.611c-18.293-18.294-29.607-43.567-29.607-71.479c0-27.917,11.314-53.19,29.607-71.483
					c18.293-18.293,43.566-29.607,71.483-29.607c3.497,0,6.954,0.179,10.36,0.526s6.764,0.863,10.062,1.537
					c23.021,4.723,43.188,17.27,57.6,34.741C469.973,166.147,478.629,188.543,478.629,212.963z"/>
				<path id="XMLID_1388_" style="fill:#FC840A;" d="M478.629,212.963c0,24.415-8.656,46.81-23.068,64.283
					c-14.412,17.472-34.579,30.022-57.6,34.745c-23.021-4.723-43.188-17.272-57.6-34.745
					c-14.412-17.472-23.068-39.868-23.068-64.283c0-24.42,8.656-46.815,23.068-64.287c14.412-17.471,34.579-30.018,57.6-34.741
					c23.021,4.723,43.188,17.27,57.6,34.741C469.973,166.147,478.629,188.543,478.629,212.963z"/>
				<path id="XMLID_1387_" style="fill:#FC7701;" d="M397.961,175.508c0,4.23,1.714,8.059,4.486,10.831
					c2.772,2.772,6.601,4.486,10.831,4.486s8.059-1.714,10.831-4.486c2.772-2.772,4.486-6.601,4.486-10.831
					c0-4.23-1.714-8.059-4.486-10.831c-2.772-2.772-6.601-4.486-10.831-4.486s-8.059,1.714-10.831,4.486
					C399.676,167.449,397.961,171.279,397.961,175.508z"/>
				<path id="XMLID_1386_" style="fill:#FC7701;" d="M397.961,277.589c0,4.23,1.714,8.059,4.486,10.831
					c2.772,2.772,6.601,4.486,10.831,4.486s8.059-1.714,10.831-4.486c2.772-2.772,4.486-6.601,4.486-10.831
					c0-4.23-1.714-8.059-4.486-10.831c-2.772-2.772-6.601-4.486-10.831-4.486s-8.059,1.714-10.831,4.486
					C399.676,269.53,397.961,273.359,397.961,277.589z"/>
				<path id="XMLID_1385_" style="fill:#FC7701;" d="M346.906,256.883c0,4.23,1.714,8.059,4.486,10.831
					c2.772,2.772,6.601,4.486,10.831,4.486s8.059-1.714,10.831-4.486c2.772-2.772,4.486-6.601,4.486-10.831
					s-1.714-8.059-4.486-10.831c-2.772-2.772-6.601-4.486-10.831-4.486s-8.059,1.714-10.831,4.486
					C348.62,248.824,346.906,252.654,346.906,256.883z"/>
				<path id="XMLID_1384_" style="fill:#E06305;" d="M282.576,232.182c0,4.23,1.714,8.059,4.486,10.831
					c2.772,2.772,6.601,4.486,10.831,4.486s8.059-1.714,10.831-4.486c2.772-2.772,4.486-6.601,4.486-10.831
					c0-4.23-1.714-8.059-4.486-10.831s-6.601-4.486-10.831-4.486s-8.059,1.714-10.831,4.486
					C284.29,224.123,282.576,227.953,282.576,232.182z"/>
				<path id="XMLID_1383_" style="fill:#FC7701;" d="M428.595,241.566c0,2.591,1.05,4.937,2.749,6.636
					c1.698,1.698,4.044,2.749,6.636,2.749s4.937-1.05,6.636-2.749c1.698-1.698,2.749-4.044,2.749-6.636
					c0-2.591-1.05-4.937-2.749-6.636c-1.698-1.698-4.044-2.749-6.636-2.749s-4.937,1.05-6.636,2.749
					C429.645,236.629,428.595,238.975,428.595,241.566z"/>
				<path id="XMLID_1382_" style="fill:#FC7701;" d="M328.137,205.968c0,2.591,1.05,4.937,2.749,6.636
					c1.698,1.698,4.044,2.749,6.636,2.749s4.937-1.05,6.636-2.749c1.698-1.698,2.749-4.044,2.749-6.636
					c0-2.591-1.05-4.937-2.749-6.636c-1.698-1.698-4.044-2.749-6.636-2.749s-4.937,1.05-6.636,2.749
					C329.188,201.031,328.137,203.377,328.137,205.968z"/>
				<path id="XMLID_1381_" style="fill:#E06305;" d="M313.209,277.589c0,2.591,1.05,4.937,2.749,6.636
					c1.698,1.698,4.044,2.749,6.636,2.749s4.937-1.05,6.636-2.749c1.698-1.698,2.749-4.044,2.749-6.636
					c0-2.591-1.05-4.937-2.749-6.636c-1.698-1.698-4.044-2.749-6.636-2.749s-4.937,1.05-6.636,2.749
					C314.26,272.651,313.209,274.997,313.209,277.589z"/>
				<path id="XMLID_1380_" style="fill:#E06305;" d="M307.909,150.807c0,2.591,1.05,4.937,2.749,6.636
					c1.698,1.698,4.044,2.749,6.636,2.749s4.937-1.05,6.636-2.749c1.698-1.698,2.749-4.044,2.749-6.636s-1.05-4.937-2.749-6.636
					s-4.044-2.749-6.636-2.749s-4.937,1.05-6.636,2.749S307.909,148.216,307.909,150.807z"/>
				<path id="XMLID_1379_" style="fill:#E06305;" d="M359.044,119.894c0,1.879,1.69,3.581,4.421,4.812
					c2.732,1.232,6.506,1.993,10.674,1.993c4.168,0,7.942-0.762,10.674-1.993c2.732-1.232,4.421-2.933,4.421-4.812
					c0-1.879-1.69-3.581-4.421-4.812c-2.732-1.232-6.505-1.993-10.674-1.993c-4.168,0-7.942,0.762-10.674,1.993
					C360.734,116.313,359.044,118.014,359.044,119.894z"/>
				<path id="XMLID_1378_" style="fill:#FC7701;" d="M362.223,200.209c0,2.591,1.05,4.937,2.749,6.636
					c1.698,1.698,4.044,2.749,6.636,2.749s4.937-1.05,6.636-2.749c1.698-1.698,2.749-4.044,2.749-6.636
					c0-2.591-1.05-4.937-2.749-6.636c-1.698-1.698-4.044-2.749-6.636-2.749s-4.937,1.05-6.636,2.749
					C363.273,195.272,362.223,197.618,362.223,200.209z"/>
				<path id="XMLID_1377_" style="fill:#FC7701;" d="M403.894,136.083c0,2.591,1.05,4.937,2.749,6.636
					c1.698,1.698,4.044,2.749,6.636,2.749s4.937-1.05,6.636-2.749c1.698-1.698,2.749-4.044,2.749-6.636
					c0-2.591-1.05-4.937-2.749-6.636c-1.698-1.698-4.044-2.749-6.636-2.749s-4.937,1.05-6.636,2.749
					C404.944,131.146,403.894,133.492,403.894,136.083z"/>
				<g id="XMLID_1374_">
					<path id="XMLID_1376_" style="fill:#0FA46E;" d="M411.114,91.726c-3.117,7.985-8.607,14.447-14.473,19.491
						c-5.867,5.043-12.11,8.668-16.733,10.979c-0.98,0.489-2.013,0.741-3.035,0.779c-1.022,0.038-2.033-0.137-2.97-0.503
						c-0.937-0.366-1.8-0.922-2.526-1.642s-1.315-1.605-1.705-2.629c-1.835-4.832-3.972-11.728-4.871-19.412
						c-0.899-7.684-0.56-16.156,2.557-24.142c4.541-11.633,14.122-20.033,22.568-25.525s15.757-8.075,15.757-8.075
						s3.628,6.853,6.121,16.614C414.297,67.423,415.654,80.093,411.114,91.726z"/>
					<path id="XMLID_1375_" style="fill:#088E5D;" d="M405.683,41.048L389.793,81.76l-15.891,40.712
						c-0.937-0.366-1.8-0.922-2.526-1.642s-1.315-1.605-1.705-2.629c-1.835-4.832-3.972-11.728-4.871-19.412
						c-0.899-7.684-0.56-16.156,2.557-24.142c4.541-11.633,14.122-20.033,22.568-25.525S405.683,41.048,405.683,41.048z"/>
				</g>
			</g>
			<g id="XMLID_1370_">
				<path id="XMLID_1372_" style="fill:#0FA46E;" d="M298.147,251.476c-3.18,8.148-8.782,14.741-14.768,19.887
					c-5.986,5.146-12.356,8.844-17.074,11.203c-1,0.499-2.054,0.756-3.096,0.795c-1.043,0.039-2.075-0.14-3.031-0.513
					c-0.956-0.373-1.836-0.94-2.577-1.675c-0.741-0.735-1.342-1.638-1.739-2.682c-1.873-4.931-4.053-11.966-4.97-19.807
					c-0.917-7.84-0.571-16.485,2.609-24.633c4.633-11.87,14.409-20.441,23.027-26.044s16.078-8.239,16.078-8.239
					s3.702,6.992,6.245,16.952C301.395,226.679,302.78,239.606,298.147,251.476z"/>
				<path id="XMLID_1371_" style="fill:#088E5D;" d="M292.606,199.767l-16.214,41.54l-16.214,41.54
					c-0.956-0.373-1.836-0.94-2.577-1.675c-0.741-0.735-1.342-1.638-1.739-2.682c-1.873-4.931-4.053-11.966-4.97-19.807
					c-0.917-7.84-0.571-16.485,2.609-24.633c4.633-11.87,14.409-20.441,23.027-26.044S292.606,199.767,292.606,199.767z"/>
			</g>
			<g id="XMLID_1367_">
				<path id="XMLID_1369_" style="fill:#0FA46E;" d="M363.452,319.074c-6.137,6.232-13.886,10.08-21.416,12.446
					c-7.531,2.366-14.843,3.251-20.109,3.557c-1.116,0.064-2.185-0.116-3.159-0.492c-0.974-0.376-1.851-0.947-2.582-1.667
					c-0.731-0.72-1.316-1.589-1.707-2.556c-0.391-0.968-0.587-2.034-0.54-3.151c0.225-5.269,0.998-12.595,3.249-20.161
					s5.98-15.373,12.117-21.604c8.941-9.079,21.306-13.096,31.435-14.844c10.13-1.748,18.024-1.226,18.024-1.226
					s0.642,7.885-0.951,18.041C376.221,297.571,372.393,309.995,363.452,319.074z"/>
				<path id="XMLID_1368_" style="fill:#088E5D;" d="M378.764,269.375l-31.289,31.771l-31.289,31.771
					c-0.731-0.72-1.316-1.589-1.707-2.556c-0.391-0.968-0.587-2.034-0.54-3.151c0.225-5.269,0.998-12.595,3.249-20.161
					s5.98-15.373,12.117-21.604c8.941-9.079,21.306-13.096,31.435-14.844C370.87,268.853,378.764,269.375,378.764,269.375z"/>
			</g>
			<g id="XMLID_1349_">
				<path id="XMLID_1366_" style="fill:#0FA46E;" d="M179.571,268.706c9.682,5.092,17.094,12.976,22.653,21.136
					c5.559,8.159,9.265,16.594,11.537,22.787c0.48,1.313,0.652,2.658,0.555,3.96c-0.097,1.301-0.464,2.559-1.062,3.695
					c-0.597,1.136-1.426,2.151-2.443,2.969s-2.223,1.439-3.577,1.787c-6.39,1.638-15.44,3.364-25.313,3.408
					c-9.873,0.044-20.569-1.595-30.251-6.687c-14.106-7.418-23.391-20.767-29.151-32.262s-7.992-21.135-7.992-21.135
					s9.208-3.623,21.943-5.392C149.205,261.202,165.466,261.288,179.571,268.706z"/>
				<path id="XMLID_1365_" style="fill:#088E5D;" d="M114.527,268.363l49.363,25.96l49.363,25.96
					c-0.597,1.136-1.426,2.151-2.443,2.969s-2.223,1.439-3.577,1.787c-6.39,1.638-15.44,3.364-25.313,3.408
					c-9.873,0.044-20.569-1.595-30.251-6.687c-14.106-7.418-23.391-20.767-29.151-32.262S114.527,268.363,114.527,268.363z"/>
			</g>
			<g id="XMLID_1299_">
				<path id="XMLID_1348_" style="fill:#E06305;" d="M490.142,262.169c0.923-0.382,1.914-0.343,2.761,0.026
					c0.847,0.369,1.55,1.068,1.895,2.005c8.413,22.844,7.083,47.07-2.026,67.931s-25.993,38.359-48.688,47.75
					c-22.695,9.39-47.007,8.938-68.192,0.61s-39.243-24.53-49.43-46.641c-0.418-0.907-0.414-1.898-0.075-2.757
					s1.013-1.588,1.935-1.97l80.91-33.477L490.142,262.169z"/>
				<polygon id="XMLID_1347_" style="fill:#FC840A;" points="392.415,302.602 370.231,311.781 348.046,320.96 348.047,320.961 
					348.047,320.962 370.231,311.783 392.416,302.604 392.415,302.603 				"/>
				<polygon id="XMLID_1346_" style="fill:#FC840A;" points="470.417,270.331 470.417,270.33 470.416,270.329 448.232,279.507 
					426.048,288.686 426.048,288.687 426.048,288.688 448.233,279.509 				"/>
				<path id="XMLID_1345_" style="fill:#FC840A;" d="M427.366,294.095l23.947,3.247l23.947,3.247
					c0.378-5.006,0.193-10.092-0.6-15.166c-0.793-5.074-2.193-10.136-4.243-15.092l-22.184,9.179l-22.184,9.179
					c0.366,0.886,0.657,1.784,0.875,2.688C427.142,292.28,427.288,293.188,427.366,294.095z"/>
				<polygon id="XMLID_1344_" style="fill:#FAB784;" points="426.048,288.688 426.048,288.687 426.048,288.686 409.231,295.644 
					392.415,302.602 392.415,302.603 392.416,302.604 409.232,295.646 				"/>
				<path id="XMLID_1340_" style="fill:#FAB784;" d="M479.41,266.614l-4.495,1.86l-4.495,1.86c2.05,4.955,3.45,10.015,4.243,15.087
					c0.793,5.073,0.978,10.158,0.598,15.163l-19.525-2.645l-19.525-2.645l-4.42-0.6l-4.42-0.6c-0.08-0.905-0.227-1.812-0.446-2.716
					c-0.219-0.904-0.509-1.804-0.874-2.694l-2.41,1l-2.41,1h-0.005h-0.005l-2.16,0.895l-2.16,0.895h-0.005h-0.005l-11.74,4.86
					l-11.74,4.86h-0.005H393.4l-0.49,0.205l-0.49,0.205c0.43,1.045,0.953,2.025,1.55,2.939c0.598,0.914,1.27,1.761,2,2.541
					l-1.12,1.47l-1.12,1.47l-0.75,0.98l-0.75,0.98l-6.585,8.64l-6.585,8.64l-6.16,8.08l-6.16,8.08
					c-3.06-2.555-5.908-5.4-8.492-8.516s-4.908-6.504-6.917-10.144c-0.61-1.09-1.188-2.2-1.734-3.332s-1.061-2.287-1.546-3.467
					l-4.5,1.86l-4.5,1.86c0.48,1.165,0.988,2.31,1.521,3.436s1.094,2.234,1.679,3.324c2.425,4.555,5.267,8.777,8.459,12.637
					s6.731,7.358,10.551,10.463c0.345,0.28,0.69,0.557,1.038,0.831s0.697,0.544,1.052,0.809c10.39,7.86,22.665,12.94,35.57,14.72
					s26.44,0.26,39.35-5.08c13.55-5.61,24.615-14.688,32.59-25.777c7.975-11.09,12.86-24.192,14.05-37.852
					c0.515-5.88,0.345-11.863-0.556-17.831C483.452,278.394,481.82,272.439,479.41,266.614z M375.83,352.814l5.56-7.295l5.56-7.295
					l9.42-12.355l9.42-12.355c0.805,0.155,1.623,0.258,2.448,0.304c0.825,0.046,1.657,0.036,2.492-0.034l7.855,18.99l7.855,18.99
					l1.445,3.485l1.445,3.485c-9.195,2.935-18.633,3.752-27.74,2.687C392.483,360.357,383.705,357.409,375.83,352.814z
					 M473.02,313.404c-0.06,0.21-0.117,0.417-0.176,0.624c-0.059,0.206-0.119,0.411-0.184,0.616c-0.02,0.075-0.042,0.15-0.066,0.225
					c-0.024,0.075-0.049,0.15-0.074,0.225c-0.065,0.22-0.133,0.44-0.203,0.66s-0.143,0.44-0.218,0.66c-0.1,0.3-0.2,0.6-0.302,0.899
					s-0.208,0.596-0.318,0.891c-0.11,0.31-0.225,0.62-0.342,0.93s-0.237,0.62-0.357,0.93c-0.155,0.38-0.313,0.76-0.473,1.14
					c-0.16,0.38-0.322,0.76-0.487,1.14c-0.3,0.68-0.61,1.355-0.931,2.024c-0.321,0.669-0.654,1.331-0.999,1.986
					c-0.175,0.335-0.353,0.668-0.534,0.999c-0.181,0.331-0.366,0.661-0.556,0.991c-2.285,4.035-5.003,7.84-8.118,11.339
					s-6.628,6.691-10.503,9.501c-0.165,0.125-0.332,0.247-0.502,0.369c-0.17,0.121-0.343,0.241-0.518,0.361
					c-0.215,0.15-0.43,0.298-0.645,0.444c-0.215,0.146-0.43,0.291-0.645,0.436c-0.225,0.15-0.45,0.297-0.676,0.444
					c-0.226,0.146-0.454,0.291-0.684,0.436c-0.285,0.18-0.57,0.357-0.856,0.531c-0.286,0.174-0.574,0.344-0.864,0.509
					c-0.22,0.13-0.443,0.26-0.666,0.389s-0.449,0.256-0.674,0.381c-0.31,0.17-0.62,0.34-0.931,0.507s-0.624,0.333-0.939,0.493
					l-0.875-2.12l-0.875-2.12l-8.42-20.35l-8.42-20.35c0.775-0.66,1.485-1.378,2.129-2.145c0.644-0.768,1.221-1.585,1.731-2.445
					l24.33,3.3l24.33,3.3c-0.075,0.31-0.155,0.62-0.238,0.929C473.19,312.792,473.105,313.099,473.02,313.404z"/>
				<path id="XMLID_1339_" style="fill:#FC7701;" d="M386.953,338.22l-5.563,7.296l-5.563,7.296
					c7.877,4.596,16.656,7.545,25.764,8.61c9.108,1.065,18.544,0.246,27.735-2.692l-1.441-3.483l-1.441-3.483
					c-7.211,0.24-14.336-0.864-21.032-3.169S392.449,342.784,386.953,338.22z"/>
				<path id="XMLID_1338_" style="fill:#FC7701;" d="M437.831,350.249l0.876,2.118l0.876,2.118c3.037-1.563,5.904-3.339,8.594-5.299
					c2.69-1.96,5.204-4.105,7.535-6.404c-1.379,0.864-2.8,1.68-4.265,2.441s-2.974,1.466-4.528,2.108
					c-1.497,0.619-3.005,1.169-4.521,1.654C440.882,349.471,439.359,349.89,437.831,350.249z"/>
				<path id="XMLID_1337_" style="fill:#FC7701;" d="M369.027,312.281l-10.49,4.34l-10.49,4.34
					c2.117,5.116,4.803,9.822,7.953,14.079c3.15,4.257,6.765,8.065,10.737,11.384l6.159-8.078l6.159-8.078
					c-1.777-2.173-3.413-4.491-4.887-6.948c-1.474-2.457-2.786-5.052-3.915-7.779c-0.224-0.54-0.436-1.083-0.64-1.626
					C369.411,313.372,369.216,312.827,369.027,312.281z"/>
				<path id="XMLID_1302_" style="fill:#FC840A;" d="M405.789,313.516l-9.418,12.352l-9.418,12.352
					c5.496,4.564,11.763,8.069,18.459,10.374s13.821,3.409,21.032,3.169l-7.856-18.988l-7.856-18.988
					c-0.835,0.069-1.668,0.079-2.493,0.033C407.413,313.775,406.595,313.672,405.789,313.516z"/>
				<path id="XMLID_1301_" style="fill:#FC840A;" d="M473.506,311.554l-24.327-3.298l-24.327-3.298
					c-0.509,0.856-1.086,1.674-1.73,2.443c-0.644,0.768-1.355,1.487-2.133,2.145l8.421,20.352l8.421,20.352
					c1.528-0.359,3.051-0.778,4.567-1.263c1.516-0.485,3.024-1.035,4.521-1.654c1.554-0.643,3.063-1.348,4.528-2.108
					s2.886-1.576,4.265-2.441c4.372-4.313,8.091-9.181,11.081-14.44C469.784,323.083,472.046,317.432,473.506,311.554z"/>
				<path id="XMLID_1300_" style="fill:#FC840A;" d="M392.416,302.604l-11.695,4.839l-11.695,4.839
					c0.189,0.545,0.384,1.09,0.588,1.634c0.204,0.543,0.416,1.086,0.64,1.626c1.129,2.727,2.441,5.323,3.915,7.779
					c1.474,2.457,3.111,4.775,4.887,6.948l8.456-11.091l8.456-11.091c-0.731-0.78-1.403-1.627-2.001-2.541
					S392.849,303.65,392.416,302.604z"/>
			</g>
			<g id="XMLID_1200_">
				<path id="XMLID_1298_" style="fill:#C53A4C;" d="M182.603,344.842c0.55,0.669,0.767,1.502,0.675,2.297
					c-0.092,0.796-0.495,1.555-1.185,2.078c-16.83,12.745-37.264,17.755-56.87,15.463c-19.606-2.292-38.385-11.884-51.903-28.343
					c-13.518-16.459-19.278-36.744-17.716-56.422s10.448-38.749,26.221-52.78c0.647-0.576,1.47-0.823,2.269-0.758
					c0.799,0.064,1.573,0.439,2.123,1.109l48.193,58.678L182.603,344.842z"/>
				<polygon id="XMLID_1297_" style="fill:#FC840A;" points="124.394,273.966 111.181,257.878 97.967,241.789 97.966,241.79 
					97.965,241.79 111.179,257.879 124.393,273.968 124.393,273.967 				"/>
				<polygon id="XMLID_1296_" style="fill:#FC840A;" points="170.854,330.536 170.854,330.536 170.855,330.535 157.641,314.447 
					144.428,298.358 144.427,298.359 144.426,298.359 157.64,314.448 				"/>
				<polygon id="XMLID_1239_" style="fill:#FAB784;" points="144.426,298.359 144.427,298.359 144.428,298.358 134.411,286.162 
					124.394,273.966 124.394,273.967 124.393,273.967 134.41,286.163 				"/>
				<path id="XMLID_1238_" style="fill:#ECDACF;" d="M176.212,337.062c-9.856,8.092-21.355,12.847-33.129,14.398
					c-11.774,1.551-23.822-0.101-34.776-4.822c-4.671-2.007-9.142-4.574-13.308-7.69c-4.166-3.116-8.027-6.781-11.479-10.982
					c-11.548-14.055-16.304-31.458-14.658-48.233c1.645-16.775,9.692-32.922,23.75-44.466l2.676,3.262l2.676,3.262l2.435,2.961
					l2.435,2.961l3.816,4.648l3.816,4.648l6.963,8.483l6.963,8.483l10.016,12.193l10.016,12.193l13.215,16.086l13.215,16.086
					l2.679,3.265L176.212,337.062z"/>
				<path id="XMLID_1236_" style="fill:#FDE9DA;" d="M122.66,295.478c-2.629-3.278-3.74-7.277-3.43-11.156
					c0.309-3.879,2.039-7.638,5.091-10.436l-0.017-0.021l-0.017-0.021l-6.912-8.419l-6.912-8.419l-3.816-4.648l-3.816-4.648
					c-12.094,11.809-18.764,27.369-19.679,43.304c-0.914,15.935,3.926,32.244,14.853,45.552c1.562,1.899,3.206,3.69,4.925,5.37
					c1.719,1.68,3.513,3.248,5.373,4.702c10.955,4.721,23.003,6.373,34.776,4.822c11.774-1.551,23.272-6.306,33.129-14.398
					l-2.679-3.265l-2.679-3.265l-13.215-16.086l-13.215-16.086l-0.011-0.013l-0.011-0.013c-3.405,2.498-7.506,3.448-11.423,2.941
					C129.059,300.767,125.327,298.805,122.66,295.478z"/>
				<path id="XMLID_1235_" style="fill:#ECDACF;" d="M125.95,291.997c-1.529-1.907-2.201-4.321-2.397-6.749s0.082-4.871,0.453-6.838
					c0.11-0.58,0.314-1.12,0.594-1.608c0.28-0.488,0.635-0.925,1.047-1.299l-0.629-0.765l-0.629-0.765l-0.035-0.043l-0.035-0.043
					c-3.052,2.799-4.782,6.558-5.091,10.436c-0.309,3.879,0.802,7.877,3.43,11.156c2.667,3.326,6.4,5.289,10.317,5.795
					c3.917,0.507,8.018-0.443,11.423-2.941l-0.66-0.803l-0.66-0.803c-2.251,1.788-5.292,2.154-8.391,1.299
					C131.591,297.171,128.434,295.094,125.95,291.997z"/>
				<path id="XMLID_1201_" style="fill:#1F3D5C;" d="M124.006,278.411c-0.371,1.967-0.65,4.41-0.453,6.838s0.868,4.841,2.397,6.749
					c2.484,3.098,5.641,5.174,8.739,6.029c3.099,0.855,6.139,0.489,8.391-1.299l-8.717-10.612l-8.717-10.612
					c-0.411,0.374-0.767,0.811-1.047,1.299C124.32,277.291,124.116,277.83,124.006,278.411z"/>
			</g>
			<g id="XMLID_1191_">
				<path id="XMLID_1199_" style="fill:#C53A4C;" d="M182.462,362.162c0.843,0.197,1.523,0.725,1.934,1.412
					c0.411,0.688,0.554,1.535,0.324,2.37c-5.6,20.355-18.767,36.764-35.72,46.876s-37.692,13.926-58.435,9.09
					c-20.743-4.836-37.657-17.428-48.391-33.994s-15.288-37.107-11.309-57.84c0.163-0.85,0.666-1.547,1.339-1.982
					c0.673-0.435,1.516-0.608,2.359-0.412l73.95,17.239L182.462,362.162z"/>
				<polygon id="XMLID_1198_" style="fill:#FC840A;" points="93.143,341.338 72.868,336.611 52.592,331.885 52.592,331.885 
					52.592,331.886 72.867,336.613 93.143,341.34 93.143,341.339 				"/>
				<polygon id="XMLID_1197_" style="fill:#FC840A;" points="164.434,357.959 164.434,357.959 164.435,357.958 144.159,353.231 
					123.883,348.504 123.883,348.505 123.883,348.506 144.158,353.233 				"/>
				<polygon id="XMLID_1196_" style="fill:#FAB784;" points="123.883,348.506 123.883,348.505 123.883,348.505 108.513,344.921 
					93.143,341.338 93.143,341.339 93.143,341.34 108.513,344.923 				"/>
				<path id="XMLID_1195_" style="fill:#ECDACF;" d="M172.657,359.877c-2.898,12.419-9.13,23.189-17.529,31.584
					c-8.399,8.395-18.965,14.415-30.531,17.335c-4.928,1.25-10.038,1.933-15.24,1.995c-5.202,0.062-10.496-0.497-15.792-1.73
					c-17.716-4.127-32.08-15.043-40.982-29.356s-12.342-32.023-8.211-49.738l4.109,0.96l4.109,0.96l3.734,0.868l3.734,0.868
					l5.857,1.367l5.857,1.367l10.688,2.495l10.688,2.495l15.368,3.582l15.368,3.582l20.275,4.724l20.275,4.724l4.113,0.961
					L172.657,359.877z"/>
				<path id="XMLID_1194_" style="fill:#FDE9DA;" d="M104.857,359.465c-4.081-1.002-7.396-3.499-9.51-6.765
					c-2.115-3.266-3.03-7.301-2.311-11.38l-0.026-0.006l-0.026-0.006l-10.608-2.475l-10.608-2.475l-5.857-1.367l-5.857-1.367
					c-2.412,16.731,1.764,33.137,10.734,46.339s22.736,23.198,39.505,27.111c2.395,0.557,4.789,0.977,7.176,1.264
					s4.764,0.44,7.125,0.461c11.566-2.919,22.132-8.94,30.531-17.335c8.399-8.395,14.631-19.165,17.529-31.584l-4.113-0.961
					l-4.113-0.961l-20.275-4.724l-20.275-4.724l-0.017-0.004l-0.017-0.004c-1.182,4.054-3.859,7.303-7.275,9.285
					C113.154,359.767,108.997,360.481,104.857,359.465z"/>
				<path id="XMLID_1193_" style="fill:#ECDACF;" d="M105.35,354.699c-2.374-0.583-4.376-2.089-6.009-3.897
					c-1.633-1.807-2.898-3.915-3.801-5.702c-0.266-0.527-0.432-1.08-0.507-1.637c-0.075-0.558-0.058-1.12,0.04-1.668l-0.965-0.225
					l-0.965-0.225l-0.054-0.013l-0.054-0.013c-0.719,4.078,0.196,8.113,2.311,11.38c2.115,3.266,5.429,5.763,9.51,6.765
					c4.141,1.017,8.297,0.303,11.713-1.679c3.417-1.982,6.093-5.231,7.275-9.285l-1.012-0.236l-1.012-0.236
					c-0.699,2.789-2.888,4.93-5.868,6.137S109.206,355.646,105.35,354.699z"/>
				<path id="XMLID_1192_" style="fill:#1F3D5C;" d="M95.54,345.101c0.902,1.787,2.168,3.895,3.801,5.702
					c1.633,1.807,3.634,3.314,6.009,3.897c3.856,0.947,7.625,0.674,10.604-0.533s5.169-3.348,5.868-6.137l-13.374-3.117
					l-13.374-3.117c-0.099,0.547-0.115,1.11-0.04,1.668C95.107,344.021,95.274,344.574,95.54,345.101z"/>
			</g>
			<g id="XMLID_885_">
				<path id="XMLID_1190_" style="fill:#BA6C37;" d="M184.972,331.885c0,21.087,8.547,40.177,22.366,53.996
					c13.819,13.819,32.909,22.366,53.996,22.366s40.177-8.547,53.996-22.366s22.366-32.909,22.366-53.996
					s-8.547-40.177-22.366-53.996s-32.909-22.366-53.996-22.366s-40.177,8.547-53.996,22.366
					C193.519,291.708,184.972,310.798,184.972,331.885z"/>
				<path id="XMLID_1071_" style="fill:#89C527;" d="M196.336,331.885c0,17.949,7.275,34.198,19.037,45.96
					c11.762,11.762,28.012,19.037,45.96,19.037s34.198-7.275,45.96-19.037c11.762-11.762,19.037-28.012,19.037-45.96
					c0-17.949-7.275-34.198-19.037-45.96c-11.762-11.762-28.012-19.037-45.96-19.037s-34.198,7.275-45.96,19.037
					C203.611,297.687,196.336,313.936,196.336,331.885z"/>
				<path id="XMLID_1069_" style="fill:#A5E034;" d="M202.436,331.885c0,16.264,6.592,30.988,17.251,41.647
					c10.658,10.658,25.383,17.251,41.647,17.251s30.988-6.592,41.647-17.251c10.658-10.658,17.251-25.383,17.251-41.647
					c0-16.264-6.592-30.988-17.251-41.647c-10.658-10.658-25.383-17.251-41.647-17.251s-30.988,6.592-41.647,17.251
					C209.028,300.896,202.436,315.62,202.436,331.885z"/>
				<path id="XMLID_1068_" style="fill:#CED98B;" d="M225.531,331.885c0,9.886,4.007,18.837,10.486,25.316
					c6.479,6.479,15.429,10.486,25.316,10.486c9.886,0,18.837-4.007,25.316-10.486c6.479-6.479,10.486-15.429,10.486-25.316
					c0-9.886-4.007-18.837-10.486-25.316c-6.479-6.479-15.429-10.486-25.316-10.486c-9.886,0-18.837,4.007-25.316,10.486
					C229.539,313.048,225.531,321.998,225.531,331.885z"/>
				<path id="XMLID_1067_" style="fill:#D65F05;" d="M256.667,292.643c0,1.289,0.522,3.205,1.367,4.8
					c0.844,1.595,2.011,2.867,3.3,2.867s2.455-1.272,3.3-2.867c0.845-1.595,1.367-3.511,1.367-4.8s-0.522-2.455-1.367-3.3
					c-0.844-0.844-2.011-1.367-3.3-1.367s-2.455,0.522-3.3,1.367C257.189,290.188,256.667,291.354,256.667,292.643z"/>
				<path id="XMLID_1066_" style="fill:#D65F05;" d="M266,372.81c0-1.289-0.522-3.205-1.367-4.8c-0.845-1.594-2.011-2.867-3.3-2.867
					s-2.455,1.272-3.3,2.867c-0.845,1.595-1.367,3.511-1.367,4.8s0.522,2.455,1.367,3.3c0.844,0.845,2.011,1.367,3.3,1.367
					s2.455-0.522,3.3-1.367C265.478,375.265,266,374.098,266,372.81z"/>
				<path id="XMLID_1065_" style="fill:#D65F05;" d="M301.417,328.06c-1.289,0-3.205,0.522-4.8,1.367
					c-1.594,0.844-2.867,2.011-2.867,3.3s1.272,2.455,2.867,3.3c1.595,0.845,3.511,1.367,4.8,1.367s2.455-0.522,3.3-1.367
					c0.845-0.844,1.367-2.011,1.367-3.3s-0.522-2.455-1.367-3.3C303.872,328.582,302.705,328.06,301.417,328.06z"/>
				<path id="XMLID_1064_" style="fill:#D65F05;" d="M221.25,337.393c1.289,0,3.205-0.522,4.8-1.367
					c1.594-0.845,2.867-2.011,2.867-3.3s-1.272-2.455-2.867-3.3c-1.594-0.845-3.511-1.367-4.8-1.367s-2.455,0.522-3.3,1.367
					c-0.844,0.844-1.367,2.011-1.367,3.3s0.522,2.455,1.367,3.3C218.795,336.871,219.961,337.393,221.25,337.393z"/>
				<path id="XMLID_1063_" style="fill:#D65F05;" d="M286.377,301.676c-0.911,0.911-1.897,2.636-2.428,4.36
					c-0.53,1.725-0.605,3.449,0.306,4.361s2.636,0.837,4.361,0.306s3.449-1.516,4.36-2.427s1.367-2.106,1.367-3.3
					s-0.456-2.389-1.367-3.3s-2.106-1.367-3.3-1.367C288.482,300.31,287.288,300.765,286.377,301.676z"/>
				<path id="XMLID_1062_" style="fill:#D65F05;" d="M236.29,364.962c0.911-0.911,1.897-2.636,2.428-4.36
					c0.53-1.725,0.605-3.449-0.306-4.361s-2.636-0.836-4.36-0.306c-1.725,0.53-3.449,1.516-4.36,2.428s-1.367,2.106-1.367,3.3
					c0,1.194,0.456,2.389,1.367,3.3s2.106,1.367,3.3,1.367S235.379,365.874,236.29,364.962z"/>
				<path id="XMLID_1061_" style="fill:#D65F05;" d="M292.976,357.77c-0.911-0.911-2.636-1.897-4.36-2.427
					c-1.725-0.53-3.449-0.605-4.361,0.306s-0.836,2.636-0.306,4.361c0.53,1.725,1.516,3.449,2.427,4.36s2.106,1.367,3.3,1.367
					s2.389-0.456,3.3-1.367s1.367-2.105,1.367-3.3S293.888,358.681,292.976,357.77z"/>
				<path id="XMLID_898_" style="fill:#D65F05;" d="M229.69,307.683c0.911,0.911,2.636,1.897,4.36,2.427s3.449,0.605,4.36-0.306
					s0.837-2.636,0.306-4.36c-0.53-1.725-1.516-3.449-2.428-4.361s-2.106-1.367-3.3-1.367c-1.194,0-2.389,0.456-3.3,1.367
					s-1.367,2.106-1.367,3.3S228.779,306.772,229.69,307.683z"/>
				<path id="XMLID_890_" style="fill:#E3F79D;" d="M239.664,331.885c0,5.984,2.425,11.401,6.347,15.323
					c3.921,3.921,9.339,6.347,15.323,6.347c5.984,0,11.401-2.425,15.323-6.347c3.921-3.921,6.347-9.339,6.347-15.323
					c0-5.984-2.425-11.401-6.347-15.323c-3.921-3.921-9.339-6.347-15.323-6.347c-5.984,0-11.401,2.425-15.323,6.347
					C242.089,320.483,239.664,325.901,239.664,331.885z"/>
			</g>
			<g id="XMLID_847_">
				<path id="XMLID_851_" style="fill:#475DB0;" d="M420.249,408.895c-1.239,6.472-4.587,12.005-9.195,16.022
					c-4.609,4.018-10.478,6.521-16.759,6.935c-1.181,0.076-2.375,0.08-3.577,0.006c-1.203-0.074-2.414-0.224-3.629-0.457
					c-7.688-1.471-14.05-5.918-18.123-11.918c-4.073-6-5.855-13.555-4.384-21.243c1.471-7.688,5.918-14.05,11.918-18.123
					c6-4.073,13.555-5.855,21.243-4.384c1.215,0.233,2.397,0.54,3.541,0.915c1.145,0.376,2.253,0.82,3.322,1.327
					c5.684,2.704,10.215,7.198,13.014,12.633C420.42,396.046,421.488,402.423,420.249,408.895z"/>
				<path id="XMLID_850_" style="fill:#4F66CE;" d="M420.249,408.895c-1.239,6.472-4.587,12.005-9.195,16.022
					c-4.609,4.018-10.478,6.521-16.759,6.935c-5.688-2.701-10.222-7.195-13.024-12.632s-3.872-11.817-2.633-18.289
					c1.239-6.472,4.589-12.006,9.2-16.024c4.611-4.018,10.484-6.521,16.768-6.93c5.684,2.704,10.215,7.198,13.014,12.633
					C420.42,396.046,421.488,402.423,420.249,408.895z"/>
				<path id="XMLID_849_" style="fill:#435999;" d="M404.285,382.684c-0.153,0.799-1.141,1.36-2.616,1.62s-3.435,0.221-5.532-0.18
					s-3.933-1.089-5.207-1.875c-1.274-0.787-1.986-1.673-1.833-2.472c0.153-0.799,1.141-1.36,2.616-1.62
					c1.474-0.261,3.435-0.221,5.532,0.18s3.933,1.089,5.207,1.875C403.726,380.998,404.438,381.885,404.285,382.684z"/>
				<path id="XMLID_848_" style="fill:#6480E3;" d="M416.942,398.925c0.408,2.175,0.31,4.231-0.177,5.798s-1.365,2.644-2.516,2.859
					c-1.151,0.216-2.359-0.47-3.381-1.754s-1.857-3.165-2.265-5.34c-0.408-2.175-0.31-4.231,0.177-5.798s1.365-2.644,2.516-2.859
					s2.359,0.47,3.381,1.754S416.534,396.75,416.942,398.925z"/>
			</g>
			<g id="XMLID_842_">
				<path id="XMLID_846_" style="fill:#475DB0;" d="M376.887,394.365c-1.752,9.154-6.487,16.978-13.005,22.661
					c-6.518,5.682-14.819,9.223-23.702,9.808c-1.67,0.108-3.359,0.113-5.059,0.009c-1.701-0.104-3.414-0.317-5.132-0.646
					c-10.873-2.081-19.871-8.369-25.631-16.856c-5.76-8.487-8.281-19.171-6.201-30.044c2.081-10.873,8.369-19.871,16.856-25.631
					c8.487-5.76,19.171-8.281,30.044-6.201c1.719,0.329,3.389,0.763,5.008,1.295s3.186,1.16,4.698,1.877
					c8.039,3.824,14.447,10.18,18.406,17.867C377.128,376.191,378.639,385.211,376.887,394.365z"/>
				<path id="XMLID_845_" style="fill:#4F66CE;" d="M376.887,394.365c-1.752,9.154-6.487,16.978-13.005,22.661
					c-6.518,5.682-14.819,9.223-23.702,9.808c-8.045-3.82-14.457-10.177-18.42-17.866c-3.963-7.689-5.476-16.712-3.724-25.866
					c1.752-9.154,6.49-16.98,13.012-22.663s14.828-9.222,23.715-9.802c8.039,3.824,14.447,10.18,18.406,17.867
					C377.128,376.191,378.639,385.211,376.887,394.365z"/>
				<path id="XMLID_844_" style="fill:#435999;" d="M354.308,357.293c-0.216,1.13-1.614,1.923-3.699,2.292
					c-2.085,0.369-4.858,0.313-7.824-0.255c-2.966-0.568-5.563-1.54-7.365-2.652c-1.802-1.113-2.808-2.366-2.592-3.496
					c0.216-1.13,1.614-1.923,3.7-2.292c2.085-0.369,4.858-0.313,7.824,0.255c2.966,0.568,5.563,1.54,7.365,2.652
					C353.518,354.91,354.525,356.163,354.308,357.293z"/>
				<path id="XMLID_843_" style="fill:#6480E3;" d="M372.209,380.263c0.577,3.076,0.438,5.985-0.251,8.2s-1.93,3.739-3.559,4.044
					c-1.629,0.305-3.337-0.665-4.782-2.481c-1.445-1.816-2.627-4.477-3.204-7.553c-0.577-3.076-0.438-5.985,0.251-8.2
					c0.689-2.216,1.93-3.739,3.559-4.044c1.629-0.305,3.337,0.665,4.782,2.481C370.45,374.526,371.632,377.187,372.209,380.263z"/>
			</g>
		</g>
	</g>
</g>
</svg>
