<svg xmlns="http://www.w3.org/2000/svg" width="2142" height="2142" viewBox="0 0 2142 2142" version="1.1"><path d="M 352.435 914 C 352.645 973.772, 352.975 988.797, 354.316 999.583 C 355.211 1006.778, 356.650 1017.059, 357.514 1022.429 C 358.378 1027.799, 359.975 1036.537, 361.063 1041.846 C 362.152 1047.156, 364.585 1057.350, 366.471 1064.500 C 368.357 1071.650, 372.114 1084.025, 374.820 1092 C 377.527 1099.975, 381.102 1109.875, 382.766 1114 C 384.429 1118.125, 388.682 1127.800, 392.216 1135.500 C 395.751 1143.200, 401.915 1155.350, 405.915 1162.500 C 409.915 1169.650, 417.484 1182.025, 422.736 1190 C 427.987 1197.975, 436.233 1209.675, 441.061 1216 C 445.889 1222.325, 453.940 1232.112, 458.953 1237.750 L 468.067 1248 1117.546 1248 L 1767.025 1248 1769.544 1242.305 C 1770.929 1239.172, 1773.664 1232.335, 1775.621 1227.110 C 1777.578 1221.885, 1780.475 1212.635, 1782.060 1206.555 C 1783.644 1200.475, 1785.936 1189.875, 1787.154 1183 C 1789.285 1170.963, 1789.377 1167.794, 1789.628 1097.500 L 1789.888 1024.500 1788.008 1036.708 C 1786.973 1043.423, 1784.917 1053.773, 1783.438 1059.708 C 1781.959 1065.644, 1778.936 1075.627, 1776.720 1081.893 C 1774.504 1088.159, 1769.431 1099.859, 1765.447 1107.893 C 1761.463 1115.927, 1754.839 1127.529, 1750.727 1133.676 C 1746.615 1139.822, 1740.384 1148.372, 1736.880 1152.676 C 1733.377 1156.979, 1726.944 1164.228, 1722.585 1168.784 C 1718.226 1173.340, 1710.205 1180.765, 1704.760 1185.284 C 1699.316 1189.803, 1689.605 1197.038, 1683.181 1201.363 C 1676.756 1205.687, 1664.300 1212.745, 1655.500 1217.045 C 1646.700 1221.346, 1634.775 1226.454, 1629 1228.396 C 1623.225 1230.338, 1612.875 1233.283, 1606 1234.939 C 1599.125 1236.595, 1588.189 1238.637, 1581.699 1239.475 C 1571.292 1240.820, 1521.891 1241, 1163.699 1240.997 C 889.518 1240.994, 753.762 1240.654, 746 1239.949 C 739.675 1239.375, 728.200 1238.009, 720.500 1236.913 C 712.800 1235.818, 698.625 1233.171, 689 1231.032 C 679.375 1228.893, 664.750 1225.048, 656.500 1222.487 C 648.250 1219.926, 636.100 1215.780, 629.500 1213.273 C 622.900 1210.767, 611.705 1206.098, 604.623 1202.897 C 597.541 1199.696, 585.391 1193.626, 577.623 1189.408 C 569.855 1185.190, 557.911 1178.167, 551.080 1173.801 C 544.249 1169.435, 533.653 1162.140, 527.534 1157.589 C 521.414 1153.038, 510.865 1144.671, 504.092 1138.995 C 497.318 1133.319, 485.863 1122.780, 478.638 1115.574 C 471.412 1108.369, 460.734 1096.854, 454.910 1089.987 C 449.085 1083.119, 440.852 1072.827, 436.613 1067.116 C 432.375 1061.405, 425.618 1051.730, 421.599 1045.616 C 417.579 1039.502, 411.356 1029.325, 407.771 1023 C 404.186 1016.675, 398.982 1006.968, 396.206 1001.429 C 393.431 995.889, 388.671 985.443, 385.628 978.215 C 382.585 970.987, 378.300 959.994, 376.107 953.786 C 373.914 947.579, 370.277 936.200, 368.027 928.500 C 365.776 920.800, 362.416 907.075, 360.559 898 C 358.703 888.925, 356.457 876.100, 355.569 869.500 C 354.681 862.900, 353.556 853.900, 353.068 849.500 C 352.503 844.412, 352.273 867.886, 352.435 914" stroke="none" fill="#734119" fill-rule="evenodd"/><path d="M 752.500 379.067 C 746.450 379.542, 735.875 380.648, 729 381.524 C 722.125 382.400, 710.425 384.231, 703 385.593 C 695.575 386.954, 682.750 389.827, 674.500 391.978 C 666.250 394.128, 652.975 398.096, 645 400.796 C 637.025 403.495, 625.325 407.827, 619 410.423 C 612.675 413.019, 600.710 418.486, 592.410 422.572 C 584.111 426.659, 570.836 433.862, 562.910 438.580 C 554.985 443.299, 543.325 450.790, 537 455.227 C 530.675 459.665, 520.324 467.426, 513.999 472.474 C 507.673 477.521, 497.323 486.387, 490.999 492.175 C 484.674 497.963, 476.119 506.254, 471.987 510.600 C 467.855 514.945, 460.249 523.425, 455.086 529.445 C 449.923 535.464, 442.002 545.364, 437.485 551.445 C 432.967 557.525, 425.887 567.675, 421.751 574 C 417.616 580.325, 411.673 589.959, 408.544 595.409 C 405.416 600.859, 400.418 610.182, 397.437 616.125 C 394.456 622.069, 389.300 633.284, 385.980 641.048 C 382.659 648.812, 377.488 662.439, 374.489 671.332 C 371.491 680.224, 367.261 694.475, 365.091 703 C 362.920 711.525, 359.994 725.025, 358.589 733 C 357.183 740.975, 355.243 753.800, 354.277 761.500 C 352.911 772.390, 352.530 782.830, 352.559 808.500 C 352.587 833.274, 353.028 845.164, 354.329 856.199 C 355.282 864.284, 357.185 877.334, 358.558 885.199 C 359.932 893.065, 362.623 905.881, 364.539 913.679 C 366.455 921.478, 370.209 934.528, 372.881 942.679 C 375.552 950.831, 379.862 962.900, 382.459 969.500 C 385.055 976.100, 390.926 989.150, 395.505 998.500 C 400.084 1007.850, 406.170 1019.550, 409.029 1024.500 C 411.888 1029.450, 417.155 1038, 420.732 1043.500 C 424.310 1049, 430.667 1058.225, 434.859 1064 C 439.050 1069.775, 446.952 1079.900, 452.418 1086.500 C 457.884 1093.100, 469.588 1105.732, 478.428 1114.572 C 487.268 1123.412, 499.900 1135.116, 506.500 1140.582 C 513.100 1146.048, 523.225 1153.951, 529 1158.146 C 534.775 1162.340, 544 1168.683, 549.500 1172.241 C 555 1175.799, 564.900 1181.782, 571.500 1185.535 C 578.100 1189.289, 589.484 1195.222, 596.798 1198.720 C 604.112 1202.219, 615.812 1207.366, 622.798 1210.158 C 629.784 1212.951, 640.675 1216.962, 647 1219.073 C 653.325 1221.184, 665.573 1224.750, 674.218 1226.997 C 682.863 1229.244, 697.038 1232.376, 705.718 1233.958 C 714.398 1235.539, 728.475 1237.658, 737 1238.666 C 751.793 1240.416, 771.215 1240.500, 1163 1240.500 C 1554.857 1240.500, 1574.013 1240.418, 1584.797 1238.684 C 1591.010 1237.685, 1601.360 1235.576, 1607.797 1233.998 C 1614.234 1232.421, 1624.225 1229.507, 1630 1227.524 C 1635.775 1225.541, 1647.250 1220.611, 1655.500 1216.569 C 1663.750 1212.527, 1675.421 1205.973, 1681.436 1202.004 C 1687.451 1198.036, 1695.551 1192.286, 1699.436 1189.226 C 1703.321 1186.167, 1712.387 1177.777, 1719.582 1170.582 C 1726.777 1163.387, 1735.167 1154.321, 1738.226 1150.436 C 1741.286 1146.551, 1747.048 1138.451, 1751.031 1132.436 C 1755.015 1126.421, 1761.558 1114.822, 1765.571 1106.660 C 1769.697 1098.271, 1775.035 1085.230, 1777.851 1076.660 C 1780.591 1068.322, 1783.992 1055.551, 1785.410 1048.279 C 1786.827 1041.008, 1788.435 1029.983, 1788.984 1023.779 C 1789.534 1017.576, 1789.983 1006.425, 1789.983 999 C 1789.983 991.575, 1789.534 981.450, 1788.985 976.500 C 1788.436 971.550, 1787.065 962.550, 1785.938 956.500 C 1784.811 950.450, 1782.540 940.775, 1780.891 935 C 1779.243 929.225, 1775.850 919.325, 1773.352 913 C 1770.854 906.675, 1766.346 896.804, 1763.336 891.064 C 1760.325 885.324, 1755.080 876.325, 1751.681 871.067 C 1748.281 865.808, 1741.922 857.004, 1737.550 851.503 C 1733.177 846.001, 1725.077 836.993, 1719.550 831.485 C 1714.022 825.977, 1705.675 818.418, 1701 814.687 C 1696.325 810.957, 1688 804.893, 1682.500 801.213 C 1677 797.533, 1666.200 791.335, 1658.500 787.440 C 1650.800 783.545, 1640.450 778.890, 1635.500 777.095 C 1630.550 775.301, 1621.325 772.340, 1615 770.515 C 1608.675 768.690, 1597.875 766.230, 1591 765.048 C 1582.273 763.547, 1570.803 762.616, 1553 761.963 C 1538.975 761.449, 1523.450 760.554, 1518.500 759.976 C 1513.550 759.397, 1503.916 757.798, 1497.090 756.424 C 1490.265 755.049, 1479.169 752.131, 1472.433 749.939 C 1465.697 747.748, 1455.535 743.921, 1449.850 741.434 C 1444.165 738.948, 1436.135 735.073, 1432.007 732.824 C 1427.878 730.575, 1420.695 726.269, 1416.044 723.255 C 1411.394 720.242, 1403.969 715.055, 1399.544 711.728 C 1394.647 708.045, 1351.990 666.317, 1290.500 605.056 C 1234.950 549.713, 1184.100 499.869, 1177.500 494.291 C 1170.900 488.712, 1161.051 480.734, 1155.613 476.561 C 1150.175 472.387, 1139.825 464.998, 1132.613 460.140 C 1125.401 455.281, 1114.100 448.143, 1107.500 444.278 C 1100.900 440.412, 1090.731 434.768, 1084.902 431.735 C 1079.073 428.703, 1068.133 423.457, 1060.592 420.077 C 1053.050 416.698, 1040.494 411.514, 1032.689 408.559 C 1024.885 405.603, 1012.425 401.366, 1005 399.143 C 997.575 396.919, 986.792 393.921, 981.038 392.479 C 975.284 391.037, 965.384 388.801, 959.038 387.510 C 952.692 386.219, 940.975 384.226, 933 383.080 C 925.025 381.935, 913.775 380.486, 908 379.861 C 901.520 379.159, 871.849 378.624, 830.500 378.464 C 793.650 378.320, 758.550 378.592, 752.500 379.067 M 756.500 474.664 C 754.300 474.880, 747.100 475.735, 740.500 476.563 C 733.900 477.391, 723.097 479.159, 716.494 480.491 C 709.890 481.823, 697.965 484.784, 689.994 487.071 C 682.022 489.358, 670.550 493.147, 664.500 495.492 C 658.450 497.837, 648.991 501.787, 643.480 504.271 C 637.970 506.755, 628.745 511.352, 622.980 514.487 C 617.216 517.621, 606.200 524.342, 598.500 529.421 C 590.800 534.499, 580 542.259, 574.500 546.663 C 569 551.068, 560.290 558.523, 555.145 563.231 C 550 567.938, 541.936 576, 537.226 581.145 C 532.516 586.290, 524.885 595.225, 520.268 601 C 515.651 606.775, 508.137 617.125, 503.570 624 C 499.003 630.875, 492.513 641.452, 489.147 647.503 C 485.781 653.555, 480.597 663.905, 477.627 670.503 C 474.657 677.102, 470.636 686.775, 468.692 692 C 466.747 697.225, 463.591 706.675, 461.678 713 C 459.765 719.325, 457.036 729.703, 455.613 736.061 C 454.191 742.420, 452.139 753.670, 451.054 761.061 C 449.968 768.453, 448.615 782.498, 448.046 792.272 C 447.336 804.448, 447.333 815.470, 448.033 827.272 C 448.596 836.748, 449.926 850.390, 450.989 857.588 C 452.052 864.787, 453.877 875.137, 455.043 880.588 C 456.210 886.040, 458.267 894.463, 459.614 899.308 C 460.961 904.152, 462.756 910.227, 463.602 912.808 C 464.449 915.388, 466.970 922.450, 469.205 928.500 C 471.439 934.550, 476.297 945.855, 480 953.622 C 483.703 961.389, 489.341 972.189, 492.529 977.622 C 495.718 983.055, 501.425 992.130, 505.212 997.790 C 509 1003.449, 516.689 1013.799, 522.299 1020.790 C 527.909 1027.780, 538.350 1039.363, 545.500 1046.528 C 552.650 1053.693, 563.277 1063.467, 569.115 1068.246 C 574.953 1073.026, 584.628 1080.371, 590.615 1084.569 C 596.602 1088.767, 606.329 1095.073, 612.231 1098.582 C 618.133 1102.092, 627.358 1107.166, 632.731 1109.859 C 638.104 1112.552, 646.836 1116.598, 652.136 1118.851 C 657.435 1121.103, 668.235 1125.145, 676.136 1127.832 C 684.036 1130.519, 696.350 1134.118, 703.500 1135.830 C 710.650 1137.543, 720.550 1139.644, 725.500 1140.501 C 730.450 1141.358, 740.350 1142.716, 747.500 1143.520 C 758.687 1144.777, 816.560 1144.982, 1162.500 1144.986 C 1510.756 1144.991, 1565.707 1144.796, 1573.530 1143.527 C 1578.496 1142.722, 1586.596 1140.910, 1591.530 1139.502 C 1596.463 1138.093, 1606.364 1134.073, 1613.531 1130.568 C 1620.699 1127.063, 1630.374 1121.377, 1635.031 1117.932 C 1639.689 1114.486, 1646.596 1108.705, 1650.380 1105.084 C 1654.164 1101.463, 1660.319 1094.561, 1664.057 1089.746 C 1667.795 1084.932, 1673.086 1077.057, 1675.815 1072.246 C 1678.544 1067.436, 1682.389 1059.426, 1684.360 1054.446 C 1686.331 1049.466, 1689.061 1040.691, 1690.426 1034.946 C 1691.791 1029.201, 1693.373 1019.325, 1693.941 1013 C 1694.638 1005.240, 1694.650 997.825, 1693.978 990.200 C 1693.430 983.985, 1692.104 974.985, 1691.031 970.200 C 1689.958 965.415, 1687.936 958.156, 1686.538 954.069 C 1685.140 949.982, 1682.202 942.931, 1680.009 938.401 C 1677.817 933.871, 1673.260 926.035, 1669.883 920.986 C 1666.506 915.938, 1659.664 907.541, 1654.679 902.326 C 1649.694 897.111, 1641.853 890.021, 1637.257 886.571 C 1632.660 883.121, 1625.478 878.342, 1621.298 875.950 C 1617.117 873.558, 1609.602 869.962, 1604.598 867.959 C 1599.594 865.956, 1591.900 863.364, 1587.500 862.199 C 1583.100 861.035, 1576.575 859.597, 1573 859.004 C 1569.425 858.412, 1554.350 857.502, 1539.500 856.983 C 1522.988 856.405, 1507.256 855.278, 1499 854.081 C 1491.575 853.005, 1481 851.159, 1475.500 849.980 C 1470 848.801, 1461.595 846.750, 1456.821 845.423 C 1452.048 844.095, 1443.948 841.613, 1438.821 839.906 C 1433.695 838.200, 1424.720 834.855, 1418.877 832.473 C 1413.035 830.092, 1402.796 825.407, 1396.124 822.062 C 1389.452 818.718, 1379.157 813.105, 1373.247 809.590 C 1367.336 806.074, 1358.225 800.169, 1353 796.466 C 1347.775 792.764, 1338.775 785.893, 1333 781.198 C 1326.925 776.259, 1279.519 729.823, 1220.500 671 C 1161.166 611.863, 1114.108 565.771, 1108 560.810 C 1102.225 556.119, 1092.775 548.941, 1087 544.860 C 1081.225 540.778, 1072.900 535.159, 1068.500 532.374 C 1064.100 529.588, 1055.531 524.552, 1049.457 521.183 C 1043.384 517.813, 1033.709 512.846, 1027.957 510.143 C 1022.206 507.441, 1012.325 503.199, 1006 500.717 C 999.675 498.235, 990.225 494.776, 985 493.030 C 979.775 491.285, 968.750 488.104, 960.500 485.963 C 952.250 483.821, 940.224 481.133, 933.775 479.989 C 927.327 478.844, 916.977 477.186, 910.775 476.304 C 901.436 474.976, 887.569 474.664, 830 474.485 C 791.775 474.367, 758.700 474.447, 756.500 474.664 M 767 666.682 C 765.075 666.880, 759.054 667.967, 753.619 669.096 C 748.185 670.225, 739.860 672.517, 735.119 674.190 C 730.379 675.863, 723.101 678.940, 718.947 681.028 C 714.792 683.116, 707.142 687.659, 701.947 691.123 C 696.299 694.889, 688.274 701.660, 681.989 707.961 C 676.209 713.757, 668.640 722.672, 665.170 727.771 C 661.701 732.869, 656.441 742.094, 653.482 748.271 C 650.523 754.447, 646.934 763.550, 645.508 768.500 C 644.081 773.450, 642.204 781.975, 641.336 787.445 C 640.146 794.947, 639.890 801.581, 640.297 814.445 C 640.619 824.592, 641.507 834.538, 642.491 839 C 643.400 843.125, 645.463 850.467, 647.075 855.316 C 648.687 860.165, 651.800 867.891, 653.993 872.486 C 656.186 877.080, 660.765 885.038, 664.169 890.170 C 668.061 896.036, 674.655 903.784, 681.929 911.038 C 688.671 917.760, 697.091 924.957, 702.103 928.282 C 706.834 931.421, 714.765 936.006, 719.727 938.471 C 724.688 940.936, 732.742 944.284, 737.624 945.911 C 742.506 947.538, 750.325 949.686, 755 950.684 C 761.603 952.095, 767.964 952.500, 783.500 952.500 C 799.292 952.500, 805.280 952.109, 811.960 950.641 C 816.612 949.619, 823.812 947.659, 827.960 946.285 C 832.107 944.911, 839.325 942.011, 844 939.841 C 848.675 937.671, 855.847 933.809, 859.939 931.259 C 864.030 928.709, 871.326 923.336, 876.152 919.319 C 880.979 915.302, 887.911 908.525, 891.558 904.258 C 895.204 899.991, 900.626 892.842, 903.606 888.371 C 906.585 883.900, 910.991 876.025, 913.396 870.871 C 915.800 865.717, 918.913 857.867, 920.312 853.426 C 921.711 848.985, 923.598 841.560, 924.505 836.926 C 925.413 832.292, 926.405 822.872, 926.711 815.993 C 927.036 808.693, 926.762 799.139, 926.054 793.044 C 925.386 787.301, 923.724 778.304, 922.361 773.051 C 920.997 767.798, 917.870 758.731, 915.411 752.902 C 912.952 747.072, 907.866 737.622, 904.108 731.902 C 900.350 726.181, 894.568 718.408, 891.259 714.629 C 887.950 710.850, 882.150 705.054, 878.371 701.748 C 874.592 698.443, 867.065 692.808, 861.644 689.225 C 856.223 685.643, 847.384 680.773, 842.001 678.404 C 836.618 676.035, 828.228 672.953, 823.357 671.555 C 818.486 670.158, 810 668.338, 804.500 667.513 C 799 666.687, 789.100 666.081, 782.500 666.166 C 775.900 666.251, 768.925 666.483, 767 666.682 M 764.673 739.961 C 760.918 740.973, 754.942 743.231, 751.393 744.978 C 747.843 746.726, 742.140 750.384, 738.719 753.108 C 735.299 755.831, 730.340 760.634, 727.700 763.780 C 725.061 766.926, 721.125 773.100, 718.955 777.500 C 716.786 781.900, 714.231 788.425, 713.278 792 C 712.109 796.384, 711.547 802.243, 711.551 810 C 711.556 819.180, 712.023 823.013, 713.870 829 C 715.143 833.125, 717.716 839.425, 719.588 843 C 721.461 846.575, 725.023 852.084, 727.505 855.242 C 729.986 858.400, 734.600 863.031, 737.758 865.534 C 740.916 868.036, 747.100 871.863, 751.500 874.037 C 755.900 876.211, 762.425 878.768, 766 879.718 C 770.332 880.871, 776.169 881.438, 783.500 881.419 C 791.816 881.398, 796.441 880.843, 802.455 879.143 C 806.830 877.906, 813.500 875.270, 817.277 873.285 C 821.053 871.301, 827.565 866.487, 831.746 862.588 C 835.928 858.690, 841.485 852.235, 844.094 848.245 C 846.704 844.255, 849.969 837.505, 851.350 833.245 C 852.731 828.985, 854.161 823.998, 854.529 822.163 C 854.896 820.328, 855.187 814.389, 855.174 808.966 C 855.157 802.070, 854.511 796.777, 853.025 791.360 C 851.856 787.099, 849.027 779.988, 846.737 775.557 C 843.632 769.548, 840.403 765.330, 834.037 758.963 C 827.681 752.608, 823.449 749.367, 817.473 746.279 C 813.058 743.997, 806.092 741.201, 801.993 740.065 C 796.356 738.503, 791.734 738.015, 783.020 738.060 C 775.139 738.101, 769.343 738.702, 764.673 739.961 M 128.500 1249.670 C 127.400 1249.911, 124.636 1251.029, 122.359 1252.155 C 120.081 1253.281, 116.409 1256.069, 114.198 1258.351 C 111.987 1260.633, 109.319 1264.075, 108.271 1266 C 107.222 1267.925, 106.071 1270.287, 105.713 1271.250 C 105.355 1272.213, 105.262 1273, 105.506 1273 C 105.750 1273, 106.831 1271.088, 107.908 1268.750 C 108.984 1266.412, 112.483 1262.023, 115.683 1258.995 C 118.882 1255.967, 122.506 1252.930, 123.736 1252.245 C 124.966 1251.560, 126.852 1251, 127.927 1251 C 129.002 1251, 130.160 1250.550, 130.500 1250 C 130.840 1249.450, 130.979 1249.052, 130.809 1249.116 C 130.639 1249.180, 129.600 1249.429, 128.500 1249.670 M 2007.558 1250.093 C 2007.866 1250.592, 2008.998 1251, 2010.073 1251 C 2011.148 1251, 2013.034 1251.560, 2014.264 1252.245 C 2015.494 1252.930, 2019.118 1255.967, 2022.317 1258.995 C 2025.517 1262.023, 2029.016 1266.412, 2030.092 1268.750 C 2031.169 1271.088, 2032.250 1273, 2032.494 1273 C 2032.738 1273, 2032.645 1272.213, 2032.287 1271.250 C 2031.929 1270.287, 2030.778 1267.925, 2029.729 1266 C 2028.681 1264.075, 2026.013 1260.633, 2023.802 1258.351 C 2021.591 1256.069, 2017.919 1253.295, 2015.641 1252.187 C 2013.364 1251.078, 2010.487 1249.950, 2009.249 1249.679 C 2008.010 1249.408, 2007.249 1249.595, 2007.558 1250.093" stroke="none" fill="#fab991" fill-rule="evenodd"/><path d="M 763 475.059 C 755.575 475.473, 744.100 476.555, 737.500 477.462 C 730.900 478.369, 718.432 480.673, 709.793 482.582 C 701.154 484.492, 688.524 487.832, 681.728 490.005 C 674.931 492.178, 663.815 496.239, 657.026 499.030 C 650.236 501.821, 639.690 506.592, 633.591 509.633 C 627.491 512.674, 616.721 518.613, 609.658 522.831 C 602.594 527.049, 590.806 535, 583.461 540.500 C 576.116 546, 565.071 555, 558.917 560.500 C 552.763 566, 543.381 575.225, 538.068 581 C 532.756 586.775, 524.704 596.152, 520.175 601.838 C 515.647 607.524, 508.197 617.874, 503.621 624.838 C 499.044 631.802, 492.711 642.150, 489.546 647.834 C 486.382 653.517, 481.992 662.067, 479.789 666.834 C 477.587 671.600, 474.041 679.877, 471.910 685.228 C 469.778 690.578, 466.655 699.128, 464.971 704.228 C 463.286 709.327, 460.593 718.450, 458.986 724.500 C 457.379 730.550, 454.966 741.575, 453.624 749 C 452.282 756.425, 450.584 767.450, 449.851 773.500 C 449.042 780.175, 448.535 794.724, 448.561 810.500 C 448.592 829.262, 449.084 840.086, 450.329 849.381 C 451.278 856.466, 453.180 868.039, 454.556 875.098 C 455.933 882.157, 458.854 894.286, 461.049 902.050 C 463.243 909.815, 467.109 921.643, 469.640 928.334 C 472.171 935.025, 477.252 946.800, 480.930 954.500 C 484.609 962.200, 491.481 974.882, 496.202 982.683 C 500.923 990.484, 508.732 1002.184, 513.557 1008.683 C 518.382 1015.182, 526.256 1025, 531.056 1030.500 C 535.856 1036, 544.219 1044.809, 549.641 1050.076 C 555.064 1055.343, 563.550 1062.996, 568.500 1067.083 C 573.450 1071.170, 582.225 1077.940, 588 1082.129 C 593.775 1086.318, 604.350 1093.260, 611.500 1097.557 C 618.650 1101.854, 630.350 1108.158, 637.500 1111.567 C 644.650 1114.975, 655.719 1119.821, 662.098 1122.335 C 668.477 1124.850, 680.631 1128.916, 689.107 1131.370 C 697.583 1133.825, 710.364 1136.972, 717.509 1138.364 C 724.654 1139.755, 736.575 1141.705, 744 1142.697 C 756.820 1144.409, 777.897 1144.500, 1162.500 1144.500 L 1567.500 1144.500 1578.203 1142.239 C 1584.089 1140.995, 1592.864 1138.580, 1597.703 1136.873 C 1602.541 1135.166, 1610.100 1131.972, 1614.500 1129.777 C 1618.900 1127.581, 1626.272 1123.290, 1630.883 1120.240 C 1635.493 1117.191, 1643.747 1110.395, 1649.223 1105.139 C 1654.700 1099.882, 1662.032 1091.782, 1665.517 1087.139 C 1669.002 1082.496, 1674.319 1073.927, 1677.333 1068.098 C 1680.347 1062.269, 1684.201 1053.540, 1685.897 1048.699 C 1687.592 1043.858, 1689.902 1035.533, 1691.029 1030.199 C 1692.156 1024.865, 1693.343 1014.425, 1693.666 1007 C 1694.101 997.008, 1693.823 990.582, 1692.595 982.269 C 1691.683 976.091, 1689.665 966.641, 1688.112 961.269 C 1686.559 955.896, 1683.866 948.175, 1682.129 944.111 C 1680.392 940.048, 1676.904 933.247, 1674.376 928.999 C 1671.849 924.750, 1667.468 918.184, 1664.641 914.407 C 1661.813 910.630, 1655.500 903.573, 1650.612 898.725 C 1645.424 893.580, 1637.087 886.823, 1630.588 882.495 C 1624.464 878.416, 1616.059 873.511, 1611.910 871.594 C 1607.762 869.677, 1600.885 866.940, 1596.628 865.511 C 1592.371 864.082, 1584.751 862.014, 1579.694 860.914 C 1572.828 859.422, 1563.918 858.678, 1544.500 857.978 C 1530.200 857.462, 1514.225 856.558, 1509 855.971 C 1503.775 855.383, 1494.325 853.991, 1488 852.877 C 1481.675 851.763, 1471.912 849.755, 1466.305 848.413 C 1460.697 847.071, 1449.831 843.952, 1442.157 841.481 C 1434.483 839.010, 1423.770 835.149, 1418.352 832.902 C 1412.933 830.655, 1402.787 825.957, 1395.804 822.461 C 1388.821 818.966, 1378.471 813.314, 1372.804 809.902 C 1367.137 806.490, 1358.675 801.002, 1354 797.708 C 1349.325 794.413, 1341.450 788.546, 1336.500 784.671 C 1331.230 780.544, 1285.230 735.512, 1225.500 676.004 C 1161.041 611.784, 1118.862 570.540, 1110.899 563.942 C 1103.969 558.199, 1093.163 549.816, 1086.887 545.314 C 1080.610 540.811, 1069.405 533.469, 1061.987 528.998 C 1054.569 524.527, 1041.750 517.569, 1033.500 513.536 C 1025.250 509.502, 1012.200 503.724, 1004.500 500.696 C 996.800 497.667, 985.325 493.595, 979 491.647 C 972.675 489.698, 963 486.985, 957.500 485.617 C 952 484.250, 942.775 482.229, 937 481.127 C 931.225 480.025, 920.987 478.406, 914.249 477.529 C 907.511 476.652, 894.011 475.509, 884.249 474.991 C 874.487 474.472, 846.250 474.106, 821.500 474.176 C 796.750 474.247, 770.425 474.644, 763 475.059 M 767.090 666.109 C 763.015 666.587, 755.120 668.077, 749.546 669.420 C 743.972 670.763, 736.298 673.034, 732.492 674.467 C 728.686 675.899, 721.338 679.300, 716.164 682.024 C 710.989 684.748, 703.140 689.570, 698.720 692.739 C 694.300 695.907, 686.592 702.565, 681.592 707.532 C 676.591 712.500, 669.575 720.719, 666 725.796 C 662.425 730.874, 657.600 738.734, 655.279 743.264 C 652.957 747.794, 649.938 754.425, 648.570 758 C 647.202 761.575, 645.149 767.875, 644.008 772 C 642.867 776.125, 641.282 784, 640.485 789.500 C 639.688 795, 639.037 804, 639.037 809.500 C 639.037 815, 639.686 824, 640.480 829.500 C 641.274 835, 642.856 843.023, 643.996 847.330 C 645.136 851.636, 647.664 859.144, 649.613 864.014 C 651.563 868.885, 655.559 876.934, 658.495 881.902 C 661.430 886.869, 665.934 893.665, 668.502 897.003 C 671.071 900.341, 675.683 905.784, 678.750 909.097 C 681.818 912.411, 687.967 918.051, 692.414 921.631 C 696.861 925.211, 704.571 930.585, 709.547 933.573 C 714.523 936.560, 722.848 940.737, 728.047 942.854 C 733.246 944.971, 742 947.866, 747.500 949.288 C 753 950.710, 761.946 952.414, 767.380 953.076 C 773.171 953.782, 782.277 954.045, 789.380 953.712 C 796.046 953.400, 805.325 952.399, 810 951.487 C 814.675 950.576, 822.775 948.464, 828 946.793 C 833.225 945.123, 841.550 941.738, 846.500 939.271 C 851.450 936.804, 859.100 932.383, 863.500 929.445 C 867.900 926.508, 874.650 921.360, 878.500 918.005 C 882.350 914.651, 888.335 908.665, 891.801 904.703 C 895.266 900.741, 900.615 893.717, 903.688 889.094 C 906.761 884.470, 911.208 876.595, 913.571 871.594 C 915.934 866.592, 918.993 859.125, 920.369 855 C 921.745 850.875, 923.855 842.775, 925.058 837 C 926.774 828.766, 927.249 823.047, 927.261 810.500 C 927.272 799.740, 926.720 791.410, 925.576 785.067 C 924.640 779.878, 922.506 771.328, 920.834 766.067 C 919.161 760.805, 915.837 752.401, 913.447 747.392 C 911.058 742.382, 906.295 734.057, 902.863 728.892 C 898.972 723.033, 892.275 715.148, 885.062 707.932 C 877.443 700.308, 870.069 694.092, 863.439 689.704 C 857.906 686.042, 849.514 681.260, 844.791 679.078 C 840.068 676.896, 832.670 673.953, 828.352 672.539 C 824.033 671.124, 816 669.050, 810.500 667.930 C 804.450 666.698, 795.364 665.765, 787.500 665.567 C 780.350 665.388, 771.166 665.632, 767.090 666.109 M 771.500 738.938 C 768.750 739.392, 763.575 740.754, 760 741.965 C 756.425 743.176, 751.085 745.542, 748.134 747.223 C 745.183 748.904, 740.087 752.511, 736.809 755.238 C 733.532 757.966, 728.793 762.965, 726.279 766.349 C 723.764 769.732, 720.249 775.650, 718.467 779.500 C 716.684 783.350, 714.500 789.739, 713.613 793.697 C 712.726 797.656, 712 804.988, 712 809.992 C 712 814.995, 712.724 822.106, 713.610 825.794 C 714.495 829.483, 717.249 836.753, 719.730 841.951 C 723.547 849.951, 725.574 852.736, 732.919 860.081 C 740.239 867.401, 743.077 869.469, 751.049 873.295 C 756.247 875.790, 763.739 878.544, 767.697 879.416 C 771.656 880.287, 778.896 881, 783.787 881 C 789.356 881, 795.636 880.255, 800.590 879.007 C 804.941 877.911, 811.729 875.391, 815.676 873.408 C 819.623 871.424, 825.698 867.451, 829.176 864.578 C 832.654 861.705, 837.374 856.912, 839.664 853.927 C 841.954 850.942, 845.401 845.350, 847.325 841.500 C 849.249 837.650, 851.624 831.575, 852.603 828 C 853.835 823.505, 854.396 817.799, 854.424 809.500 C 854.457 799.683, 854.041 796.136, 852.140 790 C 850.862 785.875, 848.286 779.575, 846.415 776 C 844.544 772.425, 841.035 767.088, 838.616 764.141 C 836.198 761.193, 831.807 756.802, 828.859 754.384 C 825.912 751.965, 820.432 748.374, 816.683 746.403 C 812.934 744.433, 806.859 741.944, 803.183 740.873 C 799.335 739.752, 792.258 738.754, 786.500 738.519 C 781 738.296, 774.250 738.484, 771.500 738.938" stroke="none" fill="#e13741" fill-rule="evenodd"/><path d="M 763 475.059 C 755.575 475.473, 744.100 476.555, 737.500 477.462 C 730.900 478.369, 718.432 480.673, 709.793 482.582 C 701.154 484.492, 688.524 487.832, 681.728 490.005 C 674.931 492.178, 663.815 496.239, 657.026 499.030 C 650.236 501.821, 639.690 506.592, 633.591 509.633 C 627.491 512.674, 616.721 518.613, 609.658 522.831 C 602.594 527.049, 590.806 535, 583.461 540.500 C 576.116 546, 565.071 555, 558.917 560.500 C 552.763 566, 543.381 575.225, 538.068 581 C 532.756 586.775, 524.704 596.152, 520.175 601.838 C 515.647 607.524, 508.197 617.874, 503.621 624.838 C 499.044 631.802, 492.711 642.150, 489.546 647.834 C 486.382 653.517, 481.992 662.067, 479.789 666.834 C 477.587 671.600, 474.041 679.877, 471.910 685.228 C 469.778 690.578, 466.655 699.128, 464.971 704.228 C 463.286 709.327, 460.593 718.450, 458.986 724.500 C 457.379 730.550, 454.966 741.575, 453.624 749 C 452.282 756.425, 450.584 767.450, 449.851 773.500 C 449.042 780.175, 448.535 794.724, 448.561 810.500 C 448.592 829.262, 449.084 840.086, 450.329 849.381 C 451.278 856.466, 453.180 868.039, 454.556 875.098 C 455.933 882.157, 458.854 894.286, 461.049 902.050 C 463.243 909.815, 467.109 921.643, 469.640 928.334 C 472.171 935.025, 477.252 946.800, 480.930 954.500 C 484.609 962.200, 491.481 974.882, 496.202 982.683 C 500.923 990.484, 508.732 1002.184, 513.557 1008.683 C 518.382 1015.182, 526.256 1025, 531.056 1030.500 C 535.856 1036, 544.219 1044.809, 549.641 1050.076 C 555.064 1055.343, 563.550 1062.996, 568.500 1067.083 C 573.450 1071.170, 582.225 1077.940, 588 1082.129 C 593.775 1086.318, 604.350 1093.260, 611.500 1097.557 C 618.650 1101.854, 630.350 1108.158, 637.500 1111.567 C 644.650 1114.975, 655.719 1119.821, 662.098 1122.335 C 668.477 1124.850, 680.631 1128.916, 689.107 1131.370 C 697.583 1133.825, 710.364 1136.972, 717.509 1138.364 C 724.654 1139.755, 736.575 1141.705, 744 1142.697 C 756.820 1144.409, 777.897 1144.500, 1162.500 1144.500 L 1567.500 1144.500 1578.203 1142.239 C 1584.089 1140.995, 1592.864 1138.580, 1597.703 1136.873 C 1602.541 1135.166, 1610.100 1131.972, 1614.500 1129.777 C 1618.900 1127.581, 1626.272 1123.290, 1630.883 1120.240 C 1635.493 1117.191, 1643.747 1110.395, 1649.223 1105.139 C 1654.700 1099.882, 1662.032 1091.782, 1665.517 1087.139 C 1669.002 1082.496, 1674.319 1073.927, 1677.333 1068.098 C 1680.347 1062.269, 1684.201 1053.540, 1685.897 1048.699 C 1687.592 1043.858, 1689.902 1035.533, 1691.029 1030.199 C 1692.156 1024.865, 1693.343 1014.425, 1693.666 1007 C 1694.101 997.008, 1693.823 990.582, 1692.595 982.269 C 1691.683 976.091, 1689.665 966.641, 1688.112 961.269 C 1686.559 955.896, 1683.866 948.175, 1682.129 944.111 C 1680.392 940.048, 1676.904 933.247, 1674.376 928.999 C 1671.849 924.750, 1667.468 918.184, 1664.641 914.407 C 1661.813 910.630, 1655.500 903.573, 1650.612 898.725 C 1645.424 893.580, 1637.087 886.823, 1630.588 882.495 C 1624.464 878.416, 1616.059 873.511, 1611.910 871.594 C 1607.762 869.677, 1600.885 866.940, 1596.628 865.511 C 1592.371 864.082, 1584.751 862.014, 1579.694 860.914 C 1572.828 859.422, 1563.918 858.678, 1544.500 857.978 C 1530.200 857.462, 1514.225 856.558, 1509 855.971 C 1503.775 855.383, 1494.325 853.991, 1488 852.877 C 1481.675 851.763, 1471.912 849.755, 1466.305 848.413 C 1460.697 847.071, 1449.831 843.952, 1442.157 841.481 C 1434.483 839.010, 1423.770 835.149, 1418.352 832.902 C 1412.933 830.655, 1402.787 825.957, 1395.804 822.461 C 1388.821 818.966, 1378.471 813.314, 1372.804 809.902 C 1367.137 806.490, 1358.675 801.002, 1354 797.708 C 1349.325 794.413, 1341.450 788.546, 1336.500 784.671 C 1331.230 780.544, 1285.230 735.512, 1225.500 676.004 C 1161.041 611.784, 1118.862 570.540, 1110.899 563.942 C 1103.969 558.199, 1093.163 549.816, 1086.887 545.314 C 1080.610 540.811, 1069.405 533.469, 1061.987 528.998 C 1054.569 524.527, 1041.750 517.569, 1033.500 513.536 C 1025.250 509.502, 1012.200 503.724, 1004.500 500.696 C 996.800 497.667, 985.325 493.595, 979 491.647 C 972.675 489.698, 963 486.985, 957.500 485.617 C 952 484.250, 942.775 482.229, 937 481.127 C 931.225 480.025, 920.987 478.406, 914.249 477.529 C 907.511 476.652, 894.011 475.509, 884.249 474.991 C 874.487 474.472, 846.250 474.106, 821.500 474.176 C 796.750 474.247, 770.425 474.644, 763 475.059 M 767.090 666.109 C 763.015 666.587, 755.120 668.077, 749.546 669.420 C 743.972 670.763, 736.298 673.034, 732.492 674.467 C 728.686 675.899, 721.338 679.300, 716.164 682.024 C 710.989 684.748, 703.140 689.570, 698.720 692.739 C 694.300 695.907, 686.592 702.565, 681.592 707.532 C 676.591 712.500, 669.575 720.719, 666 725.796 C 662.425 730.874, 657.600 738.734, 655.279 743.264 C 652.957 747.794, 649.938 754.425, 648.570 758 C 647.202 761.575, 645.149 767.875, 644.008 772 C 642.867 776.125, 641.282 784, 640.485 789.500 C 639.688 795, 639.037 804, 639.037 809.500 C 639.037 815, 639.686 824, 640.480 829.500 C 641.274 835, 642.856 843.023, 643.996 847.330 C 645.136 851.636, 647.664 859.144, 649.613 864.014 C 651.563 868.885, 655.559 876.934, 658.495 881.902 C 661.430 886.869, 665.934 893.665, 668.502 897.003 C 671.071 900.341, 675.683 905.784, 678.750 909.097 C 681.818 912.411, 687.967 918.051, 692.414 921.631 C 696.861 925.211, 704.571 930.585, 709.547 933.573 C 714.523 936.560, 722.848 940.737, 728.047 942.854 C 733.246 944.971, 742 947.866, 747.500 949.288 C 753 950.710, 761.946 952.414, 767.380 953.076 C 773.171 953.782, 782.277 954.045, 789.380 953.712 C 796.046 953.400, 805.325 952.399, 810 951.487 C 814.675 950.576, 822.775 948.464, 828 946.793 C 833.225 945.123, 841.550 941.738, 846.500 939.271 C 851.450 936.804, 859.100 932.383, 863.500 929.445 C 867.900 926.508, 874.650 921.360, 878.500 918.005 C 882.350 914.651, 888.335 908.665, 891.801 904.703 C 895.266 900.741, 900.615 893.717, 903.688 889.094 C 906.761 884.470, 911.208 876.595, 913.571 871.594 C 915.934 866.592, 918.993 859.125, 920.369 855 C 921.745 850.875, 923.855 842.775, 925.058 837 C 926.774 828.766, 927.249 823.047, 927.261 810.500 C 927.272 799.740, 926.720 791.410, 925.576 785.067 C 924.640 779.878, 922.506 771.328, 920.834 766.067 C 919.161 760.805, 915.837 752.401, 913.447 747.392 C 911.058 742.382, 906.295 734.057, 902.863 728.892 C 898.972 723.033, 892.275 715.148, 885.062 707.932 C 877.443 700.308, 870.069 694.092, 863.439 689.704 C 857.906 686.042, 849.514 681.260, 844.791 679.078 C 840.068 676.896, 832.670 673.953, 828.352 672.539 C 824.033 671.124, 816 669.050, 810.500 667.930 C 804.450 666.698, 795.364 665.765, 787.500 665.567 C 780.350 665.388, 771.166 665.632, 767.090 666.109 M 771.500 738.938 C 768.750 739.392, 763.575 740.754, 760 741.965 C 756.425 743.176, 751.085 745.542, 748.134 747.223 C 745.183 748.904, 740.087 752.511, 736.809 755.238 C 733.532 757.966, 728.793 762.965, 726.279 766.349 C 723.764 769.732, 720.249 775.650, 718.467 779.500 C 716.684 783.350, 714.500 789.739, 713.613 793.697 C 712.726 797.656, 712 804.988, 712 809.992 C 712 814.995, 712.724 822.106, 713.610 825.794 C 714.495 829.483, 717.249 836.753, 719.730 841.951 C 723.547 849.951, 725.574 852.736, 732.919 860.081 C 740.239 867.401, 743.077 869.469, 751.049 873.295 C 756.247 875.790, 763.739 878.544, 767.697 879.416 C 771.656 880.287, 778.896 881, 783.787 881 C 789.356 881, 795.636 880.255, 800.590 879.007 C 804.941 877.911, 811.729 875.391, 815.676 873.408 C 819.623 871.424, 825.698 867.451, 829.176 864.578 C 832.654 861.705, 837.374 856.912, 839.664 853.927 C 841.954 850.942, 845.401 845.350, 847.325 841.500 C 849.249 837.650, 851.624 831.575, 852.603 828 C 853.835 823.505, 854.396 817.799, 854.424 809.500 C 854.457 799.683, 854.041 796.136, 852.140 790 C 850.862 785.875, 848.286 779.575, 846.415 776 C 844.544 772.425, 841.035 767.088, 838.616 764.141 C 836.198 761.193, 831.807 756.802, 828.859 754.384 C 825.912 751.965, 820.432 748.374, 816.683 746.403 C 812.934 744.433, 806.859 741.944, 803.183 740.873 C 799.335 739.752, 792.258 738.754, 786.500 738.519 C 781 738.296, 774.250 738.484, 771.500 738.938" stroke="none" fill="#e13741" fill-rule="evenodd"/><path d="M 752.500 379.067 C 746.450 379.542, 735.875 380.648, 729 381.524 C 722.125 382.400, 710.425 384.231, 703 385.593 C 695.575 386.954, 682.750 389.827, 674.500 391.978 C 666.250 394.128, 652.975 398.096, 645 400.796 C 637.025 403.495, 625.325 407.827, 619 410.423 C 612.675 413.019, 600.710 418.486, 592.410 422.572 C 584.111 426.659, 570.836 433.862, 562.910 438.580 C 554.985 443.299, 543.325 450.790, 537 455.227 C 530.675 459.665, 520.324 467.426, 513.999 472.474 C 507.673 477.521, 497.323 486.387, 490.999 492.175 C 484.674 497.963, 476.119 506.254, 471.987 510.600 C 467.855 514.945, 460.249 523.425, 455.086 529.445 C 449.923 535.464, 442.002 545.364, 437.485 551.445 C 432.967 557.525, 425.887 567.675, 421.751 574 C 417.616 580.325, 411.673 589.959, 408.544 595.409 C 405.416 600.859, 400.418 610.182, 397.437 616.125 C 394.456 622.069, 389.300 633.284, 385.980 641.048 C 382.659 648.812, 377.488 662.439, 374.489 671.332 C 371.491 680.224, 367.261 694.475, 365.091 703 C 362.920 711.525, 359.994 725.025, 358.589 733 C 357.183 740.975, 355.243 753.800, 354.277 761.500 C 352.911 772.390, 352.530 782.830, 352.559 808.500 C 352.587 833.274, 353.028 845.164, 354.329 856.199 C 355.282 864.284, 357.185 877.334, 358.558 885.199 C 359.932 893.065, 362.623 905.881, 364.539 913.679 C 366.455 921.478, 370.209 934.528, 372.881 942.679 C 375.552 950.831, 379.862 962.900, 382.459 969.500 C 385.055 976.100, 390.926 989.150, 395.505 998.500 C 400.084 1007.850, 406.170 1019.550, 409.029 1024.500 C 411.888 1029.450, 417.155 1038, 420.732 1043.500 C 424.310 1049, 430.667 1058.225, 434.859 1064 C 439.050 1069.775, 446.952 1079.900, 452.418 1086.500 C 457.884 1093.100, 469.588 1105.732, 478.428 1114.572 C 487.268 1123.412, 499.900 1135.116, 506.500 1140.582 C 513.100 1146.048, 523.225 1153.951, 529 1158.146 C 534.775 1162.340, 544 1168.683, 549.500 1172.241 C 555 1175.799, 564.900 1181.782, 571.500 1185.535 C 578.100 1189.289, 589.484 1195.222, 596.798 1198.720 C 604.112 1202.219, 615.812 1207.366, 622.798 1210.158 C 629.784 1212.951, 640.675 1216.962, 647 1219.073 C 653.325 1221.184, 665.573 1224.750, 674.218 1226.997 C 682.863 1229.244, 697.038 1232.376, 705.718 1233.958 C 714.398 1235.539, 728.475 1237.658, 737 1238.666 C 751.793 1240.416, 771.215 1240.500, 1163 1240.500 C 1554.857 1240.500, 1574.013 1240.418, 1584.797 1238.684 C 1591.010 1237.685, 1601.360 1235.576, 1607.797 1233.998 C 1614.234 1232.421, 1624.225 1229.507, 1630 1227.524 C 1635.775 1225.541, 1647.250 1220.611, 1655.500 1216.569 C 1663.750 1212.527, 1675.421 1205.973, 1681.436 1202.004 C 1687.451 1198.036, 1695.551 1192.286, 1699.436 1189.226 C 1703.321 1186.167, 1712.387 1177.777, 1719.582 1170.582 C 1726.777 1163.387, 1735.167 1154.321, 1738.226 1150.436 C 1741.286 1146.551, 1747.048 1138.451, 1751.031 1132.436 C 1755.015 1126.421, 1761.558 1114.822, 1765.571 1106.660 C 1769.697 1098.271, 1775.035 1085.230, 1777.851 1076.660 C 1780.591 1068.322, 1783.992 1055.551, 1785.410 1048.279 C 1786.827 1041.008, 1788.435 1029.983, 1788.984 1023.779 C 1789.534 1017.576, 1789.983 1006.425, 1789.983 999 C 1789.983 991.575, 1789.534 981.450, 1788.985 976.500 C 1788.436 971.550, 1787.065 962.550, 1785.938 956.500 C 1784.811 950.450, 1782.540 940.775, 1780.891 935 C 1779.243 929.225, 1775.850 919.325, 1773.352 913 C 1770.854 906.675, 1766.346 896.804, 1763.336 891.064 C 1760.325 885.324, 1755.080 876.325, 1751.681 871.067 C 1748.281 865.808, 1741.922 857.004, 1737.550 851.503 C 1733.177 846.001, 1725.077 836.993, 1719.550 831.485 C 1714.022 825.977, 1705.675 818.418, 1701 814.687 C 1696.325 810.957, 1688 804.893, 1682.500 801.213 C 1677 797.533, 1666.200 791.335, 1658.500 787.440 C 1650.800 783.545, 1640.450 778.890, 1635.500 777.095 C 1630.550 775.301, 1621.325 772.340, 1615 770.515 C 1608.675 768.690, 1597.875 766.230, 1591 765.048 C 1582.273 763.547, 1570.803 762.616, 1553 761.963 C 1538.975 761.449, 1523.450 760.554, 1518.500 759.976 C 1513.550 759.397, 1503.916 757.798, 1497.090 756.424 C 1490.265 755.049, 1479.169 752.131, 1472.433 749.939 C 1465.697 747.748, 1455.535 743.921, 1449.850 741.434 C 1444.165 738.948, 1436.135 735.073, 1432.007 732.824 C 1427.878 730.575, 1420.695 726.269, 1416.044 723.255 C 1411.394 720.242, 1403.969 715.055, 1399.544 711.728 C 1394.647 708.045, 1351.990 666.317, 1290.500 605.056 C 1234.950 549.713, 1184.100 499.869, 1177.500 494.291 C 1170.900 488.712, 1161.051 480.734, 1155.613 476.561 C 1150.175 472.387, 1139.825 464.998, 1132.613 460.140 C 1125.401 455.281, 1114.100 448.143, 1107.500 444.278 C 1100.900 440.412, 1090.731 434.768, 1084.902 431.735 C 1079.073 428.703, 1068.133 423.457, 1060.592 420.077 C 1053.050 416.698, 1040.494 411.514, 1032.689 408.559 C 1024.885 405.603, 1012.425 401.366, 1005 399.143 C 997.575 396.919, 986.792 393.921, 981.038 392.479 C 975.284 391.037, 965.384 388.801, 959.038 387.510 C 952.692 386.219, 940.975 384.226, 933 383.080 C 925.025 381.935, 913.775 380.486, 908 379.861 C 901.520 379.159, 871.849 378.624, 830.500 378.464 C 793.650 378.320, 758.550 378.592, 752.500 379.067 M 756.500 474.664 C 754.300 474.880, 747.100 475.735, 740.500 476.563 C 733.900 477.391, 723.097 479.159, 716.494 480.491 C 709.890 481.823, 697.965 484.784, 689.994 487.071 C 682.022 489.358, 670.550 493.147, 664.500 495.492 C 658.450 497.837, 648.991 501.787, 643.480 504.271 C 637.970 506.755, 628.745 511.352, 622.980 514.487 C 617.216 517.621, 606.200 524.342, 598.500 529.421 C 590.800 534.499, 580 542.259, 574.500 546.663 C 569 551.068, 560.290 558.523, 555.145 563.231 C 550 567.938, 541.936 576, 537.226 581.145 C 532.516 586.290, 524.885 595.225, 520.268 601 C 515.651 606.775, 508.137 617.125, 503.570 624 C 499.003 630.875, 492.513 641.452, 489.147 647.503 C 485.781 653.555, 480.597 663.905, 477.627 670.503 C 474.657 677.102, 470.636 686.775, 468.692 692 C 466.747 697.225, 463.591 706.675, 461.678 713 C 459.765 719.325, 457.036 729.703, 455.613 736.061 C 454.191 742.420, 452.139 753.670, 451.054 761.061 C 449.968 768.453, 448.615 782.498, 448.046 792.272 C 447.336 804.448, 447.333 815.470, 448.033 827.272 C 448.596 836.748, 449.926 850.390, 450.989 857.588 C 452.052 864.787, 453.877 875.137, 455.043 880.588 C 456.210 886.040, 458.267 894.463, 459.614 899.308 C 460.961 904.152, 462.756 910.227, 463.602 912.808 C 464.449 915.388, 466.970 922.450, 469.205 928.500 C 471.439 934.550, 476.297 945.855, 480 953.622 C 483.703 961.389, 489.341 972.189, 492.529 977.622 C 495.718 983.055, 501.425 992.130, 505.212 997.790 C 509 1003.449, 516.689 1013.799, 522.299 1020.790 C 527.909 1027.780, 538.350 1039.363, 545.500 1046.528 C 552.650 1053.693, 563.277 1063.467, 569.115 1068.246 C 574.953 1073.026, 584.628 1080.371, 590.615 1084.569 C 596.602 1088.767, 606.329 1095.073, 612.231 1098.582 C 618.133 1102.092, 627.358 1107.166, 632.731 1109.859 C 638.104 1112.552, 646.836 1116.598, 652.136 1118.851 C 657.435 1121.103, 668.235 1125.145, 676.136 1127.832 C 684.036 1130.519, 696.350 1134.118, 703.500 1135.830 C 710.650 1137.543, 720.550 1139.644, 725.500 1140.501 C 730.450 1141.358, 740.350 1142.716, 747.500 1143.520 C 758.687 1144.777, 816.560 1144.982, 1162.500 1144.986 C 1510.756 1144.991, 1565.707 1144.796, 1573.530 1143.527 C 1578.496 1142.722, 1586.596 1140.910, 1591.530 1139.502 C 1596.463 1138.093, 1606.364 1134.073, 1613.531 1130.568 C 1620.699 1127.063, 1630.374 1121.377, 1635.031 1117.932 C 1639.689 1114.486, 1646.596 1108.705, 1650.380 1105.084 C 1654.164 1101.463, 1660.319 1094.561, 1664.057 1089.746 C 1667.795 1084.932, 1673.086 1077.057, 1675.815 1072.246 C 1678.544 1067.436, 1682.389 1059.426, 1684.360 1054.446 C 1686.331 1049.466, 1689.061 1040.691, 1690.426 1034.946 C 1691.791 1029.201, 1693.373 1019.325, 1693.941 1013 C 1694.638 1005.240, 1694.650 997.825, 1693.978 990.200 C 1693.430 983.985, 1692.104 974.985, 1691.031 970.200 C 1689.958 965.415, 1687.936 958.156, 1686.538 954.069 C 1685.140 949.982, 1682.202 942.931, 1680.009 938.401 C 1677.817 933.871, 1673.260 926.035, 1669.883 920.986 C 1666.506 915.938, 1659.664 907.541, 1654.679 902.326 C 1649.694 897.111, 1641.853 890.021, 1637.257 886.571 C 1632.660 883.121, 1625.478 878.342, 1621.298 875.950 C 1617.117 873.558, 1609.602 869.962, 1604.598 867.959 C 1599.594 865.956, 1591.900 863.364, 1587.500 862.199 C 1583.100 861.035, 1576.575 859.597, 1573 859.004 C 1569.425 858.412, 1554.350 857.502, 1539.500 856.983 C 1522.988 856.405, 1507.256 855.278, 1499 854.081 C 1491.575 853.005, 1481 851.159, 1475.500 849.980 C 1470 848.801, 1461.595 846.750, 1456.821 845.423 C 1452.048 844.095, 1443.948 841.613, 1438.821 839.906 C 1433.695 838.200, 1424.720 834.855, 1418.877 832.473 C 1413.035 830.092, 1402.796 825.407, 1396.124 822.062 C 1389.452 818.718, 1379.157 813.105, 1373.247 809.590 C 1367.336 806.074, 1358.225 800.169, 1353 796.466 C 1347.775 792.764, 1338.775 785.893, 1333 781.198 C 1326.925 776.259, 1279.519 729.823, 1220.500 671 C 1161.166 611.863, 1114.108 565.771, 1108 560.810 C 1102.225 556.119, 1092.775 548.941, 1087 544.860 C 1081.225 540.778, 1072.900 535.159, 1068.500 532.374 C 1064.100 529.588, 1055.531 524.552, 1049.457 521.183 C 1043.384 517.813, 1033.709 512.846, 1027.957 510.143 C 1022.206 507.441, 1012.325 503.199, 1006 500.717 C 999.675 498.235, 990.225 494.776, 985 493.030 C 979.775 491.285, 968.750 488.104, 960.500 485.963 C 952.250 483.821, 940.224 481.133, 933.775 479.989 C 927.327 478.844, 916.977 477.186, 910.775 476.304 C 901.436 474.976, 887.569 474.664, 830 474.485 C 791.775 474.367, 758.700 474.447, 756.500 474.664 M 767 666.682 C 765.075 666.880, 759.054 667.967, 753.619 669.096 C 748.185 670.225, 739.860 672.517, 735.119 674.190 C 730.379 675.863, 723.101 678.940, 718.947 681.028 C 714.792 683.116, 707.142 687.659, 701.947 691.123 C 696.299 694.889, 688.274 701.660, 681.989 707.961 C 676.209 713.757, 668.640 722.672, 665.170 727.771 C 661.701 732.869, 656.441 742.094, 653.482 748.271 C 650.523 754.447, 646.934 763.550, 645.508 768.500 C 644.081 773.450, 642.204 781.975, 641.336 787.445 C 640.146 794.947, 639.890 801.581, 640.297 814.445 C 640.619 824.592, 641.507 834.538, 642.491 839 C 643.400 843.125, 645.463 850.467, 647.075 855.316 C 648.687 860.165, 651.800 867.891, 653.993 872.486 C 656.186 877.080, 660.765 885.038, 664.169 890.170 C 668.061 896.036, 674.655 903.784, 681.929 911.038 C 688.671 917.760, 697.091 924.957, 702.103 928.282 C 706.834 931.421, 714.765 936.006, 719.727 938.471 C 724.688 940.936, 732.742 944.284, 737.624 945.911 C 742.506 947.538, 750.325 949.686, 755 950.684 C 761.603 952.095, 767.964 952.500, 783.500 952.500 C 799.292 952.500, 805.280 952.109, 811.960 950.641 C 816.612 949.619, 823.812 947.659, 827.960 946.285 C 832.107 944.911, 839.325 942.011, 844 939.841 C 848.675 937.671, 855.847 933.809, 859.939 931.259 C 864.030 928.709, 871.326 923.336, 876.152 919.319 C 880.979 915.302, 887.911 908.525, 891.558 904.258 C 895.204 899.991, 900.626 892.842, 903.606 888.371 C 906.585 883.900, 910.991 876.025, 913.396 870.871 C 915.800 865.717, 918.913 857.867, 920.312 853.426 C 921.711 848.985, 923.598 841.560, 924.505 836.926 C 925.413 832.292, 926.405 822.872, 926.711 815.993 C 927.036 808.693, 926.762 799.139, 926.054 793.044 C 925.386 787.301, 923.724 778.304, 922.361 773.051 C 920.997 767.798, 917.870 758.731, 915.411 752.902 C 912.952 747.072, 907.866 737.622, 904.108 731.902 C 900.350 726.181, 894.568 718.408, 891.259 714.629 C 887.950 710.850, 882.150 705.054, 878.371 701.748 C 874.592 698.443, 867.065 692.808, 861.644 689.225 C 856.223 685.643, 847.384 680.773, 842.001 678.404 C 836.618 676.035, 828.228 672.953, 823.357 671.555 C 818.486 670.158, 810 668.338, 804.500 667.513 C 799 666.687, 789.100 666.081, 782.500 666.166 C 775.900 666.251, 768.925 666.483, 767 666.682 M 764.673 739.961 C 760.918 740.973, 754.942 743.231, 751.393 744.978 C 747.843 746.726, 742.140 750.384, 738.719 753.108 C 735.299 755.831, 730.340 760.634, 727.700 763.780 C 725.061 766.926, 721.125 773.100, 718.955 777.500 C 716.786 781.900, 714.231 788.425, 713.278 792 C 712.109 796.384, 711.547 802.243, 711.551 810 C 711.556 819.180, 712.023 823.013, 713.870 829 C 715.143 833.125, 717.716 839.425, 719.588 843 C 721.461 846.575, 725.023 852.084, 727.505 855.242 C 729.986 858.400, 734.600 863.031, 737.758 865.534 C 740.916 868.036, 747.100 871.863, 751.500 874.037 C 755.900 876.211, 762.425 878.768, 766 879.718 C 770.332 880.871, 776.169 881.438, 783.500 881.419 C 791.816 881.398, 796.441 880.843, 802.455 879.143 C 806.830 877.906, 813.500 875.270, 817.277 873.285 C 821.053 871.301, 827.565 866.487, 831.746 862.588 C 835.928 858.690, 841.485 852.235, 844.094 848.245 C 846.704 844.255, 849.969 837.505, 851.350 833.245 C 852.731 828.985, 854.161 823.998, 854.529 822.163 C 854.896 820.328, 855.187 814.389, 855.174 808.966 C 855.157 802.070, 854.511 796.777, 853.025 791.360 C 851.856 787.099, 849.027 779.988, 846.737 775.557 C 843.632 769.548, 840.403 765.330, 834.037 758.963 C 827.681 752.608, 823.449 749.367, 817.473 746.279 C 813.058 743.997, 806.092 741.201, 801.993 740.065 C 796.356 738.503, 791.734 738.015, 783.020 738.060 C 775.139 738.101, 769.343 738.702, 764.673 739.961 M 128.500 1249.670 C 127.400 1249.911, 124.636 1251.029, 122.359 1252.155 C 120.081 1253.281, 116.409 1256.069, 114.198 1258.351 C 111.987 1260.633, 109.319 1264.075, 108.271 1266 C 107.222 1267.925, 106.071 1270.287, 105.713 1271.250 C 105.355 1272.213, 105.262 1273, 105.506 1273 C 105.750 1273, 106.831 1271.088, 107.908 1268.750 C 108.984 1266.412, 112.483 1262.023, 115.683 1258.995 C 118.882 1255.967, 122.506 1252.930, 123.736 1252.245 C 124.966 1251.560, 126.852 1251, 127.927 1251 C 129.002 1251, 130.160 1250.550, 130.500 1250 C 130.840 1249.450, 130.979 1249.052, 130.809 1249.116 C 130.639 1249.180, 129.600 1249.429, 128.500 1249.670 M 2007.558 1250.093 C 2007.866 1250.592, 2008.998 1251, 2010.073 1251 C 2011.148 1251, 2013.034 1251.560, 2014.264 1252.245 C 2015.494 1252.930, 2019.118 1255.967, 2022.317 1258.995 C 2025.517 1262.023, 2029.016 1266.412, 2030.092 1268.750 C 2031.169 1271.088, 2032.250 1273, 2032.494 1273 C 2032.738 1273, 2032.645 1272.213, 2032.287 1271.250 C 2031.929 1270.287, 2030.778 1267.925, 2029.729 1266 C 2028.681 1264.075, 2026.013 1260.633, 2023.802 1258.351 C 2021.591 1256.069, 2017.919 1253.295, 2015.641 1252.187 C 2013.364 1251.078, 2010.487 1249.950, 2009.249 1249.679 C 2008.010 1249.408, 2007.249 1249.595, 2007.558 1250.093" stroke="none" fill="#fab991" fill-rule="evenodd"/><path d="M 251.750 1248.750 C 291.488 1248.895, 356.513 1248.895, 396.250 1248.750 C 435.988 1248.605, 403.475 1248.487, 324 1248.487 C 244.525 1248.487, 212.013 1248.605, 251.750 1248.750 M 2026.183 1301.217 C 2025.533 1301.868, 2025 1303.408, 2025 1304.641 C 2025 1305.874, 2024.550 1307.160, 2024 1307.500 C 2023.450 1307.840, 2023 1308.978, 2023 1310.029 C 2023 1311.079, 2022.100 1313.542, 2021 1315.500 C 2019.900 1317.458, 2019 1319.708, 2019 1320.500 C 2019 1321.292, 2018.100 1323.542, 2017 1325.500 C 2015.900 1327.458, 2015 1329.708, 2015 1330.500 C 2015 1331.292, 2014.100 1333.542, 2013 1335.500 C 2011.900 1337.458, 2011 1339.921, 2011 1340.971 C 2011 1342.022, 2010.550 1343.160, 2010 1343.500 C 2009.450 1343.840, 2009 1344.978, 2009 1346.029 C 2009 1347.079, 2008.100 1349.542, 2007 1351.500 C 2005.900 1353.458, 2005 1355.708, 2005 1356.500 C 2005 1357.292, 2004.100 1359.542, 2003 1361.500 C 2001.900 1363.458, 2001 1365.708, 2001 1366.500 C 2001 1367.292, 2000.047 1369.640, 1998.883 1371.720 C 1997.719 1373.799, 1995.998 1376.625, 1995.060 1378 C 1994.123 1379.375, 1992.609 1382.126, 1991.696 1384.112 C 1990.784 1386.099, 1989.354 1388.292, 1988.518 1388.985 C 1987.683 1389.678, 1987 1390.781, 1987 1391.435 C 1987 1392.090, 1985.650 1393.919, 1984 1395.500 C 1982.350 1397.081, 1981 1398.858, 1981 1399.449 C 1981 1400.040, 1974.132 1407.381, 1965.738 1415.762 C 1957.344 1424.143, 1949.998 1431, 1949.413 1431 C 1948.827 1431, 1947.258 1432.164, 1945.924 1433.586 C 1944.591 1435.008, 1941.626 1437.027, 1939.335 1438.072 C 1937.045 1439.117, 1934.570 1440.541, 1933.835 1441.236 C 1933.101 1441.931, 1929.624 1443.963, 1926.110 1445.750 C 1922.595 1447.537, 1919.107 1449, 1918.360 1449 C 1917.612 1449, 1917 1449.450, 1917 1450 C 1917 1450.550, 1916.352 1451, 1915.559 1451 C 1914.766 1451, 1913.843 1451.445, 1913.507 1451.989 C 1913.142 1452.580, 1913.601 1452.707, 1914.650 1452.304 C 1915.615 1451.934, 1920.558 1449.516, 1925.636 1446.931 C 1930.713 1444.346, 1936.204 1441.279, 1937.838 1440.116 C 1939.472 1438.952, 1941.130 1438, 1941.522 1438 C 1941.914 1438, 1945.445 1435.562, 1949.368 1432.581 C 1953.290 1429.601, 1961.538 1422.064, 1967.696 1415.831 C 1973.854 1409.599, 1981.389 1401.125, 1984.439 1397 C 1987.490 1392.875, 1990.549 1388.263, 1991.237 1386.750 C 1991.925 1385.237, 1992.828 1384, 1993.244 1384 C 1993.660 1384, 1994 1383.100, 1994 1382 C 1994 1380.900, 1994.398 1380, 1994.883 1380 C 1995.369 1380, 1996.024 1379.213, 1996.339 1378.250 C 1996.654 1377.287, 1998.057 1374.575, 1999.456 1372.223 C 2000.855 1369.871, 2002 1367.058, 2002 1365.973 C 2002 1364.888, 2002.450 1364, 2003 1364 C 2003.550 1364, 2004 1363.127, 2004 1362.059 C 2004 1360.991, 2004.450 1359.840, 2005 1359.500 C 2005.550 1359.160, 2006 1357.784, 2006 1356.441 C 2006 1355.098, 2006.450 1354, 2007 1354 C 2007.550 1354, 2008 1353.127, 2008 1352.059 C 2008 1350.991, 2008.450 1349.840, 2009 1349.500 C 2009.550 1349.160, 2010 1347.810, 2010 1346.500 C 2010 1345.190, 2010.450 1343.840, 2011 1343.500 C 2011.550 1343.160, 2012 1341.784, 2012 1340.441 C 2012 1339.098, 2012.450 1338, 2013 1338 C 2013.550 1338, 2014 1337.127, 2014 1336.059 C 2014 1334.991, 2014.450 1333.840, 2015 1333.500 C 2015.550 1333.160, 2016 1331.784, 2016 1330.441 C 2016 1329.098, 2016.450 1328, 2017 1328 C 2017.550 1328, 2018 1327.127, 2018 1326.059 C 2018 1324.991, 2018.450 1323.840, 2019 1323.500 C 2019.550 1323.160, 2020 1321.784, 2020 1320.441 C 2020 1319.098, 2020.450 1318, 2021 1318 C 2021.550 1318, 2022 1317.127, 2022 1316.059 C 2022 1314.991, 2022.450 1313.840, 2023 1313.500 C 2023.550 1313.160, 2024 1311.810, 2024 1310.500 C 2024 1309.190, 2024.450 1307.840, 2025 1307.500 C 2025.550 1307.160, 2026 1305.821, 2026 1304.524 C 2026 1303.228, 2026.563 1301.966, 2027.250 1301.720 C 2027.938 1301.475, 2028.245 1300.995, 2027.933 1300.654 C 2027.622 1300.312, 2026.834 1300.566, 2026.183 1301.217 M 137.680 1370.698 C 138.041 1371.689, 139.516 1374.300, 140.957 1376.500 C 142.399 1378.700, 144.590 1382.525, 145.828 1385 C 147.065 1387.475, 150.559 1392.875, 153.592 1397 C 156.625 1401.125, 164.146 1409.599, 170.304 1415.831 C 176.462 1422.064, 184.710 1429.601, 188.632 1432.581 C 192.555 1435.562, 196.086 1438, 196.478 1438 C 196.870 1438, 198.528 1438.952, 200.162 1440.116 C 201.796 1441.279, 207.287 1444.346, 212.364 1446.931 C 217.442 1449.516, 222.362 1451.925, 223.298 1452.284 C 224.234 1452.643, 225 1452.761, 225 1452.545 C 225 1452.330, 220.282 1449.838, 214.517 1447.008 C 208.751 1444.178, 203.774 1441.443, 203.456 1440.929 C 203.138 1440.415, 200.994 1439.135, 198.689 1438.083 C 196.385 1437.032, 193.409 1435.008, 192.076 1433.586 C 190.742 1432.164, 189.162 1431, 188.564 1431 C 187.965 1431, 180.619 1424.132, 172.238 1415.738 C 163.857 1407.344, 157 1400.004, 157 1399.425 C 157 1398.847, 155.650 1397.081, 154 1395.500 C 152.350 1393.919, 151 1392.090, 151 1391.435 C 151 1390.781, 150.320 1389.680, 149.488 1388.990 C 148.656 1388.300, 146.637 1384.929, 145 1381.500 C 143.363 1378.071, 141.344 1374.700, 140.512 1374.010 C 139.680 1373.320, 139 1372.162, 139 1371.437 C 139 1370.711, 138.555 1369.843, 138.011 1369.507 C 137.421 1369.142, 137.287 1369.621, 137.680 1370.698 M 1868.750 1464.250 C 1868.417 1465.249, 1709.261 1465.500, 1077.417 1465.500 L 286.500 1465.500 287.096 1475 C 287.607 1483.150, 288.203 1485.566, 291.290 1492 C 293.897 1497.433, 296.784 1501.373, 301.765 1506.295 C 305.547 1510.033, 310.853 1514.210, 313.557 1515.579 C 316.261 1516.948, 321.019 1518.728, 324.131 1519.534 C 329.077 1520.816, 423.892 1521, 1078.373 1521 L 1826.958 1521 1834.729 1518.409 C 1839.003 1516.984, 1843.429 1514.959, 1844.564 1513.909 C 1845.700 1512.859, 1847.064 1512, 1847.596 1512 C 1848.128 1512, 1851.136 1509.399, 1854.281 1506.221 C 1857.427 1503.043, 1860 1499.948, 1860 1499.343 C 1860 1498.739, 1860.722 1497.646, 1861.604 1496.914 C 1862.486 1496.181, 1863.665 1494.439, 1864.223 1493.041 C 1864.781 1491.643, 1866.076 1487.350, 1867.102 1483.500 C 1868.127 1479.650, 1868.973 1474.003, 1868.983 1470.950 C 1868.992 1467.898, 1869.540 1464.860, 1870.200 1464.200 C 1871.034 1463.366, 1871.059 1463, 1870.283 1463 C 1869.669 1463, 1868.979 1463.563, 1868.750 1464.250" stroke="none" fill="#bababa" fill-rule="evenodd"/><path d="M 130.518 1249.971 C 130.168 1250.537, 129.078 1251, 128.095 1251 C 127.112 1251, 125.001 1251.655, 123.404 1252.455 C 121.807 1253.255, 118.114 1256.331, 115.198 1259.289 C 112.282 1262.248, 108.794 1266.844, 107.448 1269.504 C 105.772 1272.815, 105 1276.001, 105 1279.610 C 105 1282.510, 105.450 1285.160, 106 1285.500 C 106.550 1285.840, 107 1287.190, 107 1288.500 C 107 1289.810, 107.450 1291.160, 108 1291.500 C 108.550 1291.840, 109 1292.978, 109 1294.029 C 109 1295.079, 109.900 1297.542, 111 1299.500 C 112.100 1301.458, 113 1303.921, 113 1304.971 C 113 1306.022, 113.450 1307.160, 114 1307.500 C 114.550 1307.840, 115 1308.978, 115 1310.029 C 115 1311.079, 115.900 1313.542, 117 1315.500 C 118.100 1317.458, 119 1319.708, 119 1320.500 C 119 1321.292, 119.900 1323.542, 121 1325.500 C 122.100 1327.458, 123 1329.708, 123 1330.500 C 123 1331.292, 123.900 1333.542, 125 1335.500 C 126.100 1337.458, 127 1339.921, 127 1340.971 C 127 1342.022, 127.450 1343.160, 128 1343.500 C 128.550 1343.840, 129 1344.978, 129 1346.029 C 129 1347.079, 129.900 1349.542, 131 1351.500 C 132.100 1353.458, 133 1355.708, 133 1356.500 C 133 1357.292, 133.900 1359.542, 135 1361.500 C 136.100 1363.458, 137 1365.653, 137 1366.377 C 137 1367.101, 137.703 1369.103, 138.563 1370.826 C 139.423 1372.550, 140.534 1374.212, 141.031 1374.519 C 141.528 1374.826, 143.294 1377.926, 144.955 1381.406 C 146.616 1384.887, 148.656 1388.300, 149.488 1388.990 C 150.320 1389.680, 151 1390.781, 151 1391.435 C 151 1392.090, 152.350 1393.919, 154 1395.500 C 155.650 1397.081, 157 1398.858, 157 1399.449 C 157 1400.040, 163.868 1407.381, 172.262 1415.762 C 180.656 1424.143, 188.002 1431, 188.587 1431 C 189.173 1431, 190.736 1432.154, 192.061 1433.565 C 193.386 1434.975, 196.052 1436.851, 197.985 1437.732 C 199.918 1438.614, 202.259 1439.979, 203.188 1440.766 C 204.116 1441.553, 209.724 1444.628, 215.651 1447.599 C 221.578 1450.569, 226.992 1453, 227.683 1453 C 228.374 1453, 230.542 1453.900, 232.500 1455 C 234.458 1456.100, 236.921 1457, 237.971 1457 C 239.022 1457, 240.160 1457.450, 240.500 1458 C 240.840 1458.550, 242.640 1459, 244.500 1459 C 246.360 1459, 248.160 1459.450, 248.500 1460 C 248.840 1460.550, 250.640 1461, 252.500 1461 C 254.360 1461, 256.113 1461.374, 256.396 1461.832 C 256.679 1462.289, 260.868 1463.302, 265.705 1464.082 C 273.244 1465.297, 388.297 1465.500, 1071.417 1465.500 C 1708.061 1465.500, 1868.417 1465.249, 1868.750 1464.250 C 1869.020 1463.440, 1871.227 1463, 1875.024 1463 C 1878.246 1463, 1881.160 1462.550, 1881.500 1462 C 1881.840 1461.450, 1883.640 1461, 1885.500 1461 C 1887.360 1461, 1889.160 1460.550, 1889.500 1460 C 1889.840 1459.450, 1891.640 1459, 1893.500 1459 C 1895.360 1459, 1897.160 1458.550, 1897.500 1458 C 1897.840 1457.450, 1898.978 1457, 1900.029 1457 C 1901.079 1457, 1903.542 1456.100, 1905.500 1455 C 1907.458 1453.900, 1909.632 1453, 1910.331 1453 C 1911.030 1453, 1912.812 1452.438, 1914.293 1451.750 C 1915.773 1451.063, 1916.988 1450.162, 1916.992 1449.750 C 1916.996 1449.338, 1917.612 1449, 1918.360 1449 C 1919.107 1449, 1922.595 1447.537, 1926.110 1445.750 C 1929.624 1443.962, 1933.101 1441.931, 1933.835 1441.236 C 1934.570 1440.541, 1937.045 1439.117, 1939.335 1438.072 C 1941.626 1437.027, 1944.591 1435.008, 1945.924 1433.586 C 1947.258 1432.164, 1948.838 1431, 1949.436 1431 C 1950.035 1431, 1957.381 1424.132, 1965.762 1415.738 C 1974.143 1407.344, 1981 1400.053, 1981 1399.536 C 1981 1399.019, 1982.432 1397.118, 1984.182 1395.313 C 1985.932 1393.507, 1987.113 1391.779, 1986.807 1391.473 C 1986.500 1391.167, 1983.463 1392.550, 1980.056 1394.547 C 1976.649 1396.543, 1970.590 1399.668, 1966.591 1401.490 C 1962.592 1403.312, 1954.861 1406.238, 1949.410 1407.992 C 1943.960 1409.746, 1935.225 1412.140, 1930 1413.312 L 1920.500 1415.442 1122.500 1415.762 C 536.733 1415.997, 321.848 1415.783, 314.529 1414.958 C 309.046 1414.340, 299.473 1412.550, 293.257 1410.980 C 287.041 1409.411, 277.071 1406.142, 271.101 1403.717 C 265.130 1401.291, 255.505 1396.483, 249.710 1393.031 C 243.916 1389.580, 235.423 1383.735, 230.837 1380.043 C 226.252 1376.351, 218.295 1368.885, 213.155 1363.451 C 208.015 1358.018, 200.506 1348.607, 196.468 1342.537 C 192.430 1336.466, 187.510 1328.091, 185.535 1323.925 C 183.560 1319.758, 176.160 1301.308, 169.092 1282.925 L 156.240 1249.500 143.697 1249.221 C 135.872 1249.046, 130.915 1249.329, 130.518 1249.971" stroke="none" fill="#d7e2dd" fill-rule="evenodd"/><path d="M 157 1249.694 C 157 1250.076, 162.893 1265.713, 170.096 1284.444 C 177.299 1303.175, 185.451 1322.775, 188.213 1328 C 190.975 1333.225, 195.521 1340.810, 198.316 1344.857 C 201.110 1348.903, 206.627 1355.908, 210.575 1360.423 C 214.522 1364.938, 221.970 1372.172, 227.126 1376.498 C 232.282 1380.824, 239.600 1386.369, 243.389 1388.820 C 247.178 1391.271, 254.067 1395.210, 258.700 1397.574 C 263.332 1399.938, 270.748 1403.256, 275.179 1404.948 C 279.611 1406.641, 287.571 1409.113, 292.868 1410.443 C 298.166 1411.774, 306.325 1413.455, 311 1414.181 C 317.984 1415.265, 461.691 1415.500, 1117 1415.500 L 1914.500 1415.500 1926.500 1413.313 C 1933.100 1412.111, 1943.450 1409.522, 1949.500 1407.560 C 1955.550 1405.598, 1965.900 1401.287, 1972.500 1397.979 C 1979.100 1394.671, 1985.963 1390.676, 1987.750 1389.101 C 1989.538 1387.526, 1991 1385.508, 1991 1384.618 C 1991 1383.728, 1991.450 1383, 1992 1383 C 1992.550 1383, 1993 1382.100, 1993 1381 C 1993 1379.900, 1993.450 1379, 1994 1379 C 1994.550 1379, 1995 1378.199, 1995 1377.221 C 1995 1376.242, 1995.900 1374.793, 1997 1374 C 1998.100 1373.207, 1999 1371.758, 1999 1370.779 C 1999 1369.801, 1999.450 1369, 2000 1369 C 2000.550 1369, 2001 1367.650, 2001 1366 C 2001 1364.350, 2001.450 1363, 2002 1363 C 2002.550 1363, 2003 1362.100, 2003 1361 C 2003 1359.900, 2003.450 1359, 2004 1359 C 2004.550 1359, 2005 1357.650, 2005 1356 C 2005 1354.350, 2005.450 1353, 2006 1353 C 2006.550 1353, 2007 1352.100, 2007 1351 C 2007 1349.900, 2007.450 1349, 2008 1349 C 2008.550 1349, 2009 1347.650, 2009 1346 C 2009 1344.350, 2009.450 1343, 2010 1343 C 2010.550 1343, 2011 1341.650, 2011 1340 C 2011 1338.350, 2011.450 1337, 2012 1337 C 2012.550 1337, 2013 1336.100, 2013 1335 C 2013 1333.900, 2013.450 1333, 2014 1333 C 2014.550 1333, 2015 1331.650, 2015 1330 C 2015 1328.350, 2015.450 1327, 2016 1327 C 2016.550 1327, 2017 1326.100, 2017 1325 C 2017 1323.900, 2017.450 1323, 2018 1323 C 2018.550 1323, 2019 1321.650, 2019 1320 C 2019 1318.350, 2019.450 1317, 2020 1317 C 2020.550 1317, 2021 1316.100, 2021 1315 C 2021 1313.900, 2021.450 1313, 2022 1313 C 2022.550 1313, 2023 1311.650, 2023 1310 C 2023 1308.350, 2023.450 1307, 2024 1307 C 2024.550 1307, 2025 1305.650, 2025 1304 C 2025 1302.350, 2025.450 1301, 2026 1301 C 2026.550 1301, 2027 1300.100, 2027 1299 C 2027 1297.900, 2027.450 1297, 2028 1297 C 2028.550 1297, 2029 1295.650, 2029 1294 C 2029 1292.350, 2029.450 1291, 2030 1291 C 2030.550 1291, 2031 1289.650, 2031 1288 C 2031 1286.350, 2031.450 1285, 2032 1285 C 2032.556 1285, 2033 1282.333, 2033 1279 C 2033 1275.667, 2032.556 1273, 2032 1273 C 2031.450 1273, 2031 1272.100, 2031 1271 C 2031 1269.900, 2030.550 1269, 2030 1269 C 2029.450 1269, 2029 1268.317, 2029 1267.481 C 2029 1266.646, 2026.083 1263.046, 2022.519 1259.481 C 2018.954 1255.917, 2015.354 1253, 2014.519 1253 C 2013.683 1253, 2013 1252.550, 2013 1252 C 2013 1251.450, 2011.650 1251, 2010 1251 C 2008.350 1251, 2007 1250.550, 2007 1250 C 2007 1249.334, 1698 1249, 1082 1249 C 573.250 1249, 157 1249.312, 157 1249.694" stroke="none" fill="#ffffff" fill-rule="evenodd"/><path d="M 579.170 1248.750 C 640.038 1248.892, 739.938 1248.892, 801.170 1248.750 C 862.401 1248.608, 812.600 1248.491, 690.500 1248.491 C 568.400 1248.491, 518.301 1248.608, 579.170 1248.750 M 28.573 1301.750 C 28.785 1302.713, 31.446 1313.675, 34.486 1326.111 C 37.526 1338.547, 42.467 1357.264, 45.466 1367.704 C 48.466 1378.144, 54.134 1396.319, 58.062 1408.093 C 61.990 1419.867, 68.260 1437.600, 71.995 1447.500 C 75.730 1457.400, 81.595 1472.250, 85.027 1480.500 C 88.460 1488.750, 94.578 1502.807, 98.624 1511.738 C 102.669 1520.670, 110.489 1536.988, 116.001 1548.002 C 121.513 1559.016, 129.902 1575.108, 134.644 1583.763 C 139.385 1592.419, 148.655 1608.500, 155.243 1619.500 C 161.831 1630.500, 173.653 1649.175, 181.516 1661 C 189.378 1672.825, 200.409 1688.800, 206.029 1696.500 C 211.649 1704.200, 221.110 1716.800, 227.053 1724.500 C 232.995 1732.200, 243.666 1745.475, 250.764 1754 C 257.863 1762.525, 270.122 1776.700, 278.007 1785.500 C 285.891 1794.300, 303.628 1812.762, 317.421 1826.527 C 331.215 1840.291, 350.097 1858.291, 359.382 1866.527 C 368.667 1874.762, 382.392 1886.592, 389.882 1892.815 C 397.372 1899.039, 409.800 1908.995, 417.500 1914.941 C 425.200 1920.887, 437.800 1930.351, 445.500 1935.971 C 453.200 1941.591, 469.175 1952.622, 481 1960.484 C 492.825 1968.347, 511.500 1980.169, 522.500 1986.757 C 533.500 1993.345, 549.581 2002.615, 558.237 2007.356 C 566.892 2012.098, 582.984 2020.487, 593.998 2025.999 C 605.012 2031.511, 621.330 2039.331, 630.262 2043.376 C 639.193 2047.422, 653.250 2053.540, 661.500 2056.973 C 669.750 2060.405, 684.825 2066.367, 695 2070.221 C 705.175 2074.075, 722.733 2080.294, 734.017 2084.042 C 745.301 2087.789, 763.301 2093.381, 774.017 2096.468 C 784.733 2099.554, 803.400 2104.517, 815.500 2107.496 C 827.600 2110.475, 845.375 2114.524, 855 2116.495 C 864.625 2118.466, 881.725 2121.624, 893 2123.514 C 904.275 2125.403, 922.275 2128.077, 933 2129.454 C 943.725 2130.832, 962.625 2132.861, 975 2133.964 C 987.375 2135.066, 1006.050 2136.425, 1016.500 2136.982 C 1026.950 2137.540, 1051.475 2137.996, 1071 2137.996 C 1090.525 2137.996, 1115.050 2137.540, 1125.500 2136.982 C 1135.950 2136.425, 1154.625 2135.066, 1167 2133.964 C 1179.375 2132.861, 1198.275 2130.832, 1209 2129.454 C 1219.725 2128.077, 1237.725 2125.403, 1249 2123.514 C 1260.275 2121.624, 1277.375 2118.466, 1287 2116.495 C 1296.625 2114.524, 1314.400 2110.475, 1326.500 2107.496 C 1338.600 2104.517, 1357.267 2099.554, 1367.983 2096.468 C 1378.699 2093.381, 1396.699 2087.789, 1407.983 2084.042 C 1419.267 2080.294, 1436.825 2074.075, 1447 2070.221 C 1457.175 2066.367, 1472.250 2060.405, 1480.500 2056.973 C 1488.750 2053.540, 1502.807 2047.422, 1511.738 2043.376 C 1520.670 2039.331, 1536.988 2031.511, 1548.002 2025.999 C 1559.016 2020.487, 1575.108 2012.098, 1583.763 2007.356 C 1592.419 2002.615, 1608.500 1993.345, 1619.500 1986.757 C 1630.500 1980.169, 1649.175 1968.347, 1661 1960.484 C 1672.825 1952.622, 1688.800 1941.591, 1696.500 1935.971 C 1704.200 1930.351, 1716.800 1920.887, 1724.500 1914.941 C 1732.200 1908.995, 1744.628 1899.039, 1752.118 1892.815 C 1759.608 1886.592, 1773.333 1874.768, 1782.618 1866.540 C 1791.903 1858.312, 1811.218 1839.862, 1825.540 1825.540 C 1839.862 1811.218, 1858.312 1791.903, 1866.540 1782.618 C 1874.768 1773.333, 1886.592 1759.608, 1892.815 1752.118 C 1899.039 1744.628, 1908.995 1732.200, 1914.941 1724.500 C 1920.887 1716.800, 1930.351 1704.200, 1935.971 1696.500 C 1941.591 1688.800, 1952.622 1672.825, 1960.484 1661 C 1968.347 1649.175, 1980.169 1630.500, 1986.757 1619.500 C 1993.345 1608.500, 2002.615 1592.419, 2007.356 1583.763 C 2012.098 1575.108, 2020.487 1559.016, 2025.999 1548.002 C 2031.511 1536.988, 2039.331 1520.670, 2043.376 1511.738 C 2047.422 1502.807, 2053.540 1488.750, 2056.973 1480.500 C 2060.405 1472.250, 2066.270 1457.400, 2070.005 1447.500 C 2073.740 1437.600, 2080.010 1419.867, 2083.938 1408.093 C 2087.866 1396.319, 2093.534 1378.144, 2096.534 1367.704 C 2099.533 1357.264, 2104.474 1338.547, 2107.514 1326.111 C 2110.554 1313.675, 2113.215 1302.713, 2113.427 1301.750 C 2113.790 1300.105, 2111.295 1300.002, 2071.656 1300.032 C 2038.187 1300.057, 2029.139 1300.337, 2027.750 1301.392 C 2026.787 1302.123, 2026 1303.657, 2026 1304.801 C 2026 1305.946, 2025.550 1307.160, 2025 1307.500 C 2024.450 1307.840, 2024 1309.190, 2024 1310.500 C 2024 1311.810, 2023.550 1313.160, 2023 1313.500 C 2022.450 1313.840, 2022 1314.991, 2022 1316.059 C 2022 1317.127, 2021.550 1318, 2021 1318 C 2020.450 1318, 2020 1319.098, 2020 1320.441 C 2020 1321.784, 2019.550 1323.160, 2019 1323.500 C 2018.450 1323.840, 2018 1324.991, 2018 1326.059 C 2018 1327.127, 2017.550 1328, 2017 1328 C 2016.450 1328, 2016 1329.098, 2016 1330.441 C 2016 1331.784, 2015.550 1333.160, 2015 1333.500 C 2014.450 1333.840, 2014 1334.991, 2014 1336.059 C 2014 1337.127, 2013.550 1338, 2013 1338 C 2012.450 1338, 2012 1339.098, 2012 1340.441 C 2012 1341.784, 2011.550 1343.160, 2011 1343.500 C 2010.450 1343.840, 2010 1345.190, 2010 1346.500 C 2010 1347.810, 2009.550 1349.160, 2009 1349.500 C 2008.450 1349.840, 2008 1350.991, 2008 1352.059 C 2008 1353.127, 2007.550 1354, 2007 1354 C 2006.450 1354, 2006 1355.098, 2006 1356.441 C 2006 1357.784, 2005.550 1359.160, 2005 1359.500 C 2004.450 1359.840, 2004 1360.991, 2004 1362.059 C 2004 1363.127, 2003.550 1364, 2003 1364 C 2002.450 1364, 2002 1364.888, 2002 1365.973 C 2002 1367.058, 2000.855 1369.871, 1999.456 1372.223 C 1998.057 1374.575, 1996.654 1377.287, 1996.339 1378.250 C 1996.024 1379.213, 1995.369 1380, 1994.883 1380 C 1994.398 1380, 1994 1380.900, 1994 1382 C 1994 1383.100, 1993.660 1384, 1993.244 1384 C 1992.828 1384, 1991.925 1385.237, 1991.237 1386.750 C 1990.549 1388.263, 1987.490 1392.875, 1984.439 1397 C 1981.389 1401.125, 1973.854 1409.599, 1967.696 1415.831 C 1961.538 1422.064, 1953.290 1429.601, 1949.368 1432.581 C 1945.445 1435.562, 1941.926 1438, 1941.548 1438 C 1941.170 1438, 1938.979 1439.268, 1936.680 1440.819 C 1934.381 1442.369, 1927.717 1445.969, 1921.872 1448.819 C 1916.026 1451.668, 1910.808 1454, 1910.275 1454 C 1909.743 1454, 1907.824 1454.740, 1906.010 1455.645 C 1904.197 1456.549, 1897.716 1458.564, 1891.607 1460.123 C 1885.498 1461.681, 1878.453 1462.966, 1875.950 1462.978 C 1873.448 1462.990, 1870.860 1463.540, 1870.200 1464.200 C 1869.540 1464.860, 1868.992 1467.897, 1868.983 1470.950 C 1868.973 1474.002, 1868.127 1479.650, 1867.102 1483.500 C 1866.076 1487.350, 1864.781 1491.643, 1864.223 1493.041 C 1863.665 1494.439, 1862.486 1496.181, 1861.604 1496.914 C 1860.722 1497.646, 1860 1498.739, 1860 1499.343 C 1860 1499.948, 1857.427 1503.043, 1854.281 1506.221 C 1851.136 1509.399, 1848.128 1512, 1847.596 1512 C 1847.064 1512, 1845.700 1512.859, 1844.564 1513.909 C 1843.429 1514.959, 1839.003 1516.984, 1834.729 1518.409 L 1826.958 1521 1078.373 1521 C 423.892 1521, 329.077 1520.816, 324.131 1519.534 C 321.019 1518.728, 316.261 1516.948, 313.557 1515.579 C 310.853 1514.210, 305.547 1510.033, 301.765 1506.295 C 296.796 1501.385, 293.888 1497.420, 291.280 1492 C 288.174 1485.545, 287.589 1483.176, 287.086 1475 L 286.500 1465.500 275 1465.246 C 268.675 1465.106, 262.600 1464.580, 261.500 1464.076 C 260.400 1463.573, 254.325 1461.937, 248 1460.441 C 241.675 1458.944, 234.728 1456.883, 232.562 1455.860 C 230.396 1454.837, 228.204 1454, 227.690 1454 C 227.177 1454, 221.974 1451.668, 216.128 1448.819 C 210.283 1445.969, 203.619 1442.369, 201.320 1440.819 C 199.021 1439.268, 196.830 1438, 196.452 1438 C 196.074 1438, 192.555 1435.562, 188.632 1432.581 C 184.710 1429.601, 176.462 1422.064, 170.304 1415.831 C 164.146 1409.599, 156.625 1401.125, 153.592 1397 C 150.559 1392.875, 147.065 1387.475, 145.828 1385 C 144.590 1382.525, 142.404 1378.700, 140.969 1376.500 C 139.534 1374.300, 137.776 1370.925, 137.062 1369 C 136.348 1367.075, 134.917 1363.592, 133.882 1361.261 C 132.847 1358.929, 132 1356.432, 132 1355.711 C 132 1354.990, 131.602 1353.972, 131.116 1353.450 C 130.631 1352.927, 129.243 1349.575, 128.033 1346 C 126.823 1342.425, 124.970 1337.592, 123.916 1335.261 C 122.862 1332.929, 122 1330.651, 122 1330.199 C 122 1329.746, 121.100 1327.513, 120 1325.236 C 118.900 1322.959, 118 1320.426, 118 1319.607 C 118 1318.788, 117.635 1317.892, 117.188 1317.616 C 116.741 1317.340, 115.308 1313.826, 114.002 1309.807 C 112.696 1305.788, 111.207 1301.938, 110.692 1301.250 C 109.969 1300.286, 100.432 1300, 68.971 1300 C 30.649 1300, 28.211 1300.106, 28.573 1301.750" stroke="none" fill="#4f4f74" fill-rule="evenodd"/><path d="M 1013.500 5.108 C 1005.250 5.555, 987.925 6.871, 975 8.030 C 962.075 9.190, 942.950 11.245, 932.500 12.596 C 922.050 13.947, 904.275 16.598, 893 18.487 C 881.725 20.376, 864.625 23.534, 855 25.505 C 845.375 27.476, 827.600 31.525, 815.500 34.504 C 803.400 37.483, 784.733 42.446, 774.017 45.532 C 763.301 48.619, 745.301 54.211, 734.017 57.958 C 722.733 61.706, 705.175 67.925, 695 71.779 C 684.825 75.633, 669.750 81.595, 661.500 85.027 C 653.250 88.460, 639.193 94.578, 630.262 98.624 C 621.330 102.669, 605.012 110.489, 593.998 116.001 C 582.984 121.513, 566.892 129.902, 558.237 134.644 C 549.581 139.385, 533.500 148.655, 522.500 155.243 C 511.500 161.831, 492.825 173.653, 481 181.516 C 469.175 189.378, 453.200 200.409, 445.500 206.029 C 437.800 211.649, 425.200 221.113, 417.500 227.059 C 409.800 233.005, 397.372 242.961, 389.882 249.185 C 382.392 255.408, 368.667 267.232, 359.382 275.460 C 350.097 283.688, 330.782 302.138, 316.460 316.460 C 302.138 330.782, 283.688 350.097, 275.460 359.382 C 267.232 368.667, 255.408 382.392, 249.185 389.882 C 242.961 397.372, 233.005 409.800, 227.059 417.500 C 221.113 425.200, 211.649 437.800, 206.029 445.500 C 200.409 453.200, 189.378 469.175, 181.516 481 C 173.653 492.825, 161.831 511.500, 155.243 522.500 C 148.655 533.500, 139.385 549.581, 134.644 558.237 C 129.902 566.892, 121.513 582.984, 116.001 593.998 C 110.489 605.012, 102.669 621.330, 98.624 630.262 C 94.578 639.193, 88.460 653.250, 85.027 661.500 C 81.595 669.750, 75.633 684.825, 71.779 695 C 67.925 705.175, 61.640 722.932, 57.811 734.460 C 53.983 745.988, 48.390 763.988, 45.382 774.460 C 42.375 784.932, 37.478 803.400, 34.501 815.500 C 31.524 827.600, 27.476 845.375, 25.505 855 C 23.534 864.625, 20.376 881.725, 18.486 893 C 16.597 904.275, 13.923 922.275, 12.546 933 C 11.168 943.725, 9.139 962.625, 8.036 975 C 6.934 987.375, 5.575 1006.050, 5.018 1016.500 C 4.460 1026.950, 4.006 1051.475, 4.007 1071 C 4.009 1090.525, 4.462 1115.050, 5.015 1125.500 C 5.567 1135.950, 6.716 1152.825, 7.567 1163 C 8.418 1173.175, 10.426 1191.943, 12.028 1204.706 C 13.630 1217.470, 16.311 1236.145, 17.985 1246.206 C 19.659 1256.268, 22.400 1271.475, 24.076 1280 C 25.753 1288.525, 27.351 1296.287, 27.629 1297.250 C 28.100 1298.880, 30.953 1299, 69.267 1299 C 101.259 1299, 110.133 1298.733, 109.200 1297.800 C 108.540 1297.140, 108 1295.655, 108 1294.500 C 108 1293.345, 107.503 1291.903, 106.895 1291.295 C 106.288 1290.688, 105.556 1286.423, 105.268 1281.819 C 104.819 1274.610, 105.053 1272.773, 106.960 1268.588 C 108.177 1265.916, 111.151 1261.615, 113.567 1259.032 C 115.984 1256.448, 119.882 1253.395, 122.230 1252.247 C 124.579 1251.099, 127.850 1249.824, 129.500 1249.414 C 131.150 1249.003, 207.698 1248.405, 299.607 1248.084 L 466.715 1247.500 457.332 1236.595 C 452.172 1230.597, 443.975 1220.472, 439.116 1214.095 C 434.257 1207.718, 426.437 1196.650, 421.738 1189.500 C 417.039 1182.350, 409.923 1170.650, 405.926 1163.500 C 401.929 1156.350, 396.442 1145.775, 393.732 1140.001 C 391.023 1134.227, 386.541 1124.102, 383.774 1117.501 C 381.006 1110.900, 376.291 1098.100, 373.296 1089.055 C 370.301 1080.010, 366.100 1065.385, 363.962 1056.555 C 361.823 1047.725, 358.953 1033.750, 357.584 1025.500 C 356.215 1017.250, 354.511 1005.775, 353.797 1000 C 352.808 991.990, 352.500 964.127, 352.500 882.500 C 352.500 786.162, 352.676 774.105, 354.267 761.500 C 355.238 753.800, 357.183 740.975, 358.589 733 C 359.994 725.025, 362.920 711.525, 365.091 703 C 367.261 694.475, 371.491 680.224, 374.489 671.332 C 377.488 662.439, 382.659 648.812, 385.980 641.048 C 389.300 633.284, 394.456 622.069, 397.437 616.125 C 400.418 610.182, 405.416 600.859, 408.544 595.409 C 411.673 589.959, 417.616 580.325, 421.751 574 C 425.887 567.675, 432.967 557.525, 437.485 551.445 C 442.002 545.364, 449.923 535.464, 455.086 529.445 C 460.249 523.425, 467.855 514.945, 471.987 510.600 C 476.119 506.254, 484.674 497.963, 490.999 492.175 C 497.323 486.387, 507.673 477.521, 513.999 472.474 C 520.324 467.426, 530.675 459.665, 537 455.227 C 543.325 450.790, 554.985 443.299, 562.910 438.580 C 570.836 433.862, 584.111 426.659, 592.410 422.572 C 600.710 418.486, 612.675 413.019, 619 410.423 C 625.325 407.827, 637.025 403.495, 645 400.796 C 652.975 398.096, 666.250 394.128, 674.500 391.978 C 682.750 389.827, 695.575 386.956, 703 385.597 C 710.425 384.239, 721.675 382.453, 728 381.629 C 734.325 380.805, 746.925 379.611, 756 378.975 C 767.013 378.204, 793.282 377.972, 835 378.278 C 871.149 378.543, 901.927 379.213, 908 379.867 C 913.775 380.489, 925.025 381.935, 933 383.080 C 940.975 384.226, 952.692 386.219, 959.038 387.510 C 965.384 388.801, 975.284 391.037, 981.038 392.479 C 986.792 393.921, 997.575 396.919, 1005 399.143 C 1012.425 401.366, 1024.885 405.603, 1032.689 408.559 C 1040.494 411.514, 1053.050 416.698, 1060.592 420.077 C 1068.133 423.457, 1079.073 428.703, 1084.902 431.735 C 1090.731 434.768, 1100.900 440.412, 1107.500 444.278 C 1114.100 448.143, 1125.401 455.281, 1132.613 460.140 C 1139.825 464.998, 1150.175 472.387, 1155.613 476.561 C 1161.051 480.734, 1170.900 488.712, 1177.500 494.291 C 1184.100 499.869, 1234.950 549.713, 1290.500 605.056 C 1351.990 666.317, 1394.647 708.045, 1399.544 711.728 C 1403.969 715.055, 1411.394 720.242, 1416.044 723.255 C 1420.695 726.269, 1427.878 730.575, 1432.007 732.824 C 1436.135 735.073, 1444.165 738.948, 1449.850 741.434 C 1455.535 743.921, 1465.697 747.748, 1472.433 749.939 C 1479.169 752.131, 1490.265 755.049, 1497.090 756.424 C 1503.916 757.798, 1513.550 759.397, 1518.500 759.976 C 1523.450 760.554, 1538.975 761.449, 1553 761.963 C 1570.803 762.616, 1582.273 763.547, 1591 765.048 C 1597.875 766.230, 1608.675 768.690, 1615 770.515 C 1621.325 772.340, 1630.550 775.301, 1635.500 777.095 C 1640.450 778.890, 1650.800 783.545, 1658.500 787.440 C 1666.200 791.335, 1677 797.533, 1682.500 801.213 C 1688 804.893, 1696.325 810.957, 1701 814.687 C 1705.675 818.418, 1714.022 825.977, 1719.550 831.485 C 1725.077 836.993, 1733.177 846.001, 1737.550 851.503 C 1741.922 857.004, 1748.281 865.808, 1751.681 871.067 C 1755.080 876.325, 1760.325 885.324, 1763.336 891.064 C 1766.346 896.804, 1770.854 906.675, 1773.352 913 C 1775.850 919.325, 1779.243 929.225, 1780.891 935 C 1782.540 940.775, 1784.811 950.450, 1785.938 956.500 C 1787.065 962.550, 1788.432 971.550, 1788.977 976.500 C 1789.558 981.772, 1789.968 1022.777, 1789.967 1075.500 C 1789.966 1147.106, 1789.679 1167.652, 1788.561 1176.030 C 1787.789 1181.821, 1785.954 1191.923, 1784.483 1198.480 C 1783.013 1205.036, 1780.121 1215.373, 1778.058 1221.450 C 1775.994 1227.528, 1772.700 1236.204, 1770.737 1240.731 L 1767.169 1248.961 1889.335 1249.231 L 2011.500 1249.500 2015.500 1251.839 C 2017.700 1253.125, 2021.399 1256.018, 2023.720 1258.268 C 2026.041 1260.517, 2029.037 1264.640, 2030.378 1267.429 C 2031.719 1270.218, 2033.121 1275.262, 2033.493 1278.638 C 2033.938 1282.672, 2033.798 1285.007, 2033.085 1285.447 C 2032.488 1285.816, 2032 1287.190, 2032 1288.500 C 2032 1289.810, 2031.550 1291.160, 2031 1291.500 C 2030.450 1291.840, 2030 1293.190, 2030 1294.500 C 2030 1295.810, 2029.550 1297.160, 2029 1297.500 C 2028.450 1297.840, 2028 1298.429, 2028 1298.809 C 2027.999 1299.189, 2047.214 1299.373, 2070.698 1299.218 C 2094.182 1299.063, 2113.590 1298.743, 2113.827 1298.506 C 2114.064 1298.270, 2115.563 1291.646, 2117.158 1283.788 C 2118.753 1275.930, 2121.608 1260.275, 2123.504 1249 C 2125.399 1237.725, 2128.077 1219.725, 2129.454 1209 C 2130.832 1198.275, 2132.861 1179.375, 2133.964 1167 C 2135.066 1154.625, 2136.425 1135.950, 2136.982 1125.500 C 2137.540 1115.050, 2137.996 1090.525, 2137.996 1071 C 2137.996 1051.475, 2137.540 1026.950, 2136.982 1016.500 C 2136.425 1006.050, 2135.066 987.375, 2133.964 975 C 2132.861 962.625, 2130.832 943.725, 2129.454 933 C 2128.077 922.275, 2125.403 904.275, 2123.514 893 C 2121.624 881.725, 2118.466 864.625, 2116.495 855 C 2114.524 845.375, 2110.475 827.600, 2107.496 815.500 C 2104.517 803.400, 2099.554 784.733, 2096.468 774.017 C 2093.381 763.301, 2087.789 745.301, 2084.042 734.017 C 2080.294 722.733, 2074.075 705.175, 2070.221 695 C 2066.367 684.825, 2060.405 669.750, 2056.973 661.500 C 2053.540 653.250, 2047.422 639.193, 2043.376 630.262 C 2039.331 621.330, 2031.511 605.012, 2025.999 593.998 C 2020.487 582.984, 2012.098 566.892, 2007.356 558.237 C 2002.615 549.581, 1993.345 533.500, 1986.757 522.500 C 1980.169 511.500, 1968.347 492.825, 1960.484 481 C 1952.622 469.175, 1941.591 453.200, 1935.971 445.500 C 1930.351 437.800, 1920.887 425.200, 1914.941 417.500 C 1908.995 409.800, 1899.039 397.372, 1892.815 389.882 C 1886.592 382.392, 1874.768 368.667, 1866.540 359.382 C 1858.312 350.097, 1839.862 330.782, 1825.540 316.460 C 1811.218 302.138, 1791.903 283.688, 1782.618 275.460 C 1773.333 267.232, 1759.608 255.408, 1752.118 249.185 C 1744.628 242.961, 1732.200 233.005, 1724.500 227.059 C 1716.800 221.113, 1704.200 211.649, 1696.500 206.029 C 1688.800 200.409, 1672.825 189.378, 1661 181.516 C 1649.175 173.653, 1630.500 161.831, 1619.500 155.243 C 1608.500 148.655, 1592.419 139.385, 1583.763 134.644 C 1575.108 129.902, 1559.016 121.513, 1548.002 116.001 C 1536.988 110.489, 1520.670 102.669, 1511.738 98.624 C 1502.807 94.578, 1488.750 88.460, 1480.500 85.027 C 1472.250 81.595, 1457.175 75.633, 1447 71.779 C 1436.825 67.925, 1419.267 61.706, 1407.983 57.958 C 1396.699 54.211, 1378.699 48.619, 1367.983 45.532 C 1357.267 42.446, 1338.600 37.483, 1326.500 34.504 C 1314.400 31.525, 1296.625 27.476, 1287 25.505 C 1277.375 23.534, 1260.275 20.376, 1249 18.486 C 1237.725 16.597, 1219.725 13.923, 1209 12.546 C 1198.275 11.168, 1179.375 9.139, 1167 8.036 C 1154.625 6.934, 1135.950 5.575, 1125.500 5.018 C 1115.050 4.460, 1088.950 4.069, 1067.500 4.149 C 1046.050 4.228, 1021.750 4.660, 1013.500 5.108 M 639.389 809.500 C 639.390 816.650, 639.550 819.444, 639.742 815.708 C 639.935 811.973, 639.934 806.123, 639.739 802.708 C 639.545 799.294, 639.387 802.350, 639.389 809.500 M 1537.206 857.741 C 1540.895 857.932, 1547.195 857.934, 1551.206 857.743 C 1555.218 857.553, 1552.200 857.396, 1544.500 857.395 C 1536.800 857.393, 1533.518 857.549, 1537.206 857.741 M 777.292 953.742 C 781.027 953.935, 786.877 953.934, 790.292 953.739 C 793.706 953.545, 790.650 953.387, 783.500 953.389 C 776.350 953.390, 773.556 953.550, 777.292 953.742" stroke="none" fill="#f55b4b" fill-rule="evenodd"/><path d="" stroke="none" fill="#e8ebea" fill-rule="evenodd"/><path d="M 1339.500 1248 L 911.500 1248.503 1339.191 1248.752 C 1623.508 1248.917, 1767.089 1248.665, 1767.500 1248 C 1767.840 1247.450, 1767.979 1247.112, 1767.809 1247.248 C 1767.639 1247.385, 1574.900 1247.723, 1339.500 1248 M 48.250 1299.749 C 59.663 1299.909, 78.338 1299.909, 89.750 1299.749 C 101.163 1299.588, 91.825 1299.457, 69 1299.457 C 46.175 1299.457, 36.838 1299.588, 48.250 1299.749 M 2050.750 1299.749 C 2062.438 1299.909, 2081.563 1299.909, 2093.250 1299.749 C 2104.938 1299.589, 2095.375 1299.458, 2072 1299.458 C 2048.625 1299.458, 2039.063 1299.589, 2050.750 1299.749" stroke="none" fill="#b54e57" fill-rule="evenodd"/></svg>