<?xml version="1.0" standalone="no"?>
<!DOCTYPE svg PUBLIC "-//W3C//DTD SVG 20010904//EN"
 "http://www.w3.org/TR/2001/REC-SVG-20010904/DTD/svg10.dtd">
<svg version="1.0" xmlns="http://www.w3.org/2000/svg"
 width="1000.000000pt" height="1000.000000pt" viewBox="0 0 1000.000000 1000.000000"
 preserveAspectRatio="xMidYMid meet">
<metadata>
Created by potrace 1.14, written by Peter Selinger 2001-2017
</metadata>
<g transform="translate(0.000000,1000.000000) scale(0.100000,-0.100000)"
fill="#000000" stroke="none">
<path d="M4855 9850 c-3 -5 -2 -10 4 -10 5 0 13 5 16 10 3 6 2 10 -4 10 -5 0
-13 -4 -16 -10z"/>
<path d="M3948 9733 c6 -2 18 -2 25 0 6 3 1 5 -13 5 -14 0 -19 -2 -12 -5z"/>
<path d="M3898 9723 c7 -3 16 -2 19 1 4 3 -2 6 -13 5 -11 0 -14 -3 -6 -6z"/>
<path d="M6458 9623 c7 -3 16 -2 19 1 4 3 -2 6 -13 5 -11 0 -14 -3 -6 -6z"/>
<path d="M6610 9570 c8 -5 20 -10 25 -10 6 0 3 5 -5 10 -8 5 -19 10 -25 10 -5
0 -3 -5 5 -10z"/>
<path d="M2920 9380 c-13 -8 -12 -10 3 -10 9 0 17 5 17 10 0 12 -1 12 -20 0z"/>
<path d="M2790 9309 c0 -5 5 -7 10 -4 6 3 10 8 10 11 0 2 -4 4 -10 4 -5 0 -10
-5 -10 -11z"/>
<path d="M3860 8719 c-9 -5 -116 -8 -245 -7 -216 1 -235 0 -300 -22 -39 -13
-72 -26 -75 -29 -3 -4 -26 -20 -52 -36 -27 -17 -48 -36 -48 -42 0 -7 -4 -13
-8 -13 -13 0 -68 -84 -81 -123 -7 -21 -16 -37 -21 -37 -5 0 -6 -15 -3 -34 3
-20 1 -36 -6 -40 -15 -10 -16 -3126 -1 -3126 6 0 18 -8 28 -18 29 -29 96 -18
123 20 20 28 21 39 20 378 l-1 348 28 6 c15 2 373 5 796 5 l769 1 62 40 c83
54 138 53 187 -4 18 -21 18 -20 3 9 -19 37 -19 62 -1 97 10 19 11 28 3 30 -7
2 -231 3 -498 2 l-485 -2 0 81 c1 77 2 81 26 87 14 4 72 5 130 3 58 -2 121 -4
140 -4 19 -1 157 0 305 2 287 3 380 3 541 0 l101 -2 104 69 c58 38 118 75 134
83 16 8 30 19 32 24 2 7 -184 9 -550 7 -303 -1 -559 -3 -567 -2 -50 1 -470 1
-495 1 -22 -1 -36 -10 -53 -36 -22 -32 -24 -43 -23 -172 l2 -139 -346 1 -345
0 0 400 c0 220 0 416 -1 435 0 19 0 37 1 40 2 6 2 93 1 200 0 41 0 113 0 160
1 47 1 105 0 130 -1 25 0 104 0 175 1 72 0 164 -1 206 -2 42 -1 80 2 85 6 12
3 57 -5 71 -4 5 -4 13 0 16 3 4 5 71 4 149 -2 115 1 151 15 183 26 63 71 112
127 140 50 24 61 25 226 26 95 0 175 -2 178 -4 2 -3 17 -2 31 2 15 4 39 4 54
0 16 -4 41 -2 58 4 22 9 38 8 65 -2 19 -7 40 -9 46 -5 16 9 75 11 122 3 20 -3
37 -4 37 0 0 9 120 6 148 -3 14 -5 29 -3 38 5 12 9 23 9 56 -1 23 -6 44 -8 45
-4 3 10 223 8 266 -2 17 -4 27 -2 27 5 0 6 7 11 15 11 8 0 15 -4 15 -10 0 -5
16 -10 35 -10 19 0 35 3 35 8 0 9 373 9 380 0 3 -4 22 -3 42 2 24 7 45 7 63 0
15 -6 33 -7 39 -2 6 4 76 7 156 6 298 -5 335 -5 351 1 10 3 20 2 24 -4 4 -8
12 -8 26 0 15 7 29 7 51 0 20 -7 36 -7 48 -1 25 13 56 13 79 -2 15 -9 31 -9
71 0 63 15 117 15 125 2 7 -12 75 -14 75 -2 0 4 20 8 45 8 24 1 42 -2 39 -7
-3 -5 8 -9 25 -9 16 0 33 5 37 11 14 23 174 -7 174 -33 0 -4 4 -8 9 -8 15 0
91 -72 91 -86 0 -7 4 -14 10 -16 22 -7 28 -126 28 -592 1 -269 3 -491 6 -493
2 -2 41 20 85 49 l81 53 -1 483 c-1 388 -4 489 -15 510 -7 15 -23 48 -35 74
-34 73 -113 148 -204 193 -79 39 -82 40 -179 37 -60 -1 -103 2 -106 9 -5 7
-22 6 -55 -1 -33 -7 -51 -8 -59 0 -13 13 -39 13 -31 0 6 -10 -76 -6 -112 5 -7
3 -13 0 -13 -5 0 -14 -792 -12 -801 2 -6 9 -11 9 -22 -1 -11 -8 -17 -9 -22 -1
-5 8 -11 8 -21 -1 -12 -9 -20 -9 -39 1 -18 10 -28 10 -38 1 -16 -13 -707 -14
-707 -1 0 11 -89 9 -96 -2 -5 -7 -27 -5 -78 9 -10 3 -16 1 -13 -3 3 -5 -63
-10 -146 -11 -108 -2 -148 1 -137 8 11 8 6 9 -20 5 -104 -16 -141 -18 -153 -8
-8 7 -18 7 -27 1z m2277 -175 c-3 -3 -12 -4 -19 -1 -8 3 -5 6 6 6 11 1 17 -2
13 -5z m180 0 c-3 -3 -12 -4 -19 -1 -8 3 -5 6 6 6 11 1 17 -2 13 -5z"/>
<path d="M8090 8716 c0 -3 9 -10 20 -16 11 -6 20 -8 20 -6 0 3 -9 10 -20 16
-11 6 -20 8 -20 6z"/>
<path d="M1885 8700 c-3 -6 1 -7 9 -4 18 7 21 14 7 14 -6 0 -13 -4 -16 -10z"/>
<path d="M8640 8171 c0 -6 4 -13 10 -16 6 -3 7 1 4 9 -7 18 -14 21 -14 7z"/>
<path d="M3495 8098 c-29 -17 -41 -31 -43 -48 -1 -8 -3 -332 -4 -719 -3 -651
-2 -706 14 -732 31 -52 123 -52 145 -1 10 21 13 198 14 729 2 683 2 702 -18
739 -16 33 -25 39 -54 41 -19 2 -43 -2 -54 -9z"/>
<path d="M1275 8070 c-10 -11 -16 -22 -13 -25 3 -3 13 6 22 20 20 30 16 32 -9
5z"/>
<path d="M1195 7970 c-3 -5 -1 -10 4 -10 6 0 11 5 11 10 0 6 -2 10 -4 10 -3 0
-8 -4 -11 -10z"/>
<path d="M8826 7935 c4 -8 11 -15 16 -15 6 0 5 6 -2 15 -7 8 -14 15 -16 15 -2
0 -1 -7 2 -15z"/>
<path d="M1115 7860 c-3 -5 -1 -10 4 -10 6 0 11 5 11 10 0 6 -2 10 -4 10 -3 0
-8 -4 -11 -10z"/>
<path d="M8940 7781 c0 -6 4 -13 10 -16 6 -3 7 1 4 9 -7 18 -14 21 -14 7z"/>
<path d="M9105 7520 c3 -5 8 -10 11 -10 2 0 4 5 4 10 0 6 -5 10 -11 10 -5 0
-7 -4 -4 -10z"/>
<path d="M9140 7456 c0 -2 7 -9 15 -16 13 -11 14 -10 9 4 -5 14 -24 23 -24 12z"/>
<path d="M786 7333 c-6 -14 -5 -15 5 -6 7 7 10 15 7 18 -3 3 -9 -2 -12 -12z"/>
<path d="M755 7280 c-3 -5 -1 -10 4 -10 6 0 11 5 11 10 0 6 -2 10 -4 10 -3 0
-8 -4 -11 -10z"/>
<path d="M686 7143 c-6 -14 -5 -15 5 -6 7 7 10 15 7 18 -3 3 -9 -2 -12 -12z"/>
<path d="M476 6645 c-9 -26 -7 -32 5 -12 6 10 9 21 6 23 -2 3 -7 -2 -11 -11z"/>
<path d="M6895 6525 l-79 -55 1 -170 c1 -167 1 -170 -20 -172 -22 -2 -96 -4
-281 -6 l-99 -2 25 -20 c14 -10 44 -49 68 -85 l42 -65 107 -2 c58 -1 117 -1
131 0 l26 1 1 -1181 1 -1181 26 -26 c32 -32 94 -35 125 -7 l21 19 0 1504 c0
826 -3 1503 -7 1502 -5 0 -44 -25 -88 -54z"/>
<path d="M417 6471 c-4 -17 -3 -21 5 -13 5 5 8 16 6 23 -3 8 -7 3 -11 -10z"/>
<path d="M5958 6095 l-68 -45 33 -50 32 -50 70 0 c60 0 76 4 110 27 l40 27
-33 8 c-23 6 -43 23 -65 55 -18 25 -36 52 -42 59 -8 12 -23 6 -77 -31z"/>
<path d="M321 6114 c0 -11 3 -14 6 -6 3 7 2 16 -1 19 -3 4 -6 -2 -5 -13z"/>
<path d="M9681 6114 c0 -11 3 -14 6 -6 3 7 2 16 -1 19 -3 4 -6 -2 -5 -13z"/>
<path d="M9692 6060 c0 -14 2 -19 5 -12 2 6 2 18 0 25 -3 6 -5 1 -5 -13z"/>
<path d="M291 5984 c0 -11 3 -14 6 -6 3 7 2 16 -1 19 -3 4 -6 -2 -5 -13z"/>
<path d="M281 5924 c0 -11 3 -14 6 -6 3 7 2 16 -1 19 -3 4 -6 -2 -5 -13z"/>
<path d="M271 5874 c0 -11 3 -14 6 -6 3 7 2 16 -1 19 -3 4 -6 -2 -5 -13z"/>
<path d="M261 5824 c0 -11 3 -14 6 -6 3 7 2 16 -1 19 -3 4 -6 -2 -5 -13z"/>
<path d="M9741 5824 c0 -11 3 -14 6 -6 3 7 2 16 -1 19 -3 4 -6 -2 -5 -13z"/>
<path d="M9747 5769 c4 -13 8 -18 11 -10 2 7 -1 18 -6 23 -8 8 -9 4 -5 -13z"/>
<path d="M250 5769 c0 -5 5 -7 10 -4 6 3 10 8 10 11 0 2 -4 4 -10 4 -5 0 -10
-5 -10 -11z"/>
<path d="M242 5680 c0 -14 2 -19 5 -12 2 6 2 18 0 25 -3 6 -5 1 -5 -13z"/>
<path d="M9761 5664 c0 -11 3 -14 6 -6 3 7 2 16 -1 19 -3 4 -6 -2 -5 -13z"/>
<path d="M232 5620 c0 -14 2 -19 5 -12 2 6 2 18 0 25 -3 6 -5 1 -5 -13z"/>
<path d="M9771 5614 c0 -11 3 -14 6 -6 3 7 2 16 -1 19 -3 4 -6 -2 -5 -13z"/>
<path d="M3473 5583 c-11 -10 -18 -24 -16 -30 3 -7 1 -13 -4 -13 -7 0 -8 -169
-4 -422 l1 -58 62 40 c33 22 72 40 85 40 12 0 23 6 24 13 0 6 1 93 2 192 2
156 0 184 -16 211 -26 46 -96 60 -134 27z"/>
<path d="M9782 5525 c0 -16 2 -22 5 -12 2 9 2 23 0 30 -3 6 -5 -1 -5 -18z"/>
<path d="M210 5445 c0 -8 2 -15 4 -15 2 0 6 7 10 15 3 8 1 15 -4 15 -6 0 -10
-7 -10 -15z"/>
<path d="M9785 5450 c3 -5 8 -10 11 -10 2 0 4 5 4 10 0 6 -5 10 -11 10 -5 0
-7 -4 -4 -10z"/>
<path d="M9792 5405 c0 -16 2 -22 5 -12 2 9 2 23 0 30 -3 6 -5 -1 -5 -18z"/>
<path d="M211 5394 c0 -11 3 -14 6 -6 3 7 2 16 -1 19 -3 4 -6 -2 -5 -13z"/>
<path d="M202 5310 c0 -19 2 -27 5 -17 2 9 2 25 0 35 -3 9 -5 1 -5 -18z"/>
<path d="M9803 5280 c0 -30 2 -43 4 -27 2 15 2 39 0 55 -2 15 -4 2 -4 -28z"/>
<path d="M9812 5130 c0 -14 2 -19 5 -12 2 6 2 18 0 25 -3 6 -5 1 -5 -13z"/>
<path d="M190 4992 c0 -78 3 -142 8 -142 8 0 6 269 -2 278 -3 3 -6 -58 -6
-136z"/>
<path d="M9813 5040 c0 -36 2 -50 4 -32 2 17 2 47 0 65 -2 17 -4 3 -4 -33z"/>
<path d="M9809 4910 c-5 -55 -4 -68 7 -58 3 3 4 30 2 59 l-3 54 -6 -55z"/>
<path d="M3041 4881 c-28 -25 -32 -34 -29 -70 l3 -41 78 51 c42 29 77 55 77
59 0 10 -48 30 -74 30 -12 0 -37 -13 -55 -29z"/>
<path d="M203 4730 c0 -41 2 -58 4 -37 2 20 2 54 0 75 -2 20 -4 3 -4 -38z"/>
<path d="M9803 4735 c0 -27 2 -38 4 -22 2 15 2 37 0 50 -2 12 -4 0 -4 -28z"/>
<path d="M213 4580 c0 -25 2 -35 4 -22 2 12 2 32 0 45 -2 12 -4 2 -4 -23z"/>
<path d="M9793 4575 c0 -22 2 -30 4 -17 2 12 2 30 0 40 -3 9 -5 -1 -4 -23z"/>
<path d="M223 4475 c0 -22 2 -30 4 -17 2 12 2 30 0 40 -3 9 -5 -1 -4 -23z"/>
<path d="M9783 4475 c0 -22 2 -30 4 -17 2 12 2 30 0 40 -3 9 -5 -1 -4 -23z"/>
<path d="M232 4390 c0 -19 2 -27 5 -17 2 9 2 25 0 35 -3 9 -5 1 -5 -18z"/>
<path d="M9771 4374 c0 -11 3 -14 6 -6 3 7 2 16 -1 19 -3 4 -6 -2 -5 -13z"/>
<path d="M242 4315 c0 -16 2 -22 5 -12 2 9 2 23 0 30 -3 6 -5 -1 -5 -18z"/>
<path d="M9762 4315 c0 -16 2 -22 5 -12 2 9 2 23 0 30 -3 6 -5 -1 -5 -18z"/>
<path d="M251 4264 c0 -11 3 -14 6 -6 3 7 2 16 -1 19 -3 4 -6 -2 -5 -13z"/>
<path d="M9752 4250 c0 -19 2 -27 5 -17 2 9 2 25 0 35 -3 9 -5 1 -5 -18z"/>
<path d="M3145 4199 c-33 -21 -85 -25 -116 -9 -17 10 -19 7 -19 -27 0 -37 169
-587 178 -578 3 3 5 409 3 593 -1 47 -4 48 -46 21z"/>
<path d="M260 4187 c0 -14 5 -29 10 -32 7 -4 8 3 4 22 -9 38 -14 42 -14 10z"/>
<path d="M9741 4198 c0 -9 -4 -25 -7 -35 -5 -14 -4 -15 5 -7 7 7 11 22 8 35
-2 13 -5 16 -6 7z"/>
<path d="M271 4124 c0 -11 3 -14 6 -6 3 7 2 16 -1 19 -3 4 -6 -2 -5 -13z"/>
<path d="M9722 4080 c0 -14 2 -19 5 -12 2 6 2 18 0 25 -3 6 -5 1 -5 -13z"/>
<path d="M292 4025 c0 -16 2 -22 5 -12 2 9 2 23 0 30 -3 6 -5 -1 -5 -18z"/>
<path d="M9712 4020 c0 -14 2 -19 5 -12 2 6 2 18 0 25 -3 6 -5 1 -5 -13z"/>
<path d="M301 3974 c0 -11 3 -14 6 -6 3 7 2 16 -1 19 -3 4 -6 -2 -5 -13z"/>
<path d="M9701 3974 c0 -11 3 -14 6 -6 3 7 2 16 -1 19 -3 4 -6 -2 -5 -13z"/>
<path d="M310 3934 c0 -10 5 -26 10 -34 8 -11 9 -7 4 15 -8 37 -14 45 -14 19z"/>
<path d="M9691 3924 c0 -11 3 -14 6 -6 3 7 2 16 -1 19 -3 4 -6 -2 -5 -13z"/>
<path d="M9681 3884 c0 -11 3 -14 6 -6 3 7 2 16 -1 19 -3 4 -6 -2 -5 -13z"/>
<path d="M336 3835 c3 -22 10 -44 14 -49 5 -5 5 8 -1 30 -15 57 -20 64 -13 19z"/>
<path d="M9671 3844 c0 -11 3 -14 6 -6 3 7 2 16 -1 19 -3 4 -6 -2 -5 -13z"/>
<path d="M3449 3805 c-5 -62 -4 -85 5 -122 6 -28 17 -45 33 -52 27 -12 93 -15
93 -4 0 8 -121 193 -126 193 -2 0 -5 -7 -5 -15z"/>
<path d="M9661 3804 c0 -11 3 -14 6 -6 3 7 2 16 -1 19 -3 4 -6 -2 -5 -13z"/>
<path d="M9651 3764 c0 -11 3 -14 6 -6 3 7 2 16 -1 19 -3 4 -6 -2 -5 -13z"/>
<path d="M350 3765 c0 -5 5 -17 10 -25 5 -8 10 -10 10 -5 0 6 -5 17 -10 25 -5
8 -10 11 -10 5z"/>
<path d="M9641 3724 c0 -11 3 -14 6 -6 3 7 2 16 -1 19 -3 4 -6 -2 -5 -13z"/>
<path d="M371 3695 c1 -19 18 -51 18 -35 0 8 -4 22 -9 30 -5 8 -9 11 -9 5z"/>
<path d="M9621 3654 c0 -11 3 -14 6 -6 3 7 2 16 -1 19 -3 4 -6 -2 -5 -13z"/>
<path d="M396 3605 c8 -37 14 -45 14 -19 0 10 -5 26 -10 34 -8 11 -9 7 -4 -15z"/>
<path d="M9595 3575 c-9 -32 -14 -59 -12 -61 2 -3 11 21 20 53 9 31 15 58 13
61 -2 2 -12 -22 -21 -53z"/>
<path d="M431 3495 c1 -19 18 -51 18 -35 0 8 -4 22 -9 30 -5 8 -9 11 -9 5z"/>
<path d="M460 3407 c0 -13 43 -122 52 -132 5 -5 -3 22 -17 60 -25 66 -35 86
-35 72z"/>
<path d="M9516 3335 c-9 -26 -7 -32 5 -12 6 10 9 21 6 23 -2 3 -7 -2 -11 -11z"/>
<path d="M9489 3264 c-5 -15 -8 -29 -5 -31 2 -2 8 10 14 26 13 38 5 41 -9 5z"/>
<path d="M6889 3267 c-73 -19 -71 3 -70 -650 1 -433 -2 -594 -11 -631 -16 -62
-77 -132 -143 -162 l-50 -24 -1612 1 c-1768 0 -1647 -4 -1716 59 -58 54 -66
63 -62 71 3 4 -3 15 -12 25 -16 16 -18 48 -20 363 -1 190 -2 352 -3 359 0 7
-40 -15 -90 -48 l-90 -61 0 -287 c0 -190 4 -292 11 -299 5 -5 11 -24 11 -42 1
-17 4 -31 7 -31 3 0 17 -23 31 -51 14 -29 48 -75 76 -103 50 -50 163 -116 199
-116 14 0 16 -7 13 -45 -2 -25 -1 -46 2 -47 3 -2 3 -41 0 -88 -3 -47 -3 -92 1
-100 4 -8 10 -23 13 -33 10 -32 64 -45 191 -46 66 -1 140 2 164 5 31 5 42 3
37 -5 -4 -6 -2 -11 3 -11 6 0 11 4 11 9 0 5 15 5 34 -1 23 -7 56 -8 102 -1 41
6 96 7 137 2 80 -10 136 7 157 47 8 14 13 57 13 102 0 42 4 80 9 83 5 3 5 16
0 30 -5 13 -7 38 -5 56 l5 32 774 -1 774 0 0 -134 c0 -116 3 -140 20 -174 12
-23 28 -40 38 -40 76 -2 444 1 510 3 45 2 77 0 70 -5 -8 -4 -8 -8 -2 -8 6 0
14 3 18 7 4 5 35 6 67 5 111 -7 148 28 143 138 -2 39 1 67 8 71 6 4 7 12 3 20
-11 17 -15 68 -9 99 4 20 18 30 67 49 34 13 80 38 102 55 53 41 105 94 105
107 0 6 12 26 26 44 14 19 23 38 20 43 -3 5 1 18 9 28 19 26 22 1237 4 1289
-15 41 -43 54 -90 42z m-2839 -1649 c0 -5 0 -44 0 -87 l0 -79 -247 2 c-137 1
-253 5 -260 9 -17 11 -16 144 2 154 18 10 505 11 505 1z m2423 -2 c3 -10 1
-140 -2 -157 0 -3 -117 -6 -258 -5 l-258 1 -3 74 c-2 41 -1 80 2 87 7 17 513
17 519 0z"/>
<path d="M9465 3199 c-4 -6 -5 -12 -2 -15 2 -3 7 2 10 11 7 17 1 20 -8 4z"/>
<path d="M547 3169 c4 -13 8 -18 11 -10 2 7 -1 18 -6 23 -8 8 -9 4 -5 -13z"/>
<path d="M9446 3153 c-6 -14 -5 -15 5 -6 7 7 10 15 7 18 -3 3 -9 -2 -12 -12z"/>
<path d="M575 3103 c16 -38 25 -52 25 -39 0 12 -29 76 -35 76 -3 0 2 -17 10
-37z"/>
<path d="M9420 3096 c-15 -39 -12 -46 6 -13 9 16 13 31 10 34 -3 3 -10 -6 -16
-21z"/>
<path d="M601 3045 c0 -5 8 -26 19 -45 11 -19 19 -30 19 -25 0 6 -8 26 -19 45
-11 19 -19 31 -19 25z"/>
<path d="M9391 3023 c-10 -26 -10 -27 4 -9 8 11 15 23 15 28 0 15 -7 8 -19
-19z"/>
<path d="M649 2937 c14 -37 41 -87 46 -87 5 0 -40 98 -50 108 -3 4 -2 -6 4
-21z"/>
<path d="M9297 2826 c-31 -62 -57 -117 -56 -122 0 -5 27 44 60 110 33 65 59
120 57 121 -2 2 -29 -47 -61 -109z"/>
<path d="M717 2795 c9 -19 18 -33 21 -31 4 5 -26 66 -33 66 -3 0 3 -16 12 -35z"/>
<path d="M750 2735 c0 -9 30 -65 35 -65 7 0 -16 60 -26 66 -5 3 -9 2 -9 -1z"/>
<path d="M9220 2679 c0 -5 5 -7 10 -4 6 3 10 8 10 11 0 2 -4 4 -10 4 -5 0 -10
-5 -10 -11z"/>
<path d="M801 2638 c26 -52 163 -276 181 -299 25 -31 15 -11 -37 71 -23 36
-65 107 -94 158 -29 50 -55 92 -57 92 -3 0 1 -10 7 -22z"/>
<path d="M9195 2634 c-9 -14 -14 -28 -12 -31 3 -3 13 9 22 26 19 38 14 41 -10
5z"/>
<path d="M9109 2483 c-29 -49 -62 -101 -74 -118 -31 -43 -67 -105 -62 -105 5
0 127 186 171 263 48 82 21 51 -35 -40z"/>
<path d="M1076 2200 c116 -171 348 -456 445 -545 l44 -40 -36 40 c-19 22 -73
83 -120 135 -47 52 -113 131 -147 175 -35 44 -75 96 -90 115 -15 19 -44 60
-65 90 -20 30 -49 69 -63 85 -14 17 0 -8 32 -55z"/>
<path d="M8917 2192 c-20 -31 -45 -68 -54 -82 -13 -19 -13 -22 -1 -10 25 25
110 150 101 149 -4 0 -25 -26 -46 -57z"/>
<path d="M8814 2047 c-18 -22 -87 -108 -107 -134 -5 -7 -7 -13 -4 -13 5 0 67
75 130 158 17 21 1 13 -19 -11z"/>
<path d="M8680 1879 c0 -5 5 -7 10 -4 6 3 10 8 10 11 0 2 -4 4 -10 4 -5 0 -10
-5 -10 -11z"/>
<path d="M8645 1840 c-10 -11 -14 -20 -9 -20 5 0 15 9 22 20 7 11 11 20 9 20
-2 0 -12 -9 -22 -20z"/>
<path d="M8600 1792 c0 -4 -19 -26 -41 -50 -23 -23 -37 -42 -31 -42 6 0 29 23
52 50 23 28 37 50 31 50 -6 0 -11 -3 -11 -8z"/>
<path d="M8410 1584 c-58 -59 -159 -154 -225 -213 -66 -58 -127 -113 -136
-121 -9 -8 -27 -23 -40 -33 -13 -10 -70 -53 -126 -95 -56 -42 -102 -81 -103
-85 -1 -23 330 247 520 424 93 86 228 229 218 229 -2 0 -51 -48 -108 -106z"/>
<path d="M1560 1606 c0 -8 313 -296 317 -292 2 2 -20 26 -49 52 -29 27 -98 93
-154 146 -90 88 -114 108 -114 94z"/>
<path d="M1891 1304 c1 -28 483 -384 599 -444 48 -24 4 10 -100 77 -146 95
-346 244 -482 361 -10 8 -18 11 -17 6z"/>
<path d="M7648 957 c-59 -40 -107 -75 -108 -80 0 -7 200 122 225 144 30 28
-24 -1 -117 -64z"/>
<path d="M7476 845 c-20 -14 -41 -25 -46 -25 -5 0 -12 -4 -15 -10 -3 -5 -2
-10 2 -10 13 0 120 69 107 70 -6 0 -28 -11 -48 -25z"/>
<path d="M2532 834 c10 -10 20 -16 22 -13 3 3 -5 11 -17 18 -21 13 -21 12 -5
-5z"/>
<path d="M2595 797 c48 -33 239 -135 354 -190 196 -93 501 -214 501 -199 0 4
-42 22 -93 41 -187 68 -472 196 -614 276 -10 6 -48 27 -85 48 -65 36 -102 50
-63 24z"/>
<path d="M7360 775 c-14 -8 -20 -14 -15 -14 6 0 21 6 35 14 14 8 21 14 15 14
-5 0 -21 -6 -35 -14z"/>
<path d="M7126 655 c-227 -113 -493 -220 -705 -284 -86 -27 -172 -53 -191 -59
l-35 -12 40 6 c61 9 312 89 475 151 171 66 409 174 535 243 141 77 88 57 -119
-45z"/>
<path d="M3470 400 c0 -4 62 -26 138 -48 209 -63 251 -74 265 -69 6 2 -27 14
-73 26 -47 12 -140 39 -207 60 -68 21 -123 35 -123 31z"/>
<path d="M6093 283 c-13 -2 -23 -8 -23 -13 0 -7 47 1 85 15 14 5 -35 3 -62 -2z"/>
<path d="M3898 273 c7 -3 16 -2 19 1 4 3 -2 6 -13 5 -11 0 -14 -3 -6 -6z"/>
<path d="M3930 267 c16 -18 589 -109 668 -106 15 1 -50 11 -145 24 -94 13
-236 35 -315 50 -188 35 -214 39 -208 32z"/>
<path d="M5965 250 l-20 -9 20 1 c11 0 34 4 50 8 l30 8 -30 0 c-16 0 -39 -3
-50 -8z"/>
<path d="M5815 224 c-38 -7 -128 -20 -200 -29 -130 -17 -165 -25 -109 -25 35
0 355 47 404 59 34 9 34 9 5 9 -16 -1 -61 -7 -100 -14z"/>
<path d="M4645 160 c19 -8 173 -14 164 -6 -2 2 -44 6 -94 9 -53 3 -82 2 -70
-3z"/>
<path d="M5349 165 c-3 -2 -115 -7 -249 -10 -134 -2 -246 -8 -249 -11 -7 -8
444 5 549 15 l75 8 -61 2 c-33 0 -63 -1 -65 -4z"/>
</g>
</svg>
