<?xml version="1.0" standalone="no"?>
<!DOCTYPE svg PUBLIC "-//W3C//DTD SVG 20010904//EN"
 "http://www.w3.org/TR/2001/REC-SVG-20010904/DTD/svg10.dtd">
<svg version="1.0" xmlns="http://www.w3.org/2000/svg"
 width="1000.000000pt" height="1000.000000pt" viewBox="0 0 1000.000000 1000.000000"
 preserveAspectRatio="xMidYMid meet">
<metadata>
Created by potrace 1.14, written by Peter Selinger 2001-2017
</metadata>
<g transform="translate(0.000000,1000.000000) scale(0.100000,-0.100000)"
fill="#000000" stroke="none">
<path d="M4970 8832 c0 -7 -5 -10 -10 -7 -6 4 -18 1 -27 -7 -12 -9 -15 -9 -9
-1 5 9 2 11 -8 7 -9 -3 -13 -11 -9 -17 3 -5 1 -7 -4 -4 -13 8 -66 -17 -56 -26
3 -4 -3 -7 -15 -7 -12 0 -22 -4 -22 -10 0 -5 -7 -10 -16 -10 -8 0 -13 -4 -10
-8 3 -5 -10 -15 -29 -22 -19 -8 -35 -17 -35 -22 0 -4 -5 -8 -11 -8 -6 0 -30
-14 -55 -30 -24 -17 -44 -27 -44 -23 0 4 -4 3 -8 -4 -4 -6 -14 -13 -22 -15 -8
-2 -23 -11 -34 -20 -11 -10 -26 -18 -33 -18 -7 0 -13 -4 -13 -9 0 -5 -13 -14
-30 -20 -16 -5 -30 -15 -30 -20 0 -6 -6 -8 -14 -5 -7 3 -16 -2 -20 -11 -3 -9
-10 -13 -16 -10 -6 3 -13 -1 -16 -9 -3 -9 -10 -13 -15 -10 -5 3 -9 0 -9 -6 0
-6 -4 -9 -9 -6 -5 3 -14 -1 -21 -9 -7 -8 -16 -12 -21 -9 -5 3 -9 1 -9 -4 0 -5
-13 -15 -30 -22 -16 -7 -30 -16 -30 -21 0 -5 -7 -9 -15 -9 -9 0 -25 -9 -37
-20 -12 -10 -25 -17 -29 -14 -4 2 -11 -1 -16 -8 -10 -16 -83 -54 -96 -50 -5 1
-6 -2 -3 -7 3 -5 -8 -14 -24 -20 -17 -5 -30 -15 -30 -21 0 -6 -4 -8 -10 -5 -5
3 -10 1 -10 -6 0 -7 -3 -9 -6 -6 -4 4 -19 -2 -34 -13 -16 -11 -33 -20 -39 -20
-6 0 -11 -4 -11 -10 0 -5 -6 -10 -14 -10 -7 0 -19 -7 -26 -15 -7 -8 -16 -12
-21 -9 -5 3 -9 1 -9 -5 0 -6 -11 -13 -25 -17 -14 -3 -25 -10 -25 -15 0 -5 -7
-9 -15 -9 -9 0 -18 -7 -22 -16 -3 -8 -12 -13 -19 -10 -8 3 -14 1 -14 -5 0 -6
-4 -8 -9 -5 -5 4 -11 3 -13 -2 -4 -10 -105 -72 -118 -72 -6 0 -10 -4 -10 -8 0
-8 -64 -42 -76 -41 -4 0 -10 -3 -13 -8 -11 -14 -91 -64 -91 -56 0 5 -5 0 -11
-10 -6 -9 -14 -15 -20 -12 -5 4 -9 1 -9 -4 0 -6 -9 -11 -21 -11 -11 0 -18 -4
-15 -9 3 -5 -5 -12 -18 -15 -14 -3 -31 -12 -38 -19 -8 -6 -27 -19 -43 -27 -24
-13 -58 -56 -63 -82 -1 -5 -2 -9 -3 -10 -8 -29 -7 -48 4 -45 6 1 12 -7 12 -18
0 -24 43 -67 58 -58 6 4 8 0 4 -11 -4 -10 -3 -15 3 -11 6 3 13 -1 16 -10 6
-13 8 -14 15 -3 7 10 9 10 9 1 0 -7 7 -13 15 -13 8 0 15 -4 15 -10 0 -5 7 -10
15 -10 15 0 55 -19 65 -31 3 -4 15 -9 28 -13 12 -4 22 -12 22 -17 0 -6 5 -7
10 -4 6 3 10 1 10 -4 0 -6 9 -11 21 -11 11 0 18 -4 15 -9 -3 -5 5 -12 18 -15
14 -3 31 -12 38 -19 7 -7 30 -21 51 -30 20 -10 37 -22 37 -28 0 -6 4 -8 9 -4
5 3 16 -2 24 -10 9 -8 22 -15 30 -15 8 0 22 -9 32 -20 10 -11 24 -20 32 -20 7
0 13 -4 13 -10 0 -5 6 -7 14 -4 7 3 16 -2 20 -11 3 -9 10 -13 16 -10 5 3 10 1
10 -4 0 -6 7 -11 15 -11 8 0 15 -4 15 -8 0 -5 16 -14 35 -22 19 -8 35 -17 35
-21 0 -7 39 -22 53 -20 4 1 6 -5 5 -11 -2 -7 3 -12 10 -10 6 1 12 -3 12 -9 0
-6 7 -9 15 -5 8 3 15 2 15 -2 0 -13 57 -42 65 -34 5 4 5 1 1 -5 -4 -8 -1 -13
8 -13 9 0 16 -5 16 -11 0 -5 5 -7 10 -4 6 3 10 1 10 -6 0 -7 3 -9 6 -6 4 3 18
-3 32 -13 13 -11 31 -20 39 -20 8 0 11 -4 8 -10 -3 -5 3 -10 14 -10 12 0 21
-4 21 -9 0 -10 39 -27 53 -23 4 1 7 -2 7 -7 0 -10 39 -27 53 -23 4 1 6 -3 5
-10 -2 -7 4 -12 12 -13 8 -1 14 -6 12 -13 -1 -7 1 -11 5 -10 20 4 65 -16 78
-35 8 -12 15 -18 15 -14 0 9 93 -43 98 -55 2 -5 8 -6 13 -2 5 3 9 0 9 -5 0 -6
8 -11 18 -11 10 0 24 -9 32 -19 7 -11 17 -18 21 -16 3 3 17 -3 30 -13 13 -10
39 -24 57 -31 17 -8 32 -17 32 -21 0 -7 15 -13 48 -20 4 -1 11 -8 15 -16 4 -8
15 -14 22 -14 8 0 15 -5 15 -11 0 -5 5 -7 10 -4 6 3 10 1 10 -5 0 -6 5 -8 10
-5 6 3 10 2 10 -4 0 -5 9 -13 21 -16 19 -6 79 -42 104 -63 11 -9 46 -25 57
-26 3 -1 17 -10 30 -21 14 -11 31 -21 39 -23 7 -2 16 -7 19 -11 3 -4 20 -14
38 -22 17 -8 32 -17 32 -21 0 -5 6 -8 14 -8 7 0 19 -7 26 -15 7 -8 15 -13 19
-11 9 6 5 -2346 -4 -2367 -7 -17 -51 -42 -67 -39 -5 1 -8 -3 -8 -8 0 -10 -48
-35 -62 -32 -5 1 -8 -2 -8 -7 0 -5 -20 -20 -45 -32 -25 -12 -45 -27 -45 -31 0
-5 -4 -6 -10 -3 -5 3 -10 1 -10 -5 0 -6 -4 -9 -9 -6 -5 4 -11 1 -13 -5 -2 -6
-21 -13 -42 -16 -26 -3 -36 -2 -32 6 4 6 0 11 -8 11 -9 0 -16 4 -16 10 0 5 -6
7 -14 4 -7 -3 -16 1 -19 8 -3 8 -23 20 -46 28 -22 7 -38 17 -35 21 5 8 -10 13
-28 10 -5 0 -8 4 -8 9 0 6 -9 10 -21 10 -13 0 -18 4 -13 12 5 8 2 9 -9 5 -10
-3 -17 -2 -17 3 0 5 -16 17 -35 26 -19 9 -35 21 -35 26 0 5 -4 7 -9 4 -5 -3
-19 2 -32 12 -13 10 -37 26 -54 34 -81 42 -151 83 -157 92 -5 7 -8 7 -8 1 0
-5 -6 -3 -13 5 -7 8 -35 26 -62 40 -28 14 -56 30 -63 37 -7 7 -18 13 -24 13
-5 0 -22 9 -38 20 -15 11 -30 17 -34 13 -3 -3 -6 -1 -6 5 0 7 -7 12 -15 12 -8
0 -15 4 -15 8 0 5 -16 14 -35 22 -19 8 -35 18 -35 22 0 5 -5 6 -10 3 -6 -3
-13 1 -16 10 -4 9 -13 14 -20 11 -8 -3 -14 1 -14 10 0 9 -5 12 -11 8 -6 -3
-14 -2 -18 3 -3 6 -24 20 -46 32 -22 11 -62 34 -90 51 -27 17 -60 35 -72 40
-11 5 -24 14 -28 20 -3 5 -11 8 -16 5 -5 -4 -9 -1 -9 4 0 6 -7 11 -15 11 -7 0
-19 8 -24 18 -6 9 -11 13 -11 9 0 -11 -80 34 -80 45 0 5 -4 7 -8 4 -5 -3 -25
6 -45 19 -20 14 -41 25 -46 25 -6 0 -11 5 -11 10 0 6 -9 10 -20 10 -11 0 -20
5 -20 10 0 6 -7 10 -15 10 -8 0 -15 4 -15 9 0 5 -11 12 -25 15 -14 4 -25 11
-25 17 0 6 -4 7 -10 4 -5 -3 -10 -1 -10 5 0 6 -4 9 -9 6 -5 -3 -14 1 -21 9 -7
8 -19 15 -26 15 -8 0 -14 3 -14 8 0 7 -52 33 -67 33 -4 0 -12 7 -16 15 -5 8
-12 12 -18 9 -5 -4 -9 -2 -9 4 0 5 -18 17 -40 27 -22 10 -40 22 -40 27 0 4 -4
5 -10 2 -5 -3 -10 -1 -10 5 0 6 -4 8 -10 5 -5 -3 -10 -2 -10 4 0 6 -11 13 -25
17 -14 3 -25 10 -25 15 0 5 -6 9 -14 9 -8 0 -16 6 -18 13 -4 10 -3 2208 1
2230 0 4 11 2 24 -5 12 -7 25 -11 30 -10 4 1 7 -5 7 -14 0 -10 6 -14 14 -11 8
3 20 -1 26 -9 7 -8 19 -14 26 -14 8 0 14 -4 14 -9 0 -5 14 -14 30 -21 17 -7
30 -17 30 -22 0 -5 4 -7 9 -4 5 3 20 -4 35 -15 14 -11 26 -17 26 -12 0 4 4 3
8 -4 4 -6 14 -13 22 -15 8 -2 22 -10 30 -18 8 -8 22 -16 30 -18 8 -2 17 -8 18
-13 2 -5 8 -7 13 -3 5 3 9 0 9 -6 0 -6 4 -9 9 -6 5 3 12 -1 15 -10 3 -8 10
-12 16 -9 6 3 13 -1 16 -9 3 -9 10 -14 14 -11 5 3 15 -1 23 -9 8 -8 17 -12 21
-9 3 4 6 2 6 -4 0 -6 11 -14 25 -17 16 -4 23 -11 19 -18 -5 -8 -2 -9 9 -5 10
3 17 2 17 -3 0 -6 7 -10 15 -10 8 0 15 -5 15 -11 0 -5 4 -8 9 -4 5 3 13 0 16
-5 7 -12 55 -34 68 -32 4 1 6 -4 5 -10 -2 -7 3 -12 10 -10 6 1 12 -3 12 -9 0
-5 5 -7 10 -4 6 3 10 1 10 -6 0 -7 3 -10 6 -6 4 3 23 -6 42 -21 20 -15 33 -20
28 -12 -4 8 1 5 12 -7 11 -13 27 -23 36 -23 9 0 16 -4 16 -10 0 -5 7 -10 15
-10 8 0 15 -5 15 -12 0 -6 3 -8 6 -5 4 4 19 -2 34 -13 15 -11 30 -17 33 -13 4
3 9 -2 13 -11 3 -9 10 -13 15 -10 5 3 9 0 9 -5 0 -6 7 -11 16 -11 9 0 12 -5 8
-12 -4 -6 -3 -9 2 -6 5 4 32 -7 59 -23 28 -17 58 -32 68 -36 9 -3 17 -9 17
-14 0 -5 6 -9 14 -9 7 0 25 -9 38 -20 14 -10 28 -16 32 -13 3 3 6 2 6 -3 0 -6
18 -18 40 -28 22 -10 40 -22 40 -27 0 -6 4 -8 9 -4 5 3 12 1 16 -5 4 -6 11 -7
17 -4 6 4 8 2 5 -3 -4 -6 7 -16 23 -23 17 -7 30 -17 30 -22 0 -5 4 -7 9 -3 5
3 17 -2 25 -11 9 -8 16 -12 16 -8 0 4 7 -1 16 -12 8 -10 12 -13 9 -6 -6 11 -3
11 13 1 12 -7 18 -17 16 -21 -3 -5 -2 -7 3 -6 9 3 103 -41 113 -53 3 -3 25
-16 50 -30 25 -13 47 -27 48 -31 2 -5 10 -8 18 -8 8 0 14 -5 14 -11 0 -5 4 -8
9 -4 5 3 16 -2 24 -10 9 -8 20 -15 26 -15 6 0 11 -5 11 -11 0 -5 5 -7 10 -4 6
3 10 1 10 -5 0 -6 5 -8 10 -5 6 3 10 1 10 -4 0 -6 9 -11 20 -11 11 0 20 -5 20
-10 0 -9 38 -30 60 -34 3 -1 11 -5 19 -10 10 -7 12 -6 6 4 -5 8 -3 11 6 8 8
-3 20 1 27 9 8 7 18 11 23 8 5 -4 9 -1 9 5 0 6 5 8 10 5 6 -3 10 1 10 10 0 9
4 14 10 10 11 -7 39 45 33 63 -3 6 0 12 6 12 6 0 11 5 11 11 0 5 -6 7 -12 3
-10 -6 -10 -4 0 8 9 11 9 17 2 20 -6 2 -12 10 -14 18 -6 37 -18 60 -32 60 -8
0 -14 5 -14 10 0 6 -7 10 -15 10 -7 0 -18 8 -24 18 -5 9 -13 16 -18 15 -16 -5
-43 9 -37 18 3 5 2 8 -3 7 -12 -4 -73 23 -73 32 0 4 -11 11 -25 14 -14 4 -25
11 -25 17 0 6 -4 7 -10 4 -5 -3 -10 -2 -10 3 0 6 -11 13 -25 16 -16 4 -23 11
-19 18 5 7 3 8 -6 3 -8 -5 -18 -1 -27 10 -7 11 -13 15 -13 11 0 -4 -12 2 -26
13 -15 11 -30 18 -35 15 -5 -3 -9 -1 -9 4 0 5 -18 17 -40 27 -22 10 -40 22
-40 27 0 4 -4 8 -10 8 -5 0 -33 14 -62 32 -29 17 -72 41 -95 53 -24 12 -40 25
-36 29 3 3 0 6 -8 6 -20 0 -69 23 -69 33 0 4 -6 7 -13 7 -7 0 -23 9 -35 20
-12 12 -22 18 -22 14 0 -3 -7 -1 -15 6 -8 7 -15 9 -15 4 0 -5 -6 -2 -13 6 -7
8 -29 24 -49 35 -21 11 -38 23 -38 28 0 4 -4 6 -9 2 -5 -3 -15 1 -23 8 -7 7
-28 19 -45 26 -18 7 -33 17 -33 20 0 4 -16 13 -35 21 -19 8 -35 17 -35 22 0 4
-7 8 -15 8 -8 0 -15 5 -15 11 0 5 -4 8 -10 4 -5 -3 -19 4 -30 15 -11 11 -25
18 -30 15 -6 -4 -13 1 -16 9 -3 9 -10 13 -15 10 -5 -3 -9 -2 -9 3 0 4 -10 13
-23 19 -37 18 -172 96 -177 103 -3 3 -12 7 -20 9 -8 2 -16 8 -18 13 -2 5 -13
9 -23 9 -11 0 -17 5 -14 10 3 6 -3 10 -14 10 -12 0 -21 5 -21 11 0 5 -5 7 -10
4 -6 -3 -13 1 -16 9 -3 9 -15 16 -25 16 -10 0 -19 3 -19 8 0 4 -23 18 -50 31
-28 14 -50 29 -50 33 0 4 -7 8 -15 8 -8 0 -15 5 -15 11 0 5 -5 7 -10 4 -6 -4
-20 4 -31 17 -11 13 -18 17 -14 11 3 -8 -6 -6 -24 5 -17 9 -31 21 -31 25 0 5
-4 5 -10 2 -5 -3 -10 -1 -10 5 0 6 -4 8 -10 5 -5 -3 -10 -2 -10 3 0 4 -16 14
-35 22 -19 7 -32 17 -29 22 3 4 -4 8 -15 8 -12 0 -21 3 -21 8 0 4 -14 13 -32
21 -33 15 -55 31 -93 68 -13 12 -26 19 -29 16 -3 -4 -6 -1 -6 6 0 8 -7 11 -15
7 -8 -3 -15 -1 -15 5 0 6 -7 6 -19 -1 -14 -7 -22 -7 -26 0 -5 8 -12 7 -23 -2
-13 -11 -15 -11 -7 2 6 12 5 13 -6 3 -7 -7 -21 -13 -31 -13 -10 0 -18 -5 -18
-11 0 -6 -6 -9 -12 -6 -7 2 -19 -3 -26 -12 -8 -10 -11 -10 -6 -2 4 9 3 12 -4
7 -6 -4 -9 -13 -5 -21 3 -8 0 -15 -6 -15 -8 0 -10 -694 -7 -2582 1 -1421 4
-2591 5 -2600 1 -10 6 -18 12 -18 5 0 9 -9 9 -20 0 -11 5 -20 11 -20 5 0 8 -4
4 -10 -6 -10 53 -66 67 -62 4 1 11 -5 14 -13 4 -8 12 -15 20 -15 8 0 14 -4 14
-10 0 -5 8 -10 19 -10 10 0 24 -7 31 -15 6 -8 22 -17 33 -21 12 -3 30 -13 40
-22 9 -8 17 -12 17 -8 0 4 10 -2 22 -14 12 -11 28 -20 35 -20 7 0 13 -5 13
-11 0 -5 4 -8 9 -5 5 3 14 -1 21 -9 7 -8 19 -15 26 -15 8 0 14 -4 14 -10 0 -5
9 -10 21 -10 11 0 17 -4 14 -10 -3 -5 3 -10 14 -10 12 0 21 -4 21 -10 0 -5 7
-10 15 -10 8 0 24 -9 35 -20 11 -11 27 -20 35 -20 9 0 25 -9 37 -20 12 -11 28
-20 35 -20 7 0 13 -4 13 -10 0 -5 7 -10 15 -10 8 0 15 -5 15 -11 0 -5 4 -8 9
-4 5 3 17 -2 25 -11 9 -8 16 -13 16 -9 0 4 7 -1 16 -9 8 -9 22 -16 30 -16 8 0
14 -3 14 -8 0 -4 15 -13 33 -21 17 -8 34 -17 37 -20 8 -10 64 -42 83 -48 9 -3
17 -10 17 -15 0 -5 5 -6 10 -3 6 3 10 3 10 -2 0 -4 23 -19 51 -33 28 -14 54
-30 56 -37 3 -6 11 -9 19 -6 8 3 14 1 14 -5 0 -5 12 -17 26 -27 17 -11 24 -12
18 -4 -4 8 8 2 28 -13 19 -15 38 -24 42 -21 3 4 6 1 6 -5 0 -7 7 -12 15 -12 8
0 15 -5 15 -11 0 -5 5 -7 10 -4 6 3 13 -1 16 -9 3 -9 14 -16 24 -16 10 0 23
-7 30 -15 7 -8 16 -13 20 -10 4 3 11 -2 14 -11 3 -8 10 -12 16 -9 5 3 10 1 10
-4 0 -6 5 -11 11 -11 6 0 23 -9 39 -20 15 -11 30 -17 34 -13 3 3 6 2 6 -4 0
-6 14 -16 30 -23 17 -7 30 -17 30 -22 0 -6 7 -8 15 -4 8 3 15 2 15 -3 0 -4 12
-14 28 -22 15 -8 29 -16 32 -19 3 -3 26 -17 53 -30 26 -14 47 -28 47 -32 0 -5
7 -8 16 -8 8 0 35 -13 59 -30 24 -16 46 -30 50 -30 4 0 13 -7 22 -15 8 -8 19
-13 24 -10 5 4 9 1 9 -4 0 -6 7 -11 15 -11 8 0 15 -4 15 -10 0 -5 7 -10 15
-10 8 0 15 -5 15 -11 0 -5 4 -8 10 -4 5 3 18 -3 30 -15 11 -11 22 -20 25 -21
27 -5 45 -13 45 -20 0 -5 7 -9 15 -9 8 0 15 -5 15 -11 0 -6 7 -9 15 -5 9 3 15
0 15 -10 0 -8 4 -13 9 -9 5 3 17 -3 27 -12 10 -10 19 -17 21 -15 12 9 33 -1
33 -15 0 -11 3 -14 8 -7 7 11 38 11 50 0 3 -3 14 2 25 11 11 10 17 13 14 6 -4
-6 12 -2 35 10 24 11 46 20 51 19 4 -1 7 3 7 8 0 6 16 18 35 27 19 9 35 21 35
25 0 5 4 7 9 4 4 -3 16 3 26 14 10 11 24 20 32 20 8 0 21 6 28 12 26 23 41 33
55 36 8 2 17 7 20 10 3 4 17 13 33 21 15 8 27 18 27 23 0 5 5 6 10 3 6 -3 10
-1 10 4 0 6 5 11 11 11 6 0 24 9 40 21 16 11 29 18 29 14 0 -3 11 5 23 19 13
14 27 23 30 19 6 -6 11 20 8 40 0 4 4 7 10 7 8 0 8 5 -1 15 -7 8 -8 15 -3 15
10 0 12 18 13 143 1 48 -2 92 -5 97 -3 6 -3 10 2 10 10 0 9 2352 -1 2368 -4 7
-4 12 1 12 7 0 9 2346 2 2448 -1 17 -7 32 -13 32 -7 0 -7 3 1 8 9 6 6 16 -12
36 -14 16 -25 26 -25 23 0 -4 -9 2 -20 13 -11 11 -25 20 -31 20 -7 0 -18 8
-26 18 -10 11 -12 12 -8 2 4 -8 -1 -6 -10 5 -9 11 -17 18 -18 17 -1 -2 -14 2
-29 9 -15 6 -25 16 -22 21 3 5 2 8 -3 7 -8 -3 -64 21 -73 31 -3 3 -17 11 -32
17 -16 7 -28 17 -28 23 0 6 -4 9 -9 5 -5 -3 -15 1 -23 7 -7 7 -34 24 -60 37
-26 13 -45 28 -41 34 4 6 0 8 -8 5 -8 -3 -34 7 -58 23 -23 16 -45 28 -49 25
-10 -6 -32 21 -24 29 4 4 -3 4 -15 1 -17 -6 -23 -3 -23 8 0 9 -9 16 -20 16
-11 0 -20 4 -20 8 0 5 -16 14 -35 22 -19 8 -35 17 -35 21 0 4 -13 12 -30 18
-16 5 -30 15 -30 20 0 6 -3 11 -7 10 -18 -3 -52 14 -57 27 -3 8 -13 14 -22 14
-9 0 -27 9 -41 20 -14 11 -32 20 -39 20 -8 0 -14 5 -14 10 0 6 -7 10 -15 10
-8 0 -15 5 -15 11 0 5 -5 7 -10 4 -6 -3 -13 1 -16 9 -3 9 -9 14 -13 11 -4 -2
-24 7 -44 20 -20 14 -41 25 -46 25 -6 0 -11 4 -11 8 0 5 -16 14 -35 22 -19 8
-35 17 -35 22 0 4 -7 8 -15 8 -8 0 -15 5 -15 10 0 6 -9 10 -20 10 -11 0 -20 4
-20 9 0 5 -14 14 -31 21 -17 7 -37 20 -45 27 -8 8 -21 16 -30 17 -9 1 -19 8
-23 15 -5 7 -10 12 -12 11 -9 -4 -59 24 -59 32 0 5 -4 6 -10 3 -5 -3 -10 -1
-10 5 0 6 -4 8 -10 5 -5 -3 -10 -1 -10 5 0 6 -4 8 -10 5 -5 -3 -10 -2 -10 4 0
6 -17 18 -37 28 -21 9 -41 22 -45 27 -5 7 -8 7 -8 1 0 -6 -3 -6 -8 0 -7 11
-136 90 -187 115 -16 8 -32 17 -35 20 -3 3 -26 17 -52 30 -27 14 -48 29 -48
33 0 5 -4 5 -10 2 -5 -3 -10 -2 -10 3 0 5 -10 13 -22 19 l-23 10 23 7 c12 4
22 12 22 17 0 5 6 9 14 9 7 0 19 7 26 15 7 9 15 13 18 11 2 -3 24 8 47 24 23
16 45 26 49 23 3 -4 6 -1 6 5 0 7 7 12 15 12 8 0 15 3 15 8 0 4 12 13 28 19
15 7 50 28 78 46 28 19 66 40 83 48 17 8 31 18 31 22 0 5 5 5 10 2 6 -3 10 -1
10 5 0 6 5 8 10 5 6 -3 10 -2 10 3 0 4 17 17 38 29 20 11 53 29 72 39 19 10
39 25 43 32 5 7 12 10 16 7 5 -2 14 2 21 10 7 8 18 15 25 15 7 0 18 7 25 15 7
8 16 12 21 9 5 -3 9 0 9 5 0 6 7 11 15 11 9 0 18 7 21 15 4 8 10 13 14 10 5
-3 15 1 23 9 8 8 17 12 21 9 3 -4 6 -2 6 4 0 10 49 38 63 35 4 -1 7 2 7 6 0 5
21 20 48 33 26 13 53 30 60 36 7 7 19 13 27 13 7 0 16 7 19 16 4 9 9 14 13 11
3 -4 18 2 33 13 16 11 33 20 39 20 6 0 11 5 11 10 0 6 6 10 13 10 7 0 28 11
47 25 18 13 37 22 41 19 5 -3 9 -1 9 4 0 5 12 15 28 22 15 8 35 21 45 29 9 8
17 10 17 6 0 -5 7 0 16 11 8 10 13 12 9 4 -4 -8 1 -6 9 4 15 19 61 32 50 14
-3 -4 4 -8 15 -8 12 0 21 -4 21 -10 0 -5 6 -10 14 -10 7 0 19 -7 26 -15 7 -8
16 -12 21 -9 5 3 9 1 9 -4 0 -4 16 -14 35 -22 19 -8 35 -17 35 -22 0 -4 6 -8
13 -8 7 0 24 -10 37 -22 14 -13 27 -22 30 -21 11 5 40 -9 40 -19 0 -5 7 -7 16
-4 8 3 12 2 9 -4 -3 -6 1 -10 9 -10 9 0 16 -4 16 -10 0 -5 9 -10 21 -10 13 0
18 -4 13 -12 -5 -8 -2 -9 10 -5 10 4 19 1 22 -8 4 -8 10 -12 15 -9 5 3 9 0 9
-6 0 -6 5 -8 10 -5 6 3 10 1 10 -4 0 -6 7 -11 15 -11 8 0 15 -4 15 -10 0 -5 9
-10 20 -10 12 0 33 -12 47 -27 15 -16 23 -21 18 -13 -6 11 -3 10 12 -2 11 -10
25 -18 31 -18 7 0 12 -5 12 -11 0 -5 5 -7 10 -4 6 3 13 -1 16 -9 3 -9 10 -14
14 -11 5 3 14 0 22 -7 19 -18 78 -50 78 -43 0 3 10 -3 22 -15 12 -11 28 -20
35 -20 7 0 13 -4 13 -9 0 -5 8 -11 18 -14 30 -10 105 -56 114 -69 6 -10 8 -10
8 2 1 12 3 11 11 -3 6 -9 14 -15 20 -12 5 4 9 1 9 -4 0 -6 7 -11 15 -11 8 0
15 -4 15 -10 0 -5 7 -10 15 -10 8 0 15 -5 15 -11 0 -5 4 -8 9 -5 4 3 19 -3 31
-14 12 -11 27 -17 31 -14 5 3 9 1 9 -5 0 -5 18 -17 40 -27 22 -10 40 -22 40
-27 0 -4 5 -5 10 -2 6 3 10 1 10 -4 0 -6 7 -11 15 -11 8 0 15 -5 15 -11 0 -6
7 -9 15 -5 8 3 15 1 15 -5 0 -5 10 -14 23 -19 12 -6 40 -21 62 -34 22 -13 44
-22 49 -18 5 3 6 0 3 -5 -7 -10 12 -23 42 -29 8 -1 18 -9 22 -16 5 -7 9 -8 9
-3 0 7 3 7 8 0 9 -12 61 -44 85 -52 9 -3 17 -9 17 -14 0 -5 9 -9 20 -9 11 0
20 -4 20 -8 0 -10 50 -37 63 -34 4 1 7 -2 7 -8 0 -5 5 -10 10 -10 6 0 20 -9
32 -20 12 -11 30 -20 40 -20 10 0 18 -5 18 -11 0 -5 4 -8 9 -5 5 3 14 -1 21
-9 7 -8 19 -15 26 -15 8 0 14 -5 14 -11 0 -5 5 -7 10 -4 6 3 10 2 10 -3 0 -9
37 -25 53 -23 4 1 7 -3 7 -9 0 -5 8 -10 17 -10 9 0 13 -3 10 -7 -4 -3 -1 -13
6 -21 9 -12 12 -546 12 -2516 0 -1376 4 -2507 8 -2513 5 -8 3 -13 -5 -13 -9 0
-10 -2 -2 -8 7 -4 14 -18 15 -32 4 -26 41 -70 59 -70 5 0 10 -4 10 -8 0 -4 14
-13 30 -19 23 -9 28 -8 23 0 -4 7 1 6 10 -2 11 -8 17 -9 17 -3 0 6 7 9 15 6 9
-4 29 8 50 30 32 33 40 47 36 69 0 4 3 7 9 7 6 0 9 414 7 1174 -1 646 -5 1172
-9 1169 -5 -2 -4 6 0 19 10 27 9 388 -1 404 -3 6 -3 14 0 18 13 12 14 48 1 40
-7 -4 -8 -3 -4 4 12 20 15 51 5 57 -5 4 -6 11 -2 18 10 16 10 58 1 63 -5 3 -5
11 -1 17 11 17 14 49 5 43 -9 -5 -8 41 1 51 4 3 1 13 -6 21 -8 10 -8 13 0 9 7
-5 10 4 8 28 -2 19 -6 39 -9 44 -4 5 -2 13 4 16 8 5 7 12 -2 23 -7 9 -8 13 -3
10 7 -4 11 16 10 58 0 35 -4 64 -10 64 -5 0 -4 4 3 8 9 7 10 15 3 35 -8 19 -7
27 0 27 7 0 6 6 -2 17 -10 11 -10 14 -1 9 15 -9 15 -5 2 28 -7 18 -6 26 1 26
7 0 6 6 -2 17 -8 9 -9 14 -4 11 10 -6 11 294 1 335 -2 9 -1 17 3 17 4 0 4 27
1 60 -3 33 -3 60 0 60 3 0 3 27 0 60 -4 38 -2 60 5 60 5 0 3 5 -5 10 -8 5 -10
10 -4 10 7 0 8 17 4 50 -4 28 -3 50 0 50 4 0 4 18 0 40 -4 22 -4 40 0 40 4 0
4 18 0 40 -4 22 -3 40 2 40 5 0 4 9 -2 20 -7 13 -7 20 -1 20 7 0 7 9 1 25 -7
17 -6 25 1 25 8 0 8 4 0 13 -8 10 -7 17 1 25 7 7 8 12 2 12 -10 0 -9 80 1 108
2 6 1 12 -3 12 -4 0 -7 86 -7 190 1 105 -2 190 -5 190 -4 0 -7 7 -7 15 0 8 3
15 6 15 12 0 5 105 -7 128 -7 12 -9 22 -5 22 4 0 0 5 -10 11 -9 6 -15 14 -12
20 4 5 -1 9 -10 9 -9 0 -13 5 -10 10 4 6 3 10 -2 9 -21 -4 -32 3 -38 21 -4 11
-10 18 -14 16 -11 -7 -62 29 -54 39 5 4 2 5 -5 1 -6 -4 -19 0 -28 8 -9 9 -20
14 -25 11 -5 -4 -9 -1 -9 6 0 7 -3 9 -6 6 -4 -4 -15 3 -25 14 -9 11 -20 19
-24 18 -15 -5 -74 25 -68 35 3 6 3 8 -2 4 -7 -7 -62 17 -75 33 -7 8 -44 22
-52 21 -5 -1 -8 5 -8 14 0 8 -4 13 -9 9 -5 -3 -17 2 -25 11 -9 8 -16 12 -16 8
0 -4 -8 -1 -17 7 -10 8 -38 25 -63 39 -25 13 -51 30 -58 37 -8 7 -18 11 -23 8
-5 -4 -9 -1 -9 4 0 6 -6 11 -12 11 -7 0 -24 9 -38 20 -14 11 -33 20 -43 20
-10 0 -16 4 -12 9 5 9 -32 27 -47 23 -5 -1 -8 2 -8 7 0 5 -14 14 -31 21 -17 7
-36 18 -42 24 -7 7 -29 20 -49 29 -21 10 -38 22 -38 28 0 6 -5 7 -12 3 -6 -4
-17 1 -24 10 -7 10 -16 18 -21 18 -17 1 -33 10 -29 17 3 4 -5 8 -16 8 -12 1
-24 6 -27 10 -3 4 -19 15 -36 23 -16 8 -33 19 -37 25 -4 5 -8 6 -8 2 0 -4 -10
1 -22 13 -12 11 -27 19 -32 17 -6 -2 -16 1 -22 7 -20 19 -54 41 -64 41 -4 0
-20 10 -34 22 -14 13 -29 23 -34 23 -18 0 -42 12 -42 21 0 6 -4 7 -10 4 -5 -3
-10 -1 -10 4 0 6 -7 11 -15 11 -8 0 -15 5 -15 11 0 5 -4 8 -9 4 -5 -3 -16 2
-24 10 -9 8 -21 15 -27 15 -6 0 -8 5 -5 10 4 6 3 10 -2 9 -16 -4 -63 13 -63
23 0 5 -4 7 -8 4 -5 -3 -14 4 -22 14 -8 10 -17 17 -22 14 -4 -3 -8 0 -8 6 0 6
-4 8 -10 5 -5 -3 -10 -1 -10 4 0 6 -6 11 -14 11 -7 0 -30 11 -50 25 -21 14
-42 23 -47 20 -5 -4 -9 1 -9 10 0 9 -4 13 -10 10 -5 -3 -10 -2 -10 2 0 5 -18
16 -40 26 -22 9 -40 21 -40 27 0 5 -3 9 -7 8 -15 -4 -73 21 -73 32 0 6 -4 8
-10 5 -5 -3 -10 -1 -10 4 0 6 -5 11 -11 11 -6 0 -17 7 -26 15 -8 8 -18 13 -23
10 -4 -3 -11 2 -14 11 -3 9 -12 14 -19 11 -8 -3 -19 4 -26 14 -6 11 -16 17
-21 14 -5 -3 -12 1 -17 8 -7 12 -27 23 -43 25 -3 0 -17 5 -32 11 -21 8 -28 7
-28 -2 0 -8 -4 -7 -10 3 -7 11 -10 11 -10 2z m-1994 -4222 c8 0 14 -4 14 -10
0 -5 6 -9 13 -7 6 1 11 -4 9 -11 -1 -8 2 -11 7 -8 5 4 17 -2 27 -11 10 -10 18
-16 18 -14 2 9 46 -11 46 -20 0 -6 5 -7 10 -4 6 3 10 3 10 -2 0 -4 23 -19 50
-32 28 -14 50 -29 50 -34 0 -4 5 -5 10 -2 6 3 13 0 16 -9 3 -8 11 -13 19 -10
7 3 15 -2 19 -11 3 -10 12 -15 21 -11 8 3 15 1 15 -5 0 -5 10 -13 23 -18 12
-5 39 -21 60 -35 21 -14 44 -26 52 -26 8 0 15 -4 15 -10 0 -5 7 -10 15 -10 8
0 15 -5 15 -12 0 -6 3 -8 7 -5 3 4 12 -1 20 -11 8 -9 11 -11 8 -4 -6 11 -3 11
13 1 12 -7 18 -17 15 -23 -3 -5 -1 -6 5 -2 6 3 17 -1 26 -9 8 -9 18 -16 21
-15 26 1 35 -1 30 -9 -3 -5 5 -13 17 -17 13 -4 41 -18 63 -32 22 -15 47 -27
55 -28 8 -2 16 -8 18 -14 2 -5 8 -8 13 -4 5 3 9 0 9 -5 0 -6 7 -11 15 -11 8 0
15 -4 15 -10 0 -5 7 -10 15 -10 8 0 15 -5 15 -11 0 -5 5 -7 10 -4 6 3 10 1 10
-5 0 -6 4 -9 8 -6 5 3 18 -4 30 -14 12 -11 26 -20 32 -20 13 0 62 -30 72 -45
5 -6 8 -6 8 0 0 7 3 7 8 0 4 -5 16 -15 27 -21 92 -49 112 -61 123 -71 13 -12
27 -17 45 -14 4 0 7 -6 7 -15 0 -8 4 -13 9 -10 4 3 19 -3 31 -14 12 -11 27
-17 31 -14 5 3 9 0 9 -5 0 -6 5 -11 10 -11 6 0 28 -11 50 -25 22 -14 40 -22
40 -18 0 5 5 0 11 -10 6 -9 14 -15 20 -12 5 4 9 2 9 -4 0 -5 16 -15 34 -22 19
-7 33 -16 30 -21 -3 -4 4 -8 14 -8 11 0 25 -7 32 -15 7 -8 16 -12 21 -9 5 3 9
0 9 -5 0 -6 7 -11 15 -11 8 0 15 -4 15 -10 0 -5 9 -10 20 -10 11 0 23 -7 26
-15 4 -8 10 -12 15 -9 5 3 9 0 9 -6 0 -6 5 -8 10 -5 6 3 10 1 10 -5 0 -6 5 -8
10 -5 6 3 10 2 10 -2 0 -5 22 -20 50 -34 27 -13 50 -28 50 -33 0 -4 7 -5 16
-2 8 3 12 2 9 -3 -3 -5 5 -13 17 -17 13 -4 29 -14 36 -23 8 -9 11 -10 7 -4 -4
9 -1 11 9 7 9 -3 16 -11 16 -16 0 -6 7 -8 15 -4 8 3 15 1 15 -4 0 -6 9 -6 25
0 14 5 25 6 25 2 0 -4 4 -2 8 5 4 6 14 13 22 15 8 2 23 11 34 20 10 10 22 15
26 13 3 -2 14 7 24 21 11 13 24 24 30 24 6 0 4 -5 -4 -10 -8 -5 -11 -10 -7
-10 5 0 20 9 34 20 14 11 29 17 34 14 5 -3 9 -1 9 4 0 11 48 34 53 24 2 -4 3
-496 2 -1093 0 -891 -3 -1090 -14 -1103 -7 -9 -17 -14 -21 -11 -4 2 -15 -4
-25 -15 -10 -11 -22 -20 -27 -20 -5 0 -25 -11 -46 -24 -20 -12 -41 -24 -47
-26 -5 -2 -15 -10 -22 -19 -7 -9 -13 -11 -13 -6 0 6 -4 5 -8 -2 -4 -6 -14 -13
-22 -15 -8 -2 -21 -9 -28 -16 -18 -16 -41 -15 -48 3 -4 8 -12 15 -20 15 -8 0
-14 4 -14 9 0 7 -28 19 -47 19 -3 0 -9 5 -12 10 -8 13 -91 54 -91 45 0 -4 -7
3 -16 15 -8 12 -20 20 -25 17 -5 -4 -9 -1 -9 4 0 6 -6 11 -14 11 -8 0 -17 7
-20 16 -3 8 -10 12 -16 9 -5 -3 -10 -3 -10 2 0 9 -61 39 -73 35 -5 -1 -6 2 -2
8 3 5 -1 10 -9 10 -9 0 -16 5 -16 11 0 5 -4 7 -10 4 -5 -3 -10 -1 -10 5 0 6
-4 8 -10 5 -6 -3 -10 -1 -10 4 0 6 -7 11 -15 11 -9 0 -18 6 -21 14 -3 8 -12
12 -20 9 -8 -3 -14 0 -14 6 0 6 -7 11 -15 11 -8 0 -15 3 -15 8 0 4 -17 15 -37
25 -51 24 -94 49 -111 65 -7 7 -17 10 -22 7 -4 -3 -11 2 -14 11 -3 8 -10 12
-16 9 -5 -3 -10 -3 -10 2 0 4 -15 14 -32 22 -18 8 -41 23 -51 35 -10 11 -15
14 -11 7 5 -9 -5 -6 -23 7 -17 12 -36 22 -42 22 -6 0 -11 5 -11 10 0 6 -6 10
-14 10 -7 0 -19 7 -26 15 -7 8 -16 12 -21 10 -4 -3 -12 3 -18 12 -6 10 -11 14
-11 10 0 -5 -13 1 -28 12 -16 11 -35 21 -42 23 -8 2 -23 11 -34 21 -11 9 -26
17 -33 17 -7 0 -13 5 -13 10 0 6 -6 10 -13 10 -7 0 -23 9 -35 20 -12 12 -22
16 -22 9 0 -7 -9 -2 -20 11 -11 13 -20 19 -20 15 0 -4 -8 -2 -17 6 -10 8 -35
24 -55 34 -21 11 -38 24 -38 28 0 5 -7 7 -15 3 -8 -3 -15 -1 -15 4 0 6 -6 10
-13 10 -8 0 -22 9 -32 20 -10 11 -23 20 -30 20 -7 0 -22 9 -35 20 -12 11 -27
17 -31 14 -5 -3 -12 2 -15 10 -3 9 -10 13 -15 10 -5 -3 -12 2 -15 10 -3 9 -10
14 -14 11 -5 -3 -11 -1 -15 5 -4 6 -11 7 -17 4 -7 -4 -8 -2 -4 4 6 11 -6 16
-26 13 -5 0 -8 3 -8 9 0 5 -9 10 -21 10 -11 0 -18 4 -15 8 3 5 -10 15 -29 22
-19 8 -35 17 -35 22 0 4 -7 8 -15 8 -9 0 -23 6 -31 13 -34 28 -40 32 -54 35
-8 2 -18 9 -22 15 -4 7 -8 8 -8 2 0 -5 -4 -5 -8 2 -4 6 -14 13 -22 15 -8 2
-23 11 -34 20 -11 10 -26 18 -33 18 -7 0 -13 5 -13 12 0 6 -3 9 -6 5 -3 -3
-13 1 -22 9 -16 13 -17 97 -16 1092 1 592 2 1084 4 1092 1 11 3 11 7 3 2 -7
11 -13 19 -13z"/>
</g>
</svg>
