<?xml version="1.0" encoding="UTF-8"?>
<svg version="1.1" xmlns="http://www.w3.org/2000/svg" width="282" height="296">
<path d="M0 0 C1.30640442 -0.00997513 2.61280884 -0.01995026 3.95880127 -0.03022766 C5.39459216 -0.03112333 6.83038322 -0.03178697 8.26617432 -0.03224182 C9.78776453 -0.03986867 11.30935091 -0.04829707 12.83093262 -0.0574646 C16.95509168 -0.07936609 21.07917662 -0.08820276 25.20338726 -0.09329104 C27.7834911 -0.0969401 30.3635757 -0.10318304 32.94367218 -0.11029243 C41.95482736 -0.13477288 50.96592509 -0.14783556 59.97711182 -0.15138245 C68.36029103 -0.1550155 76.74310364 -0.18489789 85.12617087 -0.22678703 C92.33659223 -0.26154605 99.54689242 -0.27693186 106.75739694 -0.27762848 C111.0580608 -0.27841946 115.35835106 -0.28707488 119.65892792 -0.31562614 C123.70731635 -0.34190307 127.75502399 -0.34395901 131.80345917 -0.3279705 C133.28283174 -0.32616355 134.76224434 -0.33277826 136.24153137 -0.34878922 C145.87694922 -0.44665531 153.98523672 0.25728849 161.32629013 7.02962589 C169.03237437 15.16212799 168.83647574 23.80068622 168.71636963 34.39524841 C168.71334839 35.68564026 168.71032715 36.9760321 168.70721436 38.30552673 C168.69156491 43.10765119 168.64968106 47.90966129 168.61090088 52.71165466 C168.54902588 63.45727966 168.48715088 74.20290466 168.42340088 85.27415466 C128.16340088 85.27415466 87.90340088 85.27415466 46.42340088 85.27415466 C46.42340088 73.39415466 46.42340088 61.51415466 46.42340088 49.27415466 C43.12340088 49.27415466 39.82340088 49.27415466 36.42340088 49.27415466 C36.42340088 68.08415466 36.42340088 86.89415466 36.42340088 106.27415466 C39.72340088 106.27415466 43.02340088 106.27415466 46.42340088 106.27415466 C46.40277588 104.80977966 46.38215088 103.34540466 46.36090088 101.83665466 C46.33948081 100.31582948 46.35160124 98.79343504 46.42340088 97.27415466 C47.42340088 96.27415466 47.42340088 96.27415466 49.43615055 96.15110683 C50.32752437 96.15202863 51.21889818 96.15295042 52.13728333 96.15390015 C53.66651428 96.15183815 53.66651428 96.15183815 55.22663879 96.1497345 C56.35448288 96.15332977 57.48232697 96.15692505 58.64434814 96.16062927 C59.82467621 96.16048325 61.00500427 96.16033722 62.22109985 96.16018677 C65.46682196 96.16076571 68.71250143 96.1657948 71.958215 96.17276073 C75.3468312 96.17899504 78.73544816 96.17959812 82.12406921 96.18078613 C88.54495892 96.18389922 94.96583169 96.1921123 101.38671392 96.20213562 C108.69493912 96.21329746 116.00316512 96.21880739 123.31139672 96.22383106 C138.34874089 96.23429493 153.3860692 96.25189393 168.42340088 96.27415466 C168.54043432 112.66013088 168.62848653 129.0459706 168.68246174 145.43226433 C168.70819454 153.04148747 168.74324997 160.65045025 168.80059814 168.25950623 C168.85058497 174.89503415 168.88272767 181.53037342 168.89384335 188.16608441 C168.90033653 191.67661796 168.91549219 195.18661202 168.95205116 198.69697189 C168.99262429 202.62497986 168.99334053 206.55247004 168.99102783 210.48069763 C169.0179924 212.20808418 169.0179924 212.20808418 169.04550171 213.97036743 C168.99096224 222.55871607 166.93044314 229.05759519 161.39605713 235.71165466 C160.76570557 236.22727966 160.135354 236.74290466 159.48590088 237.27415466 C158.54424072 238.07852966 158.54424072 238.07852966 157.58355713 238.89915466 C152.89505149 241.88351992 148.32081919 242.52581844 142.84680176 242.54830933 C141.54039734 242.55828445 140.23399292 242.56825958 138.88800049 242.57853699 C137.4522096 242.57943266 136.01641854 242.5800963 134.58062744 242.58055115 C133.05903723 242.58817799 131.53745085 242.5966064 130.01586914 242.60577393 C125.89171008 242.62767541 121.76762514 242.63651208 117.6434145 242.64160037 C115.06331065 242.64524942 112.48322606 242.65149237 109.90312958 242.65860176 C100.8919744 242.68308221 91.88087666 242.69614489 82.86968994 242.69969177 C74.48651073 242.70332483 66.10369811 242.73320721 57.72063088 242.77509636 C50.51020953 242.80985537 43.29990934 242.82524119 36.08940482 242.82593781 C31.78874096 242.82672878 27.4884507 242.83538421 23.18787384 242.86393547 C19.1394854 242.8902124 15.09177777 242.89226834 11.04334259 242.87627983 C9.56397002 242.87447288 8.08455742 242.88108758 6.60527039 242.89709854 C-3.03014746 242.99496464 -11.13843497 242.29102083 -18.47948837 235.51868343 C-24.39240508 229.27857418 -26.03130446 222.83496812 -25.91717529 214.4931488 C-25.91761337 213.64356598 -25.91805145 212.79398315 -25.91850281 211.9186554 C-25.9164256 209.13196717 -25.89314535 206.34589304 -25.86956787 203.55931091 C-25.86396811 201.61875741 -25.85969981 199.67819965 -25.85670471 197.73764038 C-25.84528586 192.64617572 -25.8158442 187.55497043 -25.78259277 182.46360779 C-25.75182799 177.26182056 -25.7381857 172.05999115 -25.7230835 166.85813904 C-25.69097157 156.66334567 -25.63822786 146.46881238 -25.57659912 136.27415466 C-36.13659912 136.27415466 -46.69659912 136.27415466 -57.57659912 136.27415466 C-57.57659912 126.37415466 -57.57659912 116.47415466 -57.57659912 106.27415466 C-47.01659912 106.27415466 -36.45659912 106.27415466 -25.57659912 106.27415466 C-25.57659912 102.97415466 -25.57659912 99.67415466 -25.57659912 96.27415466 C-15.01659912 96.27415466 -4.45659912 96.27415466 6.42340088 96.27415466 C6.42340088 92.64415466 6.42340088 89.01415466 6.42340088 85.27415466 C-4.13659912 85.27415466 -14.69659912 85.27415466 -25.57659912 85.27415466 C-25.77714317 69.20389172 -25.77714317 69.20389172 -25.82073975 62.30149841 C-25.85051576 57.60963823 -25.8855634 52.91827048 -25.95379639 48.22679138 C-26.00851897 44.44011959 -26.03810311 40.65397653 -26.05098534 36.86693954 C-26.0601538 35.42933718 -26.07805634 33.99176053 -26.1052494 32.55438614 C-26.28787674 22.49179037 -25.14949055 14.77219754 -18.54925537 6.83665466 C-17.91890381 6.32102966 -17.28855225 5.80540466 -16.63909912 5.27415466 C-16.01132568 4.73790466 -15.38355225 4.20165466 -14.73675537 3.64915466 C-10.04824973 0.66478941 -5.47401743 0.02249089 0 0 Z M9.42340088 44.27415466 C9.09340088 65.39415466 8.76340088 86.51415466 8.42340088 108.27415466 C-12.69659912 108.60415466 -33.81659912 108.93415466 -55.57659912 109.27415466 C-55.57659912 117.19415466 -55.57659912 125.11415466 -55.57659912 133.27415466 C-53.67337891 133.29921082 -51.77015869 133.32426697 -49.80926514 133.3500824 C-43.53473948 133.43383583 -37.26029027 133.52210744 -30.98587132 133.61349392 C-27.18012507 133.6687576 -23.3743712 133.72218295 -19.56854248 133.77146912 C-15.89860578 133.81906207 -12.22876521 133.87140276 -8.55894279 133.92709541 C-7.15587685 133.94754203 -5.75278452 133.96625123 -4.34967232 133.98322868 C-2.39082986 134.00722153 -0.43207211 134.03785666 1.52667236 134.0688324 C2.64363998 134.08437668 3.7606076 134.09992096 4.91142273 134.11593628 C7.42340088 134.27415466 7.42340088 134.27415466 8.42340088 135.27415466 C8.54703385 137.23703232 8.60135527 139.20430625 8.62872314 141.17088318 C8.65864098 143.06273094 8.65864098 143.06273094 8.68916321 144.99279785 C8.70614883 146.37955093 8.72302759 147.76630532 8.73980713 149.15306091 C8.76037014 150.56411356 8.78136643 151.97515996 8.80278015 153.38619995 C8.85806843 157.10649057 8.90744774 160.82683739 8.95562744 164.54722595 C9.0057933 168.34101891 9.06150496 172.1347299 9.11676025 175.92845154 C9.22442441 183.37695188 9.3253386 190.82552059 9.42340088 198.27415466 C17.34340088 198.27415466 25.26340088 198.27415466 33.42340088 198.27415466 C33.75340088 177.15415466 34.08340088 156.03415466 34.42340088 134.27415466 C55.54340088 133.94415466 76.66340088 133.61415466 98.42340088 133.27415466 C98.42340088 125.35415466 98.42340088 117.43415466 98.42340088 109.27415466 C66.74340088 108.77915466 66.74340088 108.77915466 34.42340088 108.27415466 C34.09340088 87.15415466 33.76340088 66.03415466 33.42340088 44.27415466 C25.50340088 44.27415466 17.58340088 44.27415466 9.42340088 44.27415466 Z M36.42340088 136.27415466 C36.42340088 143.20415466 36.42340088 150.13415466 36.42340088 157.27415466 C39.72340088 157.27415466 43.02340088 157.27415466 46.42340088 157.27415466 C46.42340088 150.34415466 46.42340088 143.41415466 46.42340088 136.27415466 C43.12340088 136.27415466 39.82340088 136.27415466 36.42340088 136.27415466 Z " fill="#010202" transform="translate(69.57659912109375,26.725845336914063)"/>
</svg>
