<svg xmlns="http://www.w3.org/2000/svg" width="414" height="414" viewBox="0 0 414 414" version="1.1"><path d="" stroke="none" fill="#080404" fill-rule="evenodd"/><path d="M 199.844 6.255 C 194.979 10.367, 194.532 12.333, 194 31.919 L 193.500 50.338 186 43.340 C 160.284 19.345, 157.522 17.001, 154.242 16.386 C 148.164 15.245, 143.799 16.613, 139.750 20.927 C 136.372 24.526, 136 25.459, 136 30.326 C 136 34.353, 136.561 36.465, 138.200 38.615 C 140.062 41.056, 159.371 62.496, 161.062 64 C 161.372 64.275, 168.265 71.813, 176.381 80.750 C 184.496 89.688, 191.446 97, 191.825 97 C 192.580 97, 192.345 131.043, 191.393 159.679 L 190.789 177.859 184.144 174.276 C 180.490 172.305, 167.934 165.364, 156.242 158.852 C 144.550 152.339, 132.625 145.797, 129.742 144.313 C 116.701 137.601, 117.768 139.063, 112.002 120 C 110.255 114.225, 107.998 107.025, 106.987 104 C 105.976 100.975, 102.646 90.603, 99.588 80.950 C 92.920 59.903, 91.433 57.868, 82.251 57.225 C 77.454 56.890, 75.934 57.211, 73.087 59.161 C 71.210 60.448, 68.772 63.248, 67.669 65.385 C 65.895 68.823, 65.789 69.916, 66.753 74.885 C 67.960 81.114, 72.415 101.273, 73.960 107.500 C 75.579 114.026, 75.393 114.187, 69.750 111.156 C 39.733 95.034, 39.961 95.106, 32.904 99.561 C 27.986 102.665, 25.568 107.743, 26.324 113.378 C 27.269 120.426, 29.358 122.161, 55.385 137.528 L 63.270 142.184 56.385 144.496 C 52.598 145.767, 42.235 149.111, 33.356 151.927 C 16.102 157.397, 13.177 158.999, 10.627 164.374 C 8.378 169.114, 8.589 172.627, 11.410 177.412 C 16.402 185.879, 21.296 186.508, 43 181.470 C 49.325 180.002, 58.325 177.978, 63 176.974 C 87.193 171.776, 95.220 169.902, 99.477 168.456 C 103.843 166.974, 104.328 166.987, 106.826 168.657 C 110.343 171.008, 129.637 182.785, 138.500 187.990 C 142.350 190.251, 147.875 193.541, 150.777 195.301 C 185.448 216.322, 194.410 221.722, 196.752 222.999 C 198.583 223.998, 202.337 224.498, 208 224.498 L 216.500 224.498 231.239 215.499 C 239.345 210.550, 249.364 204.475, 253.503 202 C 265.590 194.773, 283.319 184.036, 300.261 173.684 C 313.535 165.573, 316.376 164.200, 318.261 164.984 C 319.492 165.496, 325 166.829, 330.500 167.945 C 336 169.061, 345.675 171.138, 352 172.561 C 365.470 175.591, 379.314 178.640, 386.864 180.239 C 391.777 181.280, 392.597 181.180, 396.620 179.045 C 406.072 174.031, 407.943 163.203, 400.726 155.277 C 398.871 153.240, 380.628 146.663, 362.621 141.541 C 355.765 139.591, 354.880 140.658, 371.965 130.278 C 385.608 121.990, 389.333 117.978, 389.333 111.573 C 389.333 103.997, 382.352 97, 374.793 97 C 372.523 97, 366.695 99.640, 356.201 105.422 C 346.187 110.939, 341.095 113.267, 341.438 112.172 C 341.928 110.606, 342.813 106.543, 348.091 81.639 C 350.574 69.925, 350.118 66.191, 345.604 61.265 C 342.777 58.180, 341.578 57.630, 336.828 57.236 C 327.367 56.451, 322.641 60.460, 319.425 72 C 318.582 75.025, 317.284 79.300, 316.541 81.500 C 315.798 83.700, 312.856 92.925, 310.004 102 C 307.152 111.075, 303.686 122.100, 302.301 126.500 C 300.916 130.900, 299.648 134.992, 299.483 135.593 C 299.198 136.631, 289.957 141.987, 269.205 153.139 C 266.067 154.825, 255.481 160.703, 245.681 166.200 C 235.881 171.698, 227.598 175.932, 227.276 175.609 C 226.954 175.287, 226.367 157.580, 225.973 136.262 C 225.326 101.235, 225.413 97.348, 226.878 95.923 C 227.770 95.056, 233.225 89.232, 239 82.982 C 244.775 76.731, 253.212 67.609, 257.748 62.710 C 269.350 50.182, 278.367 39.926, 280.327 37.027 C 283.916 31.723, 281.014 22.026, 274.663 18.101 C 270.878 15.761, 264.156 15.312, 260.684 17.167 C 259.483 17.808, 250.807 25.424, 241.405 34.090 L 224.311 49.847 223.669 31.400 C 222.982 11.670, 222.288 8.729, 217.586 5.648 C 213.616 3.047, 203.219 3.403, 199.844 6.255 M 60.438 254.318 C 47.495 267.673, 43.227 273.895, 39.340 285.072 C 32.795 303.894, 36.356 322.991, 48.776 335.675 C 66.775 354.057, 93.750 349.026, 106.009 325 C 113.342 310.628, 112.476 292.718, 103.622 275.617 C 100.377 269.350, 96.870 264.926, 87.143 254.828 C 80.347 247.773, 74.244 242, 73.581 242 C 72.918 242, 67.004 247.543, 60.438 254.318 M 333.345 253.250 C 321.530 265.201, 316.606 271.580, 313.125 279.450 C 306.305 294.867, 306.240 313.534, 312.965 325.500 C 326.070 348.821, 351.268 353.807, 369.133 336.613 C 377.199 328.850, 382.947 315.405, 382.985 304.208 C 383.031 290.864, 376.486 274.391, 366.478 262.662 C 360.760 255.960, 346.264 242, 345.023 242 C 344.717 242, 339.462 247.063, 333.345 253.250 M 200.927 313.333 C 184.103 329.470, 176.646 341.045, 173.530 355.858 C 171.656 364.765, 171.636 368.619, 173.419 377.028 C 177.385 395.735, 193.161 410, 209.885 410 C 227.975 410, 243.803 394.331, 247.047 373.212 C 248.999 360.499, 244.161 343.159, 235.370 331.358 C 230.926 325.393, 213.750 307.550, 210.971 306.012 C 209.831 305.382, 207.275 307.245, 200.927 313.333" stroke="none" fill="#040404" fill-rule="evenodd"/></svg>