<svg xmlns="http://www.w3.org/2000/svg" width="414" height="414" viewBox="0 0 414 414" version="1.1"><path d="" stroke="none" fill="#080404" fill-rule="evenodd"/><path d="M 203.500 0.908 C 202.400 1.379, 200.600 2.763, 199.500 3.984 C 197.684 6, 197.471 7.865, 197.185 24.271 L 196.870 42.338 185.419 30.919 C 174.164 19.696, 173.889 19.500, 169.397 19.500 C 163.425 19.500, 160 23.052, 160 29.246 C 160 33.273, 160.481 33.864, 178.500 51.974 L 197 70.567 197 114.264 L 197 157.962 194.250 158.620 C 192.738 158.983, 188.592 160.581, 185.039 162.172 L 178.578 165.066 146.338 132.838 L 114.098 100.610 113.799 76.826 L 113.500 53.042 110.750 50.294 C 106.658 46.204, 100.807 46.413, 96.898 50.789 C 94.011 54.019, 94 54.083, 94 67.210 L 94 80.389 82.518 69.061 L 71.035 57.732 66.871 58.290 C 61.591 58.999, 58.999 61.591, 58.290 66.871 L 57.732 71.035 69.061 82.518 L 80.389 94 67.210 94 C 54.083 94, 54.019 94.011, 50.789 96.898 C 46.413 100.807, 46.204 106.658, 50.294 110.750 L 53.042 113.500 76.826 113.799 L 100.610 114.098 132.859 146.359 L 165.108 178.620 162.650 183.560 C 161.297 186.277, 159.627 190.412, 158.937 192.750 L 157.683 197 114.125 197 L 70.567 197 51.974 178.500 C 33.864 160.481, 33.273 160, 29.246 160 C 23.052 160, 19.500 163.425, 19.500 169.397 C 19.500 173.889, 19.696 174.164, 30.919 185.419 L 42.338 196.870 24.189 197.185 L 6.040 197.500 3.293 200.250 C -0.541 204.087, -0.541 209.913, 3.293 213.750 L 6.040 216.500 24.189 216.815 L 42.338 217.130 30.919 228.581 C 19.696 239.836, 19.500 240.111, 19.500 244.603 C 19.500 250.575, 23.052 254, 29.246 254 C 33.273 254, 33.864 253.519, 51.974 235.500 L 70.567 217 114.264 217 L 157.962 217 158.620 219.750 C 158.983 221.263, 160.581 225.408, 162.172 228.961 L 165.066 235.422 132.834 267.666 L 100.601 299.910 73.717 300.205 L 46.833 300.500 43.917 303.766 C 40.702 307.365, 40.258 310.665, 42.425 314.855 C 44.736 319.324, 47.666 320, 64.742 320 L 80.389 320 69.195 331.346 C 57.262 343.441, 56.440 345.082, 59.425 350.855 C 60.209 352.371, 62.030 354.148, 63.472 354.805 C 69.159 357.396, 70.713 356.586, 82.654 344.805 L 94 333.611 94 349.258 C 94 366.334, 94.676 369.264, 99.145 371.575 C 103.335 373.742, 106.635 373.298, 110.234 370.083 L 113.500 367.167 113.795 340.283 L 114.090 313.399 146.355 281.145 L 178.620 248.892 183.560 251.350 C 186.277 252.703, 190.412 254.373, 192.750 255.063 L 197 256.317 197 300.418 L 197 344.520 178.500 363 C 160.925 380.556, 160 381.672, 160 385.317 C 160 390.629, 164.325 395, 169.580 395 C 173.004 395, 174.295 394.031, 185.093 383.367 L 196.871 371.734 197.185 389.847 L 197.500 407.960 200.250 410.707 C 204.087 414.541, 209.913 414.541, 213.750 410.707 L 216.500 407.960 216.815 389.811 L 217.130 371.662 228.581 383.081 C 239.836 394.304, 240.111 394.500, 244.603 394.500 C 250.575 394.500, 254 390.948, 254 384.754 C 254 380.727, 253.519 380.136, 235.500 362.026 L 217 343.433 217 299.797 L 217 256.161 222.250 254.443 C 225.137 253.499, 229.254 251.844, 231.398 250.767 L 235.297 248.808 267.599 281.099 L 299.902 313.390 300.201 337.174 L 300.500 360.958 303.250 363.706 C 307.342 367.796, 313.193 367.587, 317.102 363.211 C 319.989 359.981, 320 359.917, 320 346.790 L 320 333.611 331.346 344.805 C 343.287 356.586, 344.841 357.396, 350.528 354.805 C 351.970 354.148, 353.791 352.371, 354.575 350.855 C 357.560 345.082, 356.738 343.441, 344.805 331.346 L 333.611 320 346.790 320 C 359.917 320, 359.981 319.989, 363.211 317.102 C 367.587 313.193, 367.796 307.342, 363.706 303.250 L 360.958 300.500 337.174 300.201 L 313.390 299.902 281.102 267.602 L 248.813 235.302 251.294 230.401 C 252.658 227.705, 254.347 223.588, 255.046 221.250 L 256.317 217 300.375 217 L 344.433 217 363.026 235.500 C 380.550 252.935, 381.837 254, 385.387 254 C 390.626 254, 395 249.641, 395 244.420 C 395 240.996, 394.031 239.705, 383.367 228.907 L 371.734 217.129 389.765 216.815 C 405.853 216.534, 408.023 216.294, 409.905 214.588 C 413.392 211.429, 416.942 202.682, 414 204.500 C 413.450 204.840, 413 204.495, 413 203.733 C 413 202.972, 411.840 201.258, 410.422 199.924 C 407.920 197.571, 407.316 197.491, 389.753 197.185 L 371.662 196.870 383.081 185.419 C 394.304 174.164, 394.500 173.889, 394.500 169.397 C 394.500 163.425, 390.948 160, 384.754 160 C 380.727 160, 380.136 160.481, 362.026 178.500 L 343.433 197 299.797 197 L 256.161 197 254.443 191.750 C 253.499 188.863, 251.844 184.746, 250.767 182.602 L 248.808 178.703 281.099 146.401 L 313.390 114.098 337.174 113.799 L 360.958 113.500 363.706 110.750 C 367.796 106.658, 367.587 100.807, 363.211 96.898 C 359.981 94.011, 359.917 94, 346.790 94 L 333.611 94 344.805 82.654 C 356.738 70.559, 357.560 68.918, 354.575 63.145 C 353.791 61.629, 351.970 59.852, 350.528 59.195 C 344.841 56.604, 343.287 57.414, 331.346 69.195 L 320 80.389 320 67.210 C 320 54.083, 319.989 54.019, 317.102 50.789 C 313.193 46.413, 307.342 46.204, 303.250 50.294 L 300.500 53.042 300.201 76.826 L 299.902 100.610 267.641 132.859 L 235.380 165.108 230.440 162.650 C 227.723 161.297, 223.588 159.627, 221.250 158.937 L 217 157.683 217 114.125 L 217 70.567 235.500 51.974 C 253.519 33.864, 254 33.273, 254 29.246 C 254 23.052, 250.575 19.500, 244.603 19.500 C 240.111 19.500, 239.836 19.696, 228.581 30.919 L 217.130 42.338 216.815 24.189 C 216.505 6.357, 216.456 5.997, 214 3.544 C 211.222 0.771, 206.556 -0.401, 203.500 0.908 M 194.398 179.395 C 183.239 184.591, 177.020 194.471, 177.020 207 C 177.020 219.688, 183.293 229.498, 194.766 234.750 C 199.523 236.928, 201.225 237.184, 208.352 236.793 C 217.935 236.267, 222.512 234.245, 228.641 227.833 C 234.702 221.492, 236.286 217.708, 236.796 208.352 C 237.184 201.228, 236.927 199.521, 234.750 194.766 C 229.498 183.293, 219.688 177.020, 207 177.020 C 201.203 177.020, 198.341 177.559, 194.398 179.395" stroke="none" fill="#040404" fill-rule="evenodd"/></svg>