<svg xmlns="http://www.w3.org/2000/svg" viewBox="0 0 32 32"><g id="open_box" data-name="open box"><path d="M25.49,13.87h0a.83.83,0,0,0,.21-.16h0l4-4A1,1,0,0,0,30,8.86a1,1,0,0,0-.5-.73l-9-5a1,1,0,0,0-1.2.16L16,6.59l-3.29-3.3a1,1,0,0,0-1.2-.16l-9,5a1,1,0,0,0-.5.73,1,1,0,0,0,.28.85L6,13.41V24a1,1,0,0,0,.51.87l9,5h0l.14.06.1,0a1.06,1.06,0,0,0,.5,0l.1,0,.14-.06h0l9-5A1,1,0,0,0,26,24V17a1,1,0,0,0-2,0v6.41L17,27.3V18.59ZM20.17,5.24l7.19,4-2.53,2.53-7.19-4Zm-8.34,0,2.53,2.53-7.19,4L4.64,9.23ZM8,13.59l8-4.45L22.94,13,16,16.86l-4.51-2.51a1,1,0,0,0-1.36.39,1,1,0,0,0,.38,1.36L15,18.59V27.3L8,23.41Z"/></g></svg>