<svg xmlns="http://www.w3.org/2000/svg" width="2142" height="2142" viewBox="0 0 2142 2142" version="1.1"><path d="M 30.146 1308.750 C 31.207 1313.563, 34.505 1326.950, 37.475 1338.500 C 105.971 1604.903, 277.124 1836.225, 513 1981.198 C 664.716 2074.445, 836.006 2127.444, 1016.500 2136.985 C 1040.945 2138.278, 1101.055 2138.278, 1125.500 2136.985 C 1388.694 2123.072, 1631.847 2016.294, 1818.867 1832.500 C 1937.644 1715.772, 2025.921 1576.268, 2080.212 1419.500 C 2091.685 1386.371, 2105.070 1339.520, 2111.854 1308.750 L 2113.783 1300 2071.320 1300 C 2025.962 1300, 2026 1299.996, 2026 1304.870 C 2026 1305.976, 2025.550 1307.160, 2025 1307.500 C 2024.450 1307.840, 2024 1309.190, 2024 1310.500 C 2024 1311.810, 2023.550 1313.160, 2023 1313.500 C 2022.450 1313.840, 2022 1314.991, 2022 1316.059 C 2022 1317.127, 2021.550 1318, 2021 1318 C 2020.450 1318, 2020 1319.098, 2020 1320.441 C 2020 1321.784, 2019.550 1323.160, 2019 1323.500 C 2018.450 1323.840, 2018 1324.991, 2018 1326.059 C 2018 1327.127, 2017.550 1328, 2017 1328 C 2016.450 1328, 2016 1329.098, 2016 1330.441 C 2016 1331.784, 2015.550 1333.160, 2015 1333.500 C 2014.450 1333.840, 2014 1334.991, 2014 1336.059 C 2014 1337.127, 2013.550 1338, 2013 1338 C 2012.450 1338, 2012 1339.098, 2012 1340.441 C 2012 1341.784, 2011.550 1343.160, 2011 1343.500 C 2010.450 1343.840, 2010 1345.190, 2010 1346.500 C 2010 1347.810, 2009.550 1349.160, 2009 1349.500 C 2008.450 1349.840, 2008 1350.991, 2008 1352.059 C 2008 1353.127, 2007.550 1354, 2007 1354 C 2006.450 1354, 2006 1355.098, 2006 1356.441 C 2006 1357.784, 2005.550 1359.160, 2005 1359.500 C 2004.450 1359.840, 2004 1360.991, 2004 1362.059 C 2004 1363.127, 2003.550 1364, 2003 1364 C 2002.450 1364, 2002 1365.098, 2002 1366.441 C 2002 1367.784, 2001.550 1369.160, 2001 1369.500 C 2000.450 1369.840, 2000 1370.785, 2000 1371.601 C 2000 1372.416, 1999.100 1374.050, 1998 1375.230 C 1996.900 1376.411, 1996 1377.967, 1996 1378.689 C 1996 1379.410, 1995.550 1380, 1995 1380 C 1994.450 1380, 1994 1380.900, 1994 1382 C 1994 1383.100, 1993.660 1384, 1993.244 1384 C 1992.828 1384, 1991.925 1385.237, 1991.237 1386.750 C 1987.005 1396.052, 1963.312 1421.987, 1949.368 1432.581 C 1945.445 1435.562, 1941.914 1438, 1941.522 1438 C 1941.130 1438, 1939.457 1438.963, 1937.804 1440.139 C 1933.887 1442.929, 1912.013 1454, 1910.419 1454 C 1909.743 1454, 1907.459 1454.876, 1905.345 1455.948 C 1900.247 1458.530, 1881.591 1463, 1875.912 1463 C 1873.430 1463, 1870.860 1463.540, 1870.200 1464.200 C 1869.540 1464.860, 1868.992 1467.897, 1868.983 1470.950 C 1868.957 1479.425, 1864.722 1494.326, 1861.604 1496.914 C 1860.722 1497.646, 1860 1498.796, 1860 1499.470 C 1860 1500.953, 1849.122 1512, 1847.662 1512 C 1847.094 1512, 1845.700 1512.859, 1844.564 1513.909 C 1843.429 1514.959, 1839.003 1516.984, 1834.729 1518.409 L 1826.958 1521 1078.229 1520.988 C 432.419 1520.978, 328.762 1520.780, 324.131 1519.547 C 309.915 1515.764, 297.791 1505.638, 291.339 1492.160 C 288.173 1485.549, 287.591 1483.199, 287.086 1475 L 286.500 1465.500 275 1465.246 C 268.675 1465.106, 262.600 1464.586, 261.500 1464.090 C 260.400 1463.595, 254.100 1461.935, 247.500 1460.401 C 240.900 1458.867, 234.024 1456.799, 232.220 1455.806 C 230.415 1454.813, 228.357 1454, 227.645 1454 C 226.003 1454, 204.199 1442.990, 200.196 1440.139 C 198.543 1438.963, 196.870 1438, 196.478 1438 C 194.537 1438, 180.262 1425.909, 170.304 1415.831 C 158.685 1404.072, 149.697 1392.749, 145.833 1385 C 144.599 1382.525, 142.834 1379.375, 141.912 1378 C 138.749 1373.287, 136 1367.939, 136 1366.500 C 136 1365.708, 135.100 1363.458, 134 1361.500 C 132.900 1359.542, 132 1357.292, 132 1356.500 C 132 1355.708, 131.100 1353.458, 130 1351.500 C 128.900 1349.542, 128 1347.079, 128 1346.029 C 128 1344.978, 127.550 1343.840, 127 1343.500 C 126.450 1343.160, 126 1342.022, 126 1340.971 C 126 1339.921, 125.100 1337.458, 124 1335.500 C 122.900 1333.542, 122 1331.292, 122 1330.500 C 122 1329.708, 121.100 1327.458, 120 1325.500 C 118.900 1323.542, 118 1321.292, 118 1320.500 C 118 1319.708, 117.100 1317.458, 116 1315.500 C 114.900 1313.542, 114 1311.079, 114 1310.029 C 114 1308.978, 113.550 1307.840, 113 1307.500 C 112.450 1307.160, 112 1305.874, 112 1304.641 C 112 1300.009, 111.919 1300, 68.909 1300 L 28.217 1300 30.146 1308.750" stroke="none" fill="#3f94f4" fill-rule="evenodd"/><path d="M 236.673 1248.750 C 268.118 1248.896, 319.868 1248.896, 351.673 1248.750 C 383.478 1248.603, 357.750 1248.483, 294.500 1248.483 C 231.250 1248.483, 205.228 1248.603, 236.673 1248.750 M 506.315 1248.749 C 516.664 1248.912, 533.314 1248.911, 543.315 1248.748 C 553.317 1248.585, 544.850 1248.452, 524.500 1248.453 C 504.150 1248.453, 495.967 1248.586, 506.315 1248.749 M 686.174 1248.750 C 712.945 1248.898, 757.045 1248.898, 784.174 1248.750 C 811.303 1248.602, 789.400 1248.481, 735.500 1248.481 C 681.600 1248.481, 659.403 1248.602, 686.174 1248.750 M 137.660 1370.698 C 138.011 1371.689, 139.055 1373.400, 139.980 1374.500 C 140.906 1375.600, 142.874 1379.041, 144.354 1382.147 C 145.835 1385.252, 147.711 1388.345, 148.523 1389.019 C 149.335 1389.693, 150 1390.781, 150 1391.435 C 150 1392.090, 151.350 1393.919, 153 1395.500 C 154.650 1397.081, 156 1398.858, 156 1399.449 C 156 1400.845, 187.189 1432, 188.587 1432 C 189.172 1432, 190.742 1433.164, 192.076 1434.586 C 193.409 1436.008, 196.385 1438.032, 198.689 1439.083 C 200.994 1440.135, 203.131 1441.404, 203.440 1441.903 C 203.749 1442.403, 208.389 1444.957, 213.751 1447.580 C 219.113 1450.202, 223.838 1452.521, 224.250 1452.733 C 224.662 1452.945, 225 1452.901, 225 1452.636 C 225 1452.370, 220.282 1449.838, 214.517 1447.008 C 208.751 1444.178, 203.774 1441.443, 203.456 1440.929 C 203.138 1440.415, 200.994 1439.135, 198.689 1438.083 C 196.385 1437.032, 193.409 1435.008, 192.076 1433.586 C 190.742 1432.164, 189.162 1431, 188.564 1431 C 187.167 1431, 157 1400.822, 157 1399.425 C 157 1398.847, 155.650 1397.081, 154 1395.500 C 152.350 1393.919, 151 1392.090, 151 1391.435 C 151 1390.781, 150.320 1389.680, 149.488 1388.990 C 148.656 1388.300, 146.637 1384.929, 145 1381.500 C 143.363 1378.071, 141.344 1374.700, 140.512 1374.010 C 139.680 1373.320, 139 1372.162, 139 1371.437 C 139 1370.711, 138.555 1369.843, 138.011 1369.507 C 137.424 1369.144, 137.281 1369.626, 137.660 1370.698 M 1987.079 1391.063 C 1987.036 1391.923, 1985.650 1393.919, 1984 1395.500 C 1982.350 1397.081, 1981 1398.858, 1981 1399.449 C 1981 1400.845, 1950.810 1431, 1949.413 1431 C 1948.827 1431, 1947.258 1432.164, 1945.924 1433.586 C 1944.591 1435.008, 1941.615 1437.032, 1939.311 1438.083 C 1937.006 1439.135, 1934.862 1440.415, 1934.544 1440.929 C 1934.226 1441.443, 1929.249 1444.178, 1923.483 1447.008 C 1917.718 1449.838, 1913 1452.370, 1913 1452.636 C 1913 1452.901, 1913.338 1452.945, 1913.750 1452.733 C 1914.162 1452.521, 1918.887 1450.202, 1924.249 1447.580 C 1929.611 1444.957, 1934.251 1442.403, 1934.560 1441.903 C 1934.869 1441.404, 1937.006 1440.135, 1939.311 1439.083 C 1941.615 1438.032, 1944.591 1436.008, 1945.924 1434.586 C 1947.258 1433.164, 1948.838 1432, 1949.436 1432 C 1950.763 1432, 1982 1400.859, 1982 1399.536 C 1982 1399.019, 1983.400 1397.150, 1985.112 1395.384 C 1986.824 1393.618, 1987.984 1391.572, 1987.691 1390.837 C 1987.298 1389.850, 1987.137 1389.909, 1987.079 1391.063 M 286.825 1473 C 287.004 1477.125, 287.566 1480.928, 288.075 1481.450 C 288.584 1481.973, 289 1483.123, 289 1484.007 C 289 1487.805, 296.215 1499.664, 302.208 1505.715 C 308.864 1512.435, 320.225 1519, 325.200 1519 C 326.675 1519, 328.160 1519.450, 328.500 1520 C 329.358 1521.388, 1826.642 1521.388, 1827.500 1520 C 1827.840 1519.450, 1829.190 1519, 1830.500 1519 C 1831.810 1519, 1833.160 1518.550, 1833.500 1518 C 1833.840 1517.450, 1834.922 1517, 1835.905 1517 C 1838.186 1517, 1843.421 1514.403, 1845.017 1512.479 C 1845.692 1511.666, 1846.768 1511, 1847.407 1511 C 1848.873 1511, 1859 1500.816, 1859 1499.341 C 1859 1498.738, 1859.666 1497.692, 1860.479 1497.017 C 1862.403 1495.421, 1865 1490.186, 1865 1487.905 C 1865 1486.922, 1865.450 1485.840, 1866 1485.500 C 1866.550 1485.160, 1867 1483.360, 1867 1481.500 C 1867 1479.640, 1867.450 1477.840, 1868 1477.500 C 1868.550 1477.160, 1869 1474.321, 1869 1471.191 L 1869 1465.500 1077.750 1465.500 L 286.500 1465.500 286.825 1473" stroke="none" fill="#bababa" fill-rule="evenodd"/><path d="M 130.518 1249.971 C 130.168 1250.537, 129.078 1251, 128.095 1251 C 122.980 1251, 111.696 1261.113, 107.448 1269.504 C 104.894 1274.548, 104.014 1284.272, 106 1285.500 C 106.550 1285.840, 107 1287.190, 107 1288.500 C 107 1289.810, 107.450 1291.160, 108 1291.500 C 108.550 1291.840, 109 1292.978, 109 1294.029 C 109 1295.079, 109.900 1297.542, 111 1299.500 C 112.100 1301.458, 113 1303.921, 113 1304.971 C 113 1306.022, 113.450 1307.160, 114 1307.500 C 114.550 1307.840, 115 1308.978, 115 1310.029 C 115 1311.079, 115.900 1313.542, 117 1315.500 C 118.100 1317.458, 119 1319.708, 119 1320.500 C 119 1321.292, 119.900 1323.542, 121 1325.500 C 122.100 1327.458, 123 1329.708, 123 1330.500 C 123 1331.292, 123.900 1333.542, 125 1335.500 C 126.100 1337.458, 127 1339.921, 127 1340.971 C 127 1342.022, 127.450 1343.160, 128 1343.500 C 128.550 1343.840, 129 1344.978, 129 1346.029 C 129 1347.079, 129.900 1349.542, 131 1351.500 C 132.100 1353.458, 133 1355.708, 133 1356.500 C 133 1357.292, 133.900 1359.542, 135 1361.500 C 136.100 1363.458, 137 1365.653, 137 1366.377 C 137 1368.050, 139.837 1373.781, 141.031 1374.519 C 141.528 1374.826, 143.294 1377.926, 144.955 1381.406 C 146.616 1384.887, 148.656 1388.300, 149.488 1388.990 C 150.320 1389.680, 151 1390.781, 151 1391.435 C 151 1392.090, 152.350 1393.919, 154 1395.500 C 155.650 1397.081, 157 1398.858, 157 1399.449 C 157 1400.845, 187.190 1431, 188.587 1431 C 189.173 1431, 190.736 1432.154, 192.061 1433.565 C 193.386 1434.975, 196.052 1436.851, 197.985 1437.732 C 199.918 1438.614, 202.259 1439.979, 203.188 1440.766 C 205.458 1442.691, 226.099 1453, 227.683 1453 C 228.374 1453, 230.542 1453.900, 232.500 1455 C 234.458 1456.100, 236.921 1457, 237.971 1457 C 239.022 1457, 240.160 1457.450, 240.500 1458 C 240.840 1458.550, 242.640 1459, 244.500 1459 C 246.360 1459, 248.160 1459.450, 248.500 1460 C 248.840 1460.550, 250.640 1461, 252.500 1461 C 254.360 1461, 256.118 1461.383, 256.407 1461.850 C 256.696 1462.318, 261.110 1463.330, 266.216 1464.100 C 279.297 1466.072, 1868.093 1466.221, 1868.750 1464.250 C 1869.020 1463.440, 1871.227 1463, 1875.024 1463 C 1878.246 1463, 1881.160 1462.550, 1881.500 1462 C 1881.840 1461.450, 1883.640 1461, 1885.500 1461 C 1887.360 1461, 1889.160 1460.550, 1889.500 1460 C 1889.840 1459.450, 1891.640 1459, 1893.500 1459 C 1895.360 1459, 1897.160 1458.550, 1897.500 1458 C 1897.840 1457.450, 1898.978 1457, 1900.029 1457 C 1901.079 1457, 1903.542 1456.100, 1905.500 1455 C 1907.458 1453.900, 1909.626 1453, 1910.317 1453 C 1911.901 1453, 1932.542 1442.691, 1934.812 1440.766 C 1935.741 1439.979, 1938.082 1438.614, 1940.015 1437.732 C 1941.948 1436.851, 1944.614 1434.975, 1945.939 1433.565 C 1947.264 1432.154, 1948.838 1431, 1949.436 1431 C 1950.763 1431, 1981 1400.858, 1981 1399.536 C 1981 1399.019, 1982.432 1397.118, 1984.182 1395.313 C 1985.932 1393.507, 1987.099 1391.766, 1986.777 1391.444 C 1986.454 1391.121, 1983.110 1392.602, 1979.345 1394.734 C 1961.661 1404.751, 1936.739 1412.712, 1916.211 1414.902 C 1902.192 1416.398, 329.590 1416.452, 316.541 1414.957 C 260.162 1408.499, 211.775 1375.276, 186.978 1326 C 184.625 1321.325, 176.790 1302.200, 169.566 1283.500 L 156.432 1249.500 143.793 1249.221 C 135.903 1249.046, 130.915 1249.328, 130.518 1249.971" stroke="none" fill="#d7e2dd" fill-rule="evenodd"/><path d="M 169.464 1283.250 C 176.745 1302.088, 184.627 1321.325, 186.979 1326 C 211.766 1375.270, 260.162 1408.499, 316.541 1414.957 C 329.590 1416.452, 1902.192 1416.398, 1916.211 1414.902 C 1936.746 1412.711, 1961.421 1404.828, 1979.500 1394.684 C 1988.751 1389.492, 1989.569 1388.689, 1993.073 1381.347 C 1994.719 1377.899, 1996.472 1374.826, 1996.969 1374.519 C 1998.163 1373.781, 2001 1368.050, 2001 1366.377 C 2001 1365.653, 2001.900 1363.458, 2003 1361.500 C 2004.100 1359.542, 2005 1357.292, 2005 1356.500 C 2005 1355.708, 2005.900 1353.458, 2007 1351.500 C 2008.100 1349.542, 2009 1347.079, 2009 1346.029 C 2009 1344.978, 2009.450 1343.840, 2010 1343.500 C 2010.550 1343.160, 2011 1342.022, 2011 1340.971 C 2011 1339.921, 2011.900 1337.458, 2013 1335.500 C 2014.100 1333.542, 2015 1331.292, 2015 1330.500 C 2015 1329.708, 2015.900 1327.458, 2017 1325.500 C 2018.100 1323.542, 2019 1321.292, 2019 1320.500 C 2019 1319.708, 2019.900 1317.458, 2021 1315.500 C 2022.100 1313.542, 2023 1311.079, 2023 1310.029 C 2023 1308.978, 2023.450 1307.840, 2024 1307.500 C 2024.550 1307.160, 2025 1306.022, 2025 1304.971 C 2025 1303.921, 2025.900 1301.458, 2027 1299.500 C 2028.100 1297.542, 2029 1295.079, 2029 1294.029 C 2029 1292.978, 2029.450 1291.840, 2030 1291.500 C 2030.550 1291.160, 2031 1289.810, 2031 1288.500 C 2031 1287.190, 2031.450 1285.840, 2032 1285.500 C 2033.986 1284.272, 2033.106 1274.548, 2030.552 1269.504 C 2026.304 1261.113, 2015.020 1251, 2009.905 1251 C 2008.922 1251, 2007.840 1250.550, 2007.500 1250 C 2007.089 1249.334, 1697.361 1249, 1081.554 1249 L 156.226 1249 169.464 1283.250" stroke="none" fill="#ffffff" fill-rule="evenodd"/><path d="M 1364.268 472.897 C 1359.884 474.524, 1353 478.490, 1353 479.390 C 1353 479.530, 1353.730 481.785, 1354.621 484.402 C 1355.784 487.816, 1356.121 491.467, 1355.813 497.330 C 1355.452 504.209, 1354.852 506.499, 1352.015 511.821 C 1348.236 518.911, 1342.243 524.707, 1335.216 528.067 C 1329.570 530.767, 1316.561 531.825, 1310.489 530.079 L 1306.500 528.932 1298.643 537.216 C 1289.866 546.470, 1286.672 551.911, 1285.135 560.228 C 1280.892 583.181, 1299.763 603.651, 1323.344 601.674 C 1337.075 600.523, 1338.048 599.701, 1384.387 550.099 C 1410.234 522.432, 1411.441 520.490, 1411.477 506.500 C 1411.497 498.836, 1411.109 496.666, 1408.865 491.880 C 1405.284 484.243, 1400.246 478.944, 1392.768 474.950 C 1387.326 472.044, 1385.380 471.560, 1378 471.279 C 1371.447 471.030, 1368.301 471.400, 1364.268 472.897 M 1522.844 532.336 C 1507.619 538.016, 1498.838 549.757, 1498.415 565 C 1497.511 597.584, 1475.242 641.935, 1440.923 679.500 C 1429.739 691.742, 1427.496 696.677, 1427.514 709 C 1427.526 717.341, 1427.867 719.194, 1430.308 724.190 C 1436.263 736.376, 1448.762 744.111, 1462.500 744.111 C 1474.430 744.111, 1479.745 741.504, 1491.028 730.116 C 1516.903 704.003, 1543.239 663.648, 1556.367 630 C 1564.879 608.183, 1569.584 584.144, 1568.816 566.395 C 1568.303 554.545, 1566.322 549.397, 1559.445 542.045 C 1552.574 534.699, 1545.727 531.675, 1535.081 531.286 C 1529.553 531.083, 1525.199 531.457, 1522.844 532.336 M 1664.137 675.159 C 1655.706 678.067, 1648.083 684.982, 1644.110 693.328 C 1641.441 698.936, 1641.119 700.754, 1640.596 713.206 C 1639.570 737.587, 1633.940 759.779, 1622.200 785.719 C 1609.409 813.978, 1588.585 844.707, 1564.950 870.198 C 1557.828 877.879, 1554.563 880.582, 1549.251 883.198 C 1543.229 886.163, 1541.617 886.510, 1533.456 886.593 C 1525.186 886.678, 1523.810 886.984, 1518.182 889.984 C 1510.678 893.983, 1504.723 900.225, 1501.160 907.825 C 1498.897 912.652, 1498.500 914.844, 1498.500 922.500 C 1498.500 930.347, 1498.861 932.235, 1501.318 937.239 C 1504.920 944.574, 1511.472 951.113, 1518.762 954.650 C 1523.729 957.059, 1525.726 957.437, 1533.620 957.466 C 1542.473 957.499, 1542.999 957.369, 1551.620 953.003 C 1562.019 947.736, 1585.871 932.070, 1597.991 922.545 C 1658.481 875.005, 1697.035 814.851, 1707.937 751 C 1710.728 734.655, 1712.181 710.813, 1710.879 702.727 C 1707.425 681.280, 1684.905 667.998, 1664.137 675.159 M 1737 887.879 C 1727.128 891.114, 1719.202 898.128, 1714.999 907.349 C 1712.423 912.998, 1712.151 914.764, 1711.658 929 C 1709.048 1004.331, 1675.926 1056.028, 1612.737 1083.396 C 1588.915 1093.714, 1565.918 1098.686, 1534 1100.418 C 1529.325 1100.672, 1523.566 1101.570, 1521.201 1102.413 C 1511.003 1106.050, 1501.496 1116.597, 1498.985 1127.061 C 1494.712 1144.874, 1505.564 1164.482, 1522.500 1169.547 C 1525.764 1170.524, 1517.212 1170.815, 1476 1171.133 C 1416.169 1171.595, 1407.916 1171.383, 1408.677 1169.400 C 1409.004 1168.548, 1408.567 1168, 1407.563 1168 C 1404.375 1168, 1386.363 1160.732, 1373 1154.054 C 1356.465 1145.790, 1343.518 1138.130, 1314.144 1119.232 C 1285.558 1100.841, 1277.913 1096.566, 1238 1076.652 C 1173.877 1044.658, 1086.177 1004.721, 995.263 966.114 L 976.027 957.945 910.059 957.986 C 837.552 958.030, 833.564 958.302, 814.010 964.533 C 786.827 973.195, 761.001 991.640, 743.347 1015 L 736.923 1023.500 742.781 1029.056 C 761.683 1046.981, 838.423 1072.581, 913.239 1085.920 C 963.795 1094.934, 1005.532 1098.545, 1076 1100.004 C 1121.757 1100.952, 1130.650 1101.437, 1158.500 1104.510 C 1209.115 1110.093, 1253.067 1122.395, 1286.227 1140.260 C 1321.276 1159.142, 1345.183 1186.629, 1352.748 1216.741 C 1354.816 1224.971, 1354.438 1224.371, 1356.772 1223.122 C 1358.456 1222.221, 1359.136 1222.729, 1361.847 1226.914 C 1365.527 1232.593, 1369.871 1236.112, 1377.765 1239.812 L 1383.500 1242.500 1439.345 1242.804 L 1495.190 1243.108 1494.576 1245.554 L 1493.962 1248 1530.481 1248 L 1567 1248 1567 1245.500 L 1567 1243 1637.500 1243 L 1708 1243 1708 1245.500 L 1708 1248 1743.875 1248 L 1779.750 1248 1780.366 1244.919 C 1781.691 1238.293, 1783.203 1213.099, 1782.713 1205.805 C 1781.601 1189.241, 1771.381 1176.582, 1755.764 1172.425 C 1751.441 1171.274, 1732.889 1170.993, 1652 1170.852 C 1597.825 1170.757, 1555.075 1170.514, 1557 1170.312 C 1636.973 1161.909, 1705.601 1123.199, 1744.060 1064.801 C 1768.416 1027.819, 1782.108 979.685, 1782.407 930 C 1782.491 915.944, 1782.282 913.960, 1780.161 908.703 C 1777.294 901.601, 1769.502 893.363, 1762.500 890.032 C 1758.623 888.188, 1755.478 887.587, 1748.500 887.357 C 1743.550 887.194, 1738.375 887.429, 1737 887.879" stroke="none" fill="#8e1600" fill-rule="evenodd"/><path d="M 904.741 459.691 C 903.516 460.011, 904.779 461.048, 908.891 463.103 C 913.143 465.228, 917.564 468.930, 924.651 476.300 C 1001.894 556.632, 1033.080 676.333, 1010.940 807.500 C 1006.806 831.989, 999.930 859.297, 995.916 867.164 C 990.654 877.479, 979.588 885.155, 968.047 886.495 C 956.561 887.828, 942.538 881.866, 936.030 872.883 C 928.263 862.160, 927.159 851.140, 932.085 833.500 C 947.260 779.158, 950.099 711.336, 939.430 658 C 929.199 606.852, 907.778 564.085, 874.065 527.500 C 862.983 515.474, 860.643 512.019, 858.436 504.427 C 853.966 489.051, 861.989 470.669, 876.279 463.548 L 881.393 461 877.757 461 C 875.757 461, 865.881 461.684, 855.810 462.520 C 701.361 475.341, 571.462 525.430, 466.464 612.649 C 449.653 626.614, 412.140 664.036, 398.950 680 C 351.275 737.702, 319.243 797.538, 301.520 862 C 298.203 874.065, 293 898.086, 293 901.333 C 293 902.281, 294.904 900.869, 297.750 897.811 C 315.875 878.338, 347.438 884.702, 357.331 909.824 C 358.647 913.167, 359.429 919.062, 360.074 930.500 C 362.915 980.911, 371.835 1023.205, 387.168 1058.978 C 395.578 1078.599, 404.464 1092.752, 417.743 1107.677 C 427.810 1118.991, 430.511 1125.005, 430.464 1136 C 430.431 1143.474, 430.041 1145.298, 427.231 1151.107 C 421.863 1162.202, 412.969 1168.902, 400.792 1171.022 C 384.803 1173.807, 374.576 1168.337, 357.448 1147.838 C 321.193 1104.451, 297.500 1036.893, 289.115 953 L 288.266 944.500 288.133 956 C 287.941 972.689, 289.725 1002.010, 292.088 1021 C 299.602 1081.399, 318.354 1134.173, 348.314 1179.232 C 361.820 1199.547, 373.034 1213.148, 391.611 1231.750 L 407.839 1248 446.905 1248 L 485.971 1248 484.110 1243.250 C 483.087 1240.638, 479.522 1230.175, 476.189 1220 C 426.058 1066.974, 415.777 879.876, 449.976 743 C 466.021 678.784, 497.581 617.729, 521.144 605.320 C 526.034 602.746, 527.414 602.500, 537 602.500 C 545.932 602.500, 548.196 602.843, 552.162 604.797 C 559.186 608.257, 565.255 614.137, 569.071 621.179 C 572.328 627.190, 572.495 627.990, 572.474 637.500 C 572.454 646.525, 572.174 648.036, 569.596 653 C 568.026 656.025, 565.211 660.203, 563.341 662.285 C 556.926 669.428, 547.414 685.607, 540.286 701.500 C 520.378 745.887, 508.666 799.801, 503.573 870.500 C 502.221 889.266, 501.867 934.045, 502.876 958.500 C 506.740 1052.143, 523.243 1138.931, 552.955 1221.874 C 555.141 1227.977, 558.338 1236.353, 560.058 1240.486 L 563.187 1248 599.083 1248 L 634.978 1248 630.991 1241.485 C 609.717 1206.728, 592.832 1152.917, 583.614 1090.500 C 575.284 1034.102, 572.453 983.232, 573.294 905.084 C 573.939 845.130, 575.703 815.023, 581.060 772.500 C 599.443 626.567, 647.142 547.635, 726.074 532.532 C 739.652 529.933, 765.547 530.346, 780 533.392 C 824.857 542.843, 855.040 571.234, 870.542 618.558 C 887.496 670.314, 884.951 748.243, 863.506 834 C 856.790 860.859, 854.525 867.278, 849.651 873.276 C 832.845 893.957, 800.510 889.831, 789.412 865.589 C 785.001 855.953, 785.152 850.746, 790.401 831.496 C 802.982 785.363, 808.817 747.968, 809.702 707.791 C 810.529 670.233, 807.673 649.766, 799.028 631.319 C 791.433 615.111, 780.252 606.508, 762.659 603.334 C 733.676 598.106, 708.969 612.437, 689.933 645.519 C 666.673 685.941, 652.428 749.632, 646.436 840 C 645.498 854.139, 644.732 883.019, 644.514 912.500 C 644.290 942.600, 644.467 957.643, 644.971 951.500 C 646.612 931.506, 649.847 922.140, 657.782 914.413 C 668.119 904.347, 685.543 901.645, 698.263 908.134 C 708.376 913.294, 716.351 924.724, 717.683 935.971 L 718.278 940.995 720.711 933.748 C 729.179 908.523, 745.738 891.920, 766.901 887.434 C 775.545 885.601, 782.360 885.644, 791.775 887.588 C 840.117 897.574, 1091.085 1003.142, 1231.500 1072.556 C 1271.519 1092.339, 1286.189 1100.442, 1311.049 1116.492 C 1359.547 1147.805, 1383.077 1160.223, 1408 1167.660 C 1416.479 1170.191, 1419.004 1170.494, 1431.500 1170.482 C 1444.946 1170.469, 1445.817 1170.341, 1453.500 1167.238 C 1475.093 1158.516, 1491.219 1138.128, 1496.686 1112.635 C 1497.886 1107.038, 1498.091 1101.619, 1497.636 1087.500 C 1496.914 1065.080, 1493.845 1031.362, 1491.379 1018.751 C 1490.851 1016.051, 1490.658 1016.171, 1480.671 1025.458 C 1442.103 1061.321, 1398.947 1085.227, 1354.471 1095.366 C 1329.642 1101.026, 1314.514 1101.443, 1304.885 1096.732 C 1290.452 1089.671, 1282.250 1073.832, 1285.086 1058.495 C 1286.491 1050.890, 1289.065 1045.914, 1294.716 1039.872 C 1301.196 1032.945, 1307.984 1030.035, 1320.376 1028.872 C 1359.126 1025.236, 1399.040 1004.714, 1436.141 969.352 C 1445.504 960.429, 1450.005 958.582, 1462.500 958.538 C 1470.810 958.509, 1473.218 958.867, 1476.750 960.661 C 1479.088 961.847, 1481 962.592, 1481 962.314 C 1481 960.498, 1473.213 930.078, 1469.078 915.745 C 1423.262 756.894, 1335.722 625.723, 1224.065 548.610 C 1186.664 522.780, 1146.172 502.350, 1102.992 487.523 C 1088.612 482.586, 1075.849 478.818, 1075.314 479.353 C 1075.135 479.532, 1079.422 483.341, 1084.840 487.818 C 1126.599 522.325, 1159.176 572.400, 1174.865 626.198 C 1193.347 689.575, 1192.999 763.786, 1173.861 840.309 C 1165.459 873.904, 1154.742 904.260, 1141.982 930.608 C 1134.431 946.201, 1131.077 950.078, 1121 954.859 C 1116.324 957.078, 1114.152 957.466, 1106.500 957.451 C 1098.718 957.435, 1096.723 957.056, 1091.762 954.650 C 1084.472 951.113, 1077.920 944.574, 1074.318 937.239 C 1071.861 932.235, 1071.500 930.347, 1071.500 922.500 C 1071.500 914.214, 1071.804 912.826, 1075.329 905 C 1115.455 815.924, 1127.740 726.383, 1109.542 655.644 C 1105.222 638.849, 1101.467 628.688, 1093.601 612.500 C 1077.336 579.030, 1053.800 551.964, 1020.311 528.221 C 1010.081 520.967, 1007.033 517.779, 1002.894 510 C 1000.828 506.117, 1000.500 504.129, 1000.500 495.500 C 1000.500 483.626, 1002.257 478.846, 1009.452 471.155 C 1015.087 465.130, 1016.642 465.734, 988.500 463.021 C 976.950 461.908, 963.096 460.548, 957.714 459.999 C 948.117 459.019, 908.203 458.788, 904.741 459.691 M 1452.286 532.392 C 1437.726 537.146, 1428.303 549.028, 1427.233 563.981 C 1426.046 580.582, 1436.061 595.116, 1452.136 600.119 C 1459.469 602.402, 1463.728 602.477, 1471.540 600.464 C 1482.491 597.641, 1491.498 589.420, 1495.603 578.500 C 1498.475 570.860, 1498.104 559.126, 1494.759 551.801 C 1491.443 544.542, 1484.470 537.562, 1477.216 534.241 C 1470.364 531.104, 1458.845 530.250, 1452.286 532.392 M 1310.500 674.399 C 1298.618 678.157, 1289.149 687.310, 1285.915 698.166 C 1285.369 700, 1284.487 709.600, 1283.956 719.500 C 1282.083 754.400, 1276.783 791.882, 1268.333 830 C 1257.340 879.587, 1242.577 923.190, 1221.913 967.106 C 1214.245 983.402, 1212.484 989.718, 1213.451 997.457 C 1216.158 1019.117, 1238.993 1034.123, 1259.121 1027.468 C 1273.742 1022.633, 1278.491 1016.421, 1293.500 982.500 C 1328.041 904.433, 1349.930 813.778, 1355.052 727.580 C 1356.309 706.426, 1355.950 701.929, 1352.375 694 C 1345.271 678.244, 1326.349 669.387, 1310.500 674.399 M 1596.734 674.027 C 1584.962 676.992, 1574.254 687.001, 1570.910 698.166 C 1570.361 700, 1569.500 706.675, 1568.998 713 C 1568.453 719.848, 1567.031 728.140, 1565.482 733.500 C 1557.290 761.831, 1537.290 794.768, 1510.705 823.709 C 1503.074 832.016, 1500.707 836.194, 1499.031 844.316 C 1495.886 859.558, 1503.878 875.864, 1517.858 882.730 C 1522.881 885.196, 1524.597 885.500, 1533.500 885.500 C 1546.987 885.500, 1551.708 883.221, 1563.168 871.176 C 1595.200 837.509, 1622.276 792.554, 1632.978 755.270 C 1639.217 733.532, 1641.674 709.272, 1638.680 698.970 C 1635.515 688.084, 1627.173 679.049, 1617 675.488 C 1611.303 673.494, 1601.622 672.796, 1596.734 674.027 M 1664.332 888.792 C 1653.652 892.605, 1645.104 901.595, 1641.818 912.472 C 1641.315 914.137, 1640.496 922.250, 1639.998 930.500 C 1638.869 949.194, 1635.823 961.740, 1629.080 975.477 C 1617.302 999.469, 1596.495 1015.842, 1566.999 1024.328 C 1559.076 1026.608, 1543.483 1028.991, 1536.460 1028.996 C 1528.985 1029.001, 1520.201 1031.216, 1515.250 1034.344 C 1490.750 1049.825, 1493.283 1085.079, 1519.775 1097.317 C 1523.841 1099.196, 1526.103 1099.480, 1536 1099.360 C 1549.746 1099.192, 1566.306 1096.905, 1582 1093.006 C 1597.037 1089.270, 1606.068 1086.008, 1619.552 1079.442 C 1667.975 1055.862, 1698.792 1014.419, 1707.997 960.500 C 1709.135 953.835, 1710.310 941.164, 1710.639 932 C 1711.191 916.641, 1711.081 915.102, 1709.045 909.753 C 1706.187 902.241, 1698.568 893.914, 1691.298 890.358 C 1683.900 886.738, 1672.018 886.048, 1664.332 888.792 M 646.630 1004.500 C 648.808 1046.532, 654.728 1091.049, 662.654 1125 C 674.285 1174.826, 692.333 1211.385, 713.820 1228.643 C 726.821 1239.085, 747.085 1244.985, 754.027 1240.349 C 760.574 1235.977, 770.159 1223.988, 773.895 1215.500 C 777.848 1206.519, 782.007 1189.653, 784.006 1174.500 C 785.758 1161.211, 786.831 1128.668, 785.546 1127.765 C 784.971 1127.361, 781.575 1126.058, 778 1124.869 C 749.733 1115.469, 718.351 1100.727, 704.500 1090.340 C 693.003 1081.718, 680.118 1068.591, 672.131 1057.364 C 660.865 1041.525, 649.865 1016.519, 646.994 1000.219 C 646.374 996.696, 646.281 997.781, 646.630 1004.500 M 856.830 1151.500 C 855.763 1188.108, 849.854 1219.184, 839.514 1242.564 L 837.099 1248.025 873.639 1247.762 L 910.179 1247.500 913.695 1237 C 917.834 1224.639, 922.234 1205.709, 924.386 1191 C 926.630 1175.668, 928.303 1158.369, 927.690 1156.834 C 927.397 1156.100, 927.122 1156.666, 927.079 1158.090 L 927 1160.680 912.750 1158.385 C 900.010 1156.334, 877.668 1152.084, 863.285 1148.976 L 858.071 1147.849 857.785 1138.175 C 857.613 1132.335, 857.234 1137.618, 856.830 1151.500 M 998.607 1172.112 C 998.313 1173.975, 997.586 1180.225, 996.993 1186 C 995.212 1203.322, 988.497 1238.404, 985.459 1246.261 C 984.814 1247.928, 987.020 1248.008, 1026.639 1247.761 L 1068.500 1247.500 1069.246 1240.748 C 1069.656 1237.034, 1070.360 1225.734, 1070.811 1215.635 C 1071.566 1198.719, 1071.839 1196.850, 1074.270 1191.881 C 1077.776 1184.714, 1084.185 1178.356, 1091.344 1174.939 L 1097.189 1172.151 1092.844 1171.617 C 1090.455 1171.323, 1072.075 1170.845, 1052 1170.554 C 1031.925 1170.263, 1011.820 1169.732, 1007.321 1169.374 L 999.142 1168.724 998.607 1172.112 M 1122.782 1175.121 C 1128.986 1178.192, 1135.737 1185.205, 1138.819 1191.780 C 1141.487 1197.472, 1141.500 1197.612, 1141.426 1220 C 1141.385 1232.375, 1141.039 1243.737, 1140.657 1245.250 L 1139.962 1248 1176.391 1248 L 1212.821 1248 1213.174 1223.250 C 1213.500 1200.376, 1213.692 1198.141, 1215.703 1193.760 L 1217.878 1189.021 1212.689 1187.583 C 1199.275 1183.867, 1195.799 1183.021, 1186 1181.093 C 1166.989 1177.352, 1133.150 1173.084, 1122 1173.021 L 1118.500 1173.002 1122.782 1175.121 M 1338.624 1189.281 C 1342.462 1200.859, 1338.651 1216.402, 1329.804 1225.249 C 1319.262 1235.790, 1301.950 1238.606, 1288.831 1231.914 L 1285.053 1229.987 1284.675 1215.743 C 1284.466 1207.909, 1284.470 1211.828, 1284.682 1224.451 C 1284.895 1237.074, 1285.204 1247.537, 1285.369 1247.703 C 1285.535 1247.868, 1332.432 1248.155, 1389.585 1248.340 C 1446.738 1248.526, 1462.353 1248.522, 1424.284 1248.332 C 1364.873 1248.035, 1355.145 1247.784, 1355.615 1246.561 C 1356.505 1244.240, 1354.228 1225.138, 1352.032 1216.500 C 1350.089 1208.861, 1341.988 1190.728, 1338.629 1186.500 C 1337.176 1184.672, 1337.176 1184.911, 1338.624 1189.281 M 1601.250 1248.750 C 1620.912 1248.901, 1653.088 1248.901, 1672.750 1248.750 C 1692.412 1248.598, 1676.325 1248.474, 1637 1248.474 C 1597.675 1248.474, 1581.588 1248.598, 1601.250 1248.750 M 1797.816 1248.749 C 1808.440 1248.911, 1825.540 1248.911, 1835.816 1248.748 C 1846.092 1248.586, 1837.400 1248.453, 1816.500 1248.454 C 1795.600 1248.454, 1787.192 1248.587, 1797.816 1248.749" stroke="none" fill="#d65128" fill-rule="evenodd"/><path d="M 996 460.023 C 980.325 460.311, 969.750 460.658, 972.500 460.793 C 977.745 461.052, 999.725 463.330, 1008.820 464.558 C 1013.260 465.157, 1014.997 464.888, 1019.320 462.928 C 1025.194 460.264, 1025.492 460.095, 1024.917 459.750 C 1024.688 459.613, 1011.675 459.736, 996 460.023 M 1045 459.315 C 1045 459.606, 1047.624 461.155, 1050.831 462.758 C 1054.039 464.361, 1060.183 468.275, 1064.485 471.456 C 1071.420 476.585, 1073.905 477.731, 1086.403 481.557 C 1130.198 494.967, 1169.112 512.790, 1207.904 537.208 C 1264.788 573.015, 1320.212 627.156, 1363.805 689.500 C 1394.859 733.911, 1423.962 788.941, 1445.514 844 C 1457.360 874.262, 1471.159 918.207, 1478.014 947.500 C 1481.253 961.339, 1481.344 961.552, 1486.001 966 C 1492.435 972.145, 1495.740 977.768, 1497.613 985.755 C 1499.558 994.044, 1498.346 1002.830, 1494.201 1010.492 L 1491.500 1015.484 1493.213 1027.492 C 1494.155 1034.096, 1495.560 1046.025, 1496.336 1054 C 1497.235 1063.250, 1497.792 1066.432, 1497.873 1062.788 C 1498.054 1054.658, 1501.248 1046.984, 1507.131 1040.548 C 1514.872 1032.077, 1520.138 1029.987, 1537.742 1028.395 C 1559.700 1026.411, 1572.664 1023.114, 1587.500 1015.743 C 1610.969 1004.083, 1625.598 987.239, 1633.977 962.228 C 1637.464 951.820, 1638.756 943.975, 1639.880 926.398 C 1640.569 915.629, 1641.173 912.302, 1643.270 907.722 C 1655.955 880.014, 1694.423 879.147, 1707.973 906.262 C 1709.638 909.594, 1711.045 913.710, 1711.100 915.410 C 1711.199 918.438, 1711.219 918.425, 1712.086 914.746 C 1714.468 904.637, 1721.822 895.234, 1731.216 890.284 C 1736.028 887.749, 1737.438 887.501, 1747 887.508 C 1756.101 887.515, 1758.166 887.842, 1762.500 889.963 C 1769.559 893.418, 1777.313 901.646, 1780.161 908.703 C 1782.282 913.960, 1782.491 915.944, 1782.407 930 C 1782.108 979.685, 1768.416 1027.819, 1744.060 1064.801 C 1705.601 1123.199, 1636.973 1161.909, 1557 1170.312 C 1555.075 1170.514, 1597.825 1170.757, 1652 1170.852 C 1732.889 1170.993, 1751.441 1171.274, 1755.764 1172.425 C 1771.381 1176.582, 1781.601 1189.241, 1782.713 1205.805 C 1783.203 1213.099, 1781.691 1238.293, 1780.366 1244.919 L 1779.750 1248 1816.993 1248 L 1854.237 1248 1853.545 1239.250 C 1852.155 1221.675, 1847.957 1206.739, 1840.899 1194.255 C 1836.429 1186.351, 1828.156 1175.489, 1822.073 1169.538 C 1819.283 1166.808, 1817 1164.274, 1817 1163.905 C 1817 1163.536, 1819.984 1161.044, 1823.631 1158.367 C 1836.628 1148.827, 1847.489 1131.998, 1851.620 1115 C 1853.854 1105.804, 1853.807 1085.738, 1851.486 1058 C 1840.876 931.235, 1790.795 792.292, 1718.655 689.481 C 1696.930 658.521, 1677.345 635.177, 1651.081 608.938 C 1608.084 565.984, 1566.688 536.253, 1514.804 511.065 C 1463.552 486.184, 1413.413 471.456, 1356.500 464.564 C 1349.350 463.698, 1341.701 462.744, 1339.501 462.443 L 1335.503 461.897 1340.445 465.410 C 1344.964 468.623, 1351.352 475.557, 1352.236 478.208 C 1352.451 478.852, 1354.207 478.245, 1356.549 476.719 C 1367.228 469.758, 1381.704 469.060, 1392.794 474.971 C 1400.244 478.942, 1405.285 484.246, 1408.865 491.880 C 1411.109 496.666, 1411.497 498.836, 1411.477 506.500 C 1411.441 520.490, 1410.234 522.432, 1384.387 550.099 C 1338.048 599.701, 1337.075 600.523, 1323.344 601.674 C 1304.321 603.269, 1288.090 590.704, 1285.087 572.058 C 1283.030 559.288, 1286.611 550.005, 1298.528 537.209 C 1302.775 532.648, 1306.082 528.791, 1305.875 528.636 C 1305.669 528.482, 1303.354 527.127, 1300.731 525.625 C 1294.791 522.223, 1288.816 514.783, 1285.976 507.252 C 1283.212 499.926, 1283.602 488.042, 1286.845 480.709 C 1289.557 474.577, 1297.621 466.043, 1303.457 463.128 C 1305.956 461.881, 1308 460.679, 1308 460.459 C 1308 460.238, 1249.520 460.039, 1178.045 460.015 C 1106.570 459.991, 1047.395 459.705, 1046.545 459.379 C 1045.695 459.053, 1045 459.024, 1045 459.315 M 1455.932 530.989 C 1445.859 532.738, 1435.268 540.592, 1430.624 549.756 C 1421.505 567.751, 1428.849 589.885, 1446.875 598.738 C 1451.879 601.195, 1453.604 601.500, 1462.500 601.500 C 1471.575 601.500, 1473.035 601.229, 1478.281 598.571 C 1484.949 595.192, 1492.261 587.843, 1495.035 581.732 C 1497.397 576.529, 1497.443 577.154, 1495.367 586.303 C 1489.271 613.173, 1467.553 650.351, 1440.923 679.500 C 1429.739 691.742, 1427.496 696.677, 1427.514 709 C 1427.526 717.341, 1427.867 719.194, 1430.308 724.190 C 1436.263 736.376, 1448.762 744.111, 1462.500 744.111 C 1474.430 744.111, 1479.745 741.504, 1491.028 730.116 C 1516.903 704.003, 1543.239 663.648, 1556.367 630 C 1564.860 608.231, 1569.564 584.244, 1568.846 566.362 C 1568.359 554.243, 1565.600 547.706, 1557.955 540.555 C 1550.150 533.254, 1545.412 531.500, 1533.500 531.501 C 1524.494 531.501, 1522.974 531.778, 1518.214 534.286 C 1515.307 535.817, 1511.161 538.667, 1509 540.619 C 1505.192 544.059, 1499 554.735, 1499 557.860 C 1499 560.249, 1497.529 558.040, 1495.562 552.695 C 1493.021 545.794, 1484.447 536.911, 1477.282 533.756 C 1470.728 530.870, 1462.649 529.823, 1455.932 530.989 M 1591.730 675.361 C 1576.890 681.616, 1570.419 691.287, 1568.954 709.403 C 1567.409 728.517, 1563.316 742.456, 1553.523 761.955 C 1543.701 781.510, 1527.925 804.107, 1511.951 821.500 C 1500.744 833.702, 1498.500 838.624, 1498.500 851 C 1498.500 859.206, 1498.864 861.276, 1501.170 866.196 C 1504.556 873.420, 1511.557 880.450, 1518.554 883.653 C 1521.549 885.025, 1524 886.312, 1524 886.515 C 1524 886.717, 1521.299 888.322, 1517.998 890.082 C 1510.668 893.989, 1504.697 900.280, 1501.160 907.825 C 1498.897 912.652, 1498.500 914.844, 1498.500 922.500 C 1498.500 930.347, 1498.861 932.235, 1501.318 937.239 C 1504.920 944.574, 1511.472 951.113, 1518.762 954.650 C 1523.729 957.059, 1525.726 957.437, 1533.620 957.466 C 1542.473 957.499, 1542.999 957.369, 1551.620 953.003 C 1562.019 947.736, 1585.871 932.070, 1597.991 922.545 C 1667.448 867.958, 1706.365 799.464, 1710.972 723.697 C 1712.362 700.832, 1710.008 691.871, 1700.245 682.872 C 1682.494 666.510, 1654.853 671.596, 1644.051 693.213 C 1641.346 698.626, 1640.981 700.408, 1640.830 708.910 L 1640.659 718.500 1640.045 708 C 1639.309 695.411, 1636.999 690.079, 1629.067 682.659 C 1621.896 675.952, 1616.388 673.713, 1606 673.282 C 1598.747 672.981, 1596.654 673.286, 1591.730 675.361 M 764.275 888.539 C 748.541 892.777, 734.415 905.013, 726.637 921.142 C 707.522 960.779, 712.958 1002.162, 740.673 1028 L 745.500 1032.500 741.266 1027.978 L 737.032 1023.457 743.401 1014.978 C 760.855 991.745, 786.813 973.200, 814.010 964.533 C 833.603 958.290, 837.809 958, 908.821 958 C 952.008 958, 973.068 957.668, 972.397 956.997 C 971.161 955.761, 942.862 943.953, 900.500 926.998 C 850.064 906.810, 815.364 894.219, 797.055 889.460 C 786.144 886.624, 772.778 886.249, 764.275 888.539 M 1498.052 1091.090 C 1497.993 1112.336, 1496.586 1120.009, 1490.545 1132.047 C 1485.807 1141.487, 1483.049 1145.404, 1476.238 1152.364 C 1468.709 1160.059, 1463.231 1163.756, 1453.500 1167.713 L 1445.500 1170.966 1486 1170.916 C 1520.038 1170.874, 1525.862 1170.666, 1522.500 1169.609 C 1509.343 1165.472, 1499.388 1152.704, 1498.248 1138.505 C 1496.926 1122.033, 1507.155 1106.830, 1522.822 1101.982 L 1528.418 1100.251 1524.959 1099.518 C 1515.363 1097.486, 1503.817 1087.364, 1500.119 1077.743 L 1498.104 1072.500 1498.052 1091.090 M 1356.420 1223.145 C 1354.571 1224.042, 1354.426 1224.671, 1355.111 1228.827 C 1355.534 1231.397, 1355.908 1236.763, 1355.940 1240.750 L 1356 1248 1424.893 1248 C 1497.657 1248, 1495 1248.153, 1495 1243.972 C 1495 1243.497, 1469.912 1242.971, 1439.250 1242.804 L 1383.500 1242.500 1377.765 1239.812 C 1369.857 1236.106, 1365.526 1232.591, 1361.821 1226.873 C 1360.084 1224.193, 1358.626 1222.030, 1358.582 1222.068 C 1358.537 1222.105, 1357.564 1222.589, 1356.420 1223.145 M 1567 1245.500 L 1567 1248 1637.500 1248 L 1708 1248 1708 1245.500 L 1708 1243 1637.500 1243 L 1567 1243 1567 1245.500" stroke="none" fill="#ae2b00" fill-rule="evenodd"/><path d="M 996 460.023 C 980.325 460.311, 969.750 460.658, 972.500 460.793 C 977.745 461.052, 999.725 463.330, 1008.820 464.558 C 1013.260 465.157, 1014.997 464.888, 1019.320 462.928 C 1025.194 460.264, 1025.492 460.095, 1024.917 459.750 C 1024.688 459.613, 1011.675 459.736, 996 460.023 M 1045 459.315 C 1045 459.606, 1047.624 461.155, 1050.831 462.758 C 1054.039 464.361, 1060.183 468.275, 1064.485 471.456 C 1071.420 476.585, 1073.905 477.731, 1086.403 481.557 C 1130.198 494.967, 1169.112 512.790, 1207.904 537.208 C 1264.788 573.015, 1320.212 627.156, 1363.805 689.500 C 1394.859 733.911, 1423.962 788.941, 1445.514 844 C 1457.360 874.262, 1471.159 918.207, 1478.014 947.500 C 1481.253 961.339, 1481.344 961.552, 1486.001 966 C 1492.435 972.145, 1495.740 977.768, 1497.613 985.755 C 1499.558 994.044, 1498.346 1002.830, 1494.201 1010.492 L 1491.500 1015.484 1493.213 1027.492 C 1494.155 1034.096, 1495.560 1046.025, 1496.336 1054 C 1497.235 1063.250, 1497.792 1066.432, 1497.873 1062.788 C 1498.054 1054.658, 1501.248 1046.984, 1507.131 1040.548 C 1514.872 1032.077, 1520.138 1029.987, 1537.742 1028.395 C 1559.700 1026.411, 1572.664 1023.114, 1587.500 1015.743 C 1610.969 1004.083, 1625.598 987.239, 1633.977 962.228 C 1637.464 951.820, 1638.756 943.975, 1639.880 926.398 C 1640.569 915.629, 1641.173 912.302, 1643.270 907.722 C 1655.955 880.014, 1694.423 879.147, 1707.973 906.262 C 1709.638 909.594, 1711.045 913.710, 1711.100 915.410 C 1711.199 918.438, 1711.219 918.425, 1712.086 914.746 C 1714.468 904.637, 1721.822 895.234, 1731.216 890.284 C 1736.028 887.749, 1737.438 887.501, 1747 887.508 C 1756.101 887.515, 1758.166 887.842, 1762.500 889.963 C 1769.559 893.418, 1777.313 901.646, 1780.161 908.703 C 1782.282 913.960, 1782.491 915.944, 1782.407 930 C 1782.108 979.685, 1768.416 1027.819, 1744.060 1064.801 C 1705.601 1123.199, 1636.973 1161.909, 1557 1170.312 C 1555.075 1170.514, 1597.825 1170.757, 1652 1170.852 C 1732.889 1170.993, 1751.441 1171.274, 1755.764 1172.425 C 1771.381 1176.582, 1781.601 1189.241, 1782.713 1205.805 C 1783.203 1213.099, 1781.691 1238.293, 1780.366 1244.919 L 1779.750 1248 1816.993 1248 L 1854.237 1248 1853.545 1239.250 C 1852.155 1221.675, 1847.957 1206.739, 1840.899 1194.255 C 1836.429 1186.351, 1828.156 1175.489, 1822.073 1169.538 C 1819.283 1166.808, 1817 1164.274, 1817 1163.905 C 1817 1163.536, 1819.984 1161.044, 1823.631 1158.367 C 1836.628 1148.827, 1847.489 1131.998, 1851.620 1115 C 1853.854 1105.804, 1853.807 1085.738, 1851.486 1058 C 1840.876 931.235, 1790.795 792.292, 1718.655 689.481 C 1696.930 658.521, 1677.345 635.177, 1651.081 608.938 C 1608.084 565.984, 1566.688 536.253, 1514.804 511.065 C 1463.552 486.184, 1413.413 471.456, 1356.500 464.564 C 1349.350 463.698, 1341.701 462.744, 1339.501 462.443 L 1335.503 461.897 1340.445 465.410 C 1344.964 468.623, 1351.352 475.557, 1352.236 478.208 C 1352.451 478.852, 1354.207 478.245, 1356.549 476.719 C 1367.228 469.758, 1381.704 469.060, 1392.794 474.971 C 1400.244 478.942, 1405.285 484.246, 1408.865 491.880 C 1411.109 496.666, 1411.497 498.836, 1411.477 506.500 C 1411.441 520.490, 1410.234 522.432, 1384.387 550.099 C 1338.048 599.701, 1337.075 600.523, 1323.344 601.674 C 1304.321 603.269, 1288.090 590.704, 1285.087 572.058 C 1283.030 559.288, 1286.611 550.005, 1298.528 537.209 C 1302.775 532.648, 1306.082 528.791, 1305.875 528.636 C 1305.669 528.482, 1303.354 527.127, 1300.731 525.625 C 1294.791 522.223, 1288.816 514.783, 1285.976 507.252 C 1283.212 499.926, 1283.602 488.042, 1286.845 480.709 C 1289.557 474.577, 1297.621 466.043, 1303.457 463.128 C 1305.956 461.881, 1308 460.679, 1308 460.459 C 1308 460.238, 1249.520 460.039, 1178.045 460.015 C 1106.570 459.991, 1047.395 459.705, 1046.545 459.379 C 1045.695 459.053, 1045 459.024, 1045 459.315 M 1455.932 530.989 C 1445.859 532.738, 1435.268 540.592, 1430.624 549.756 C 1421.505 567.751, 1428.849 589.885, 1446.875 598.738 C 1451.879 601.195, 1453.604 601.500, 1462.500 601.500 C 1471.575 601.500, 1473.035 601.229, 1478.281 598.571 C 1484.949 595.192, 1492.261 587.843, 1495.035 581.732 C 1497.397 576.529, 1497.443 577.154, 1495.367 586.303 C 1489.271 613.173, 1467.553 650.351, 1440.923 679.500 C 1429.739 691.742, 1427.496 696.677, 1427.514 709 C 1427.526 717.341, 1427.867 719.194, 1430.308 724.190 C 1436.263 736.376, 1448.762 744.111, 1462.500 744.111 C 1474.430 744.111, 1479.745 741.504, 1491.028 730.116 C 1516.903 704.003, 1543.239 663.648, 1556.367 630 C 1564.860 608.231, 1569.564 584.244, 1568.846 566.362 C 1568.359 554.243, 1565.600 547.706, 1557.955 540.555 C 1550.150 533.254, 1545.412 531.500, 1533.500 531.501 C 1524.494 531.501, 1522.974 531.778, 1518.214 534.286 C 1515.307 535.817, 1511.161 538.667, 1509 540.619 C 1505.192 544.059, 1499 554.735, 1499 557.860 C 1499 560.249, 1497.529 558.040, 1495.562 552.695 C 1493.021 545.794, 1484.447 536.911, 1477.282 533.756 C 1470.728 530.870, 1462.649 529.823, 1455.932 530.989 M 1591.730 675.361 C 1576.890 681.616, 1570.419 691.287, 1568.954 709.403 C 1567.409 728.517, 1563.316 742.456, 1553.523 761.955 C 1543.701 781.510, 1527.925 804.107, 1511.951 821.500 C 1500.744 833.702, 1498.500 838.624, 1498.500 851 C 1498.500 859.206, 1498.864 861.276, 1501.170 866.196 C 1504.556 873.420, 1511.557 880.450, 1518.554 883.653 C 1521.549 885.025, 1524 886.312, 1524 886.515 C 1524 886.717, 1521.299 888.322, 1517.998 890.082 C 1510.668 893.989, 1504.697 900.280, 1501.160 907.825 C 1498.897 912.652, 1498.500 914.844, 1498.500 922.500 C 1498.500 930.347, 1498.861 932.235, 1501.318 937.239 C 1504.920 944.574, 1511.472 951.113, 1518.762 954.650 C 1523.729 957.059, 1525.726 957.437, 1533.620 957.466 C 1542.473 957.499, 1542.999 957.369, 1551.620 953.003 C 1562.019 947.736, 1585.871 932.070, 1597.991 922.545 C 1667.448 867.958, 1706.365 799.464, 1710.972 723.697 C 1712.362 700.832, 1710.008 691.871, 1700.245 682.872 C 1682.494 666.510, 1654.853 671.596, 1644.051 693.213 C 1641.346 698.626, 1640.981 700.408, 1640.830 708.910 L 1640.659 718.500 1640.045 708 C 1639.309 695.411, 1636.999 690.079, 1629.067 682.659 C 1621.896 675.952, 1616.388 673.713, 1606 673.282 C 1598.747 672.981, 1596.654 673.286, 1591.730 675.361 M 764.275 888.539 C 748.541 892.777, 734.415 905.013, 726.637 921.142 C 707.522 960.779, 712.958 1002.162, 740.673 1028 L 745.500 1032.500 741.266 1027.978 L 737.032 1023.457 743.401 1014.978 C 760.855 991.745, 786.813 973.200, 814.010 964.533 C 833.603 958.290, 837.809 958, 908.821 958 C 952.008 958, 973.068 957.668, 972.397 956.997 C 971.161 955.761, 942.862 943.953, 900.500 926.998 C 850.064 906.810, 815.364 894.219, 797.055 889.460 C 786.144 886.624, 772.778 886.249, 764.275 888.539 M 1498.052 1091.090 C 1497.993 1112.336, 1496.586 1120.009, 1490.545 1132.047 C 1485.807 1141.487, 1483.049 1145.404, 1476.238 1152.364 C 1468.709 1160.059, 1463.231 1163.756, 1453.500 1167.713 L 1445.500 1170.966 1486 1170.916 C 1520.038 1170.874, 1525.862 1170.666, 1522.500 1169.609 C 1509.343 1165.472, 1499.388 1152.704, 1498.248 1138.505 C 1496.926 1122.033, 1507.155 1106.830, 1522.822 1101.982 L 1528.418 1100.251 1524.959 1099.518 C 1515.363 1097.486, 1503.817 1087.364, 1500.119 1077.743 L 1498.104 1072.500 1498.052 1091.090 M 1356.420 1223.145 C 1354.571 1224.042, 1354.426 1224.671, 1355.111 1228.827 C 1355.534 1231.397, 1355.908 1236.763, 1355.940 1240.750 L 1356 1248 1424.893 1248 C 1497.657 1248, 1495 1248.153, 1495 1243.972 C 1495 1243.497, 1469.912 1242.971, 1439.250 1242.804 L 1383.500 1242.500 1377.765 1239.812 C 1369.857 1236.106, 1365.526 1232.591, 1361.821 1226.873 C 1360.084 1224.193, 1358.626 1222.030, 1358.582 1222.068 C 1358.537 1222.105, 1357.564 1222.589, 1356.420 1223.145 M 1567 1245.500 L 1567 1248 1637.500 1248 L 1708 1248 1708 1245.500 L 1708 1243 1637.500 1243 L 1567 1243 1567 1245.500" stroke="none" fill="#ae2b00" fill-rule="evenodd"/><path d="M 883 461.302 C 874.507 464.696, 871.744 466.469, 867.109 471.498 C 860.338 478.843, 858.523 483.804, 858.511 495 C 858.496 507.838, 860.635 512.290, 873.348 525.889 C 895.243 549.310, 910.481 573.027, 924.940 606.191 C 929.682 617.065, 935.356 623.428, 943.783 627.321 C 950.770 630.549, 966.524 630.454, 973.216 627.144 C 984.825 621.402, 992.471 610.471, 993.641 597.942 C 994.419 589.610, 992.859 584.091, 984.643 566.115 C 969.411 532.785, 948.458 501.753, 924.615 477.215 C 913.509 465.784, 910.854 463.852, 902.355 461.008 C 894.835 458.492, 889.839 458.568, 883 461.302 M 1332 462.459 C 1332 462.734, 1333.780 463.867, 1335.955 464.977 C 1340.063 467.073, 1346.295 472.674, 1349.332 477 C 1350.927 479.272, 1350.923 479.195, 1349.294 476.157 C 1347.040 471.957, 1341.311 466.709, 1336.045 464.023 C 1333.820 462.888, 1332 462.184, 1332 462.459 M 1286.656 485.104 C 1285.745 487.923, 1285 492.346, 1285 494.933 C 1285 499.374, 1287.679 510.654, 1288.531 509.802 C 1288.749 509.585, 1288.268 507.219, 1287.463 504.544 C 1285.556 498.205, 1285.608 491.506, 1287.612 485.624 C 1288.499 483.021, 1289.019 480.686, 1288.768 480.435 C 1288.517 480.183, 1287.566 482.284, 1286.656 485.104 M 1351.082 480.072 C 1351.037 480.386, 1351.732 482.791, 1352.626 485.414 C 1354.712 491.539, 1354.040 502.694, 1351.193 509.170 C 1348.493 515.311, 1342.797 521.501, 1336.547 525.086 C 1333.771 526.678, 1331.974 527.985, 1332.554 527.991 C 1334.592 528.009, 1342.541 522.290, 1346.320 518.088 C 1352.479 511.238, 1354.382 505.947, 1354.446 495.500 C 1354.484 489.069, 1354.024 485.501, 1352.832 483 C 1351.914 481.075, 1351.126 479.757, 1351.082 480.072 M 731 532.532 C 685.055 538.947, 647.504 569.532, 621.621 621.620 C 618.101 628.704, 613.544 638.735, 611.496 643.911 C 607.993 652.760, 607.797 653.833, 608.208 661.911 C 608.744 672.434, 611.797 679.199, 619.172 686.201 C 625.875 692.565, 633.143 695.317, 643.521 695.420 C 650.653 695.491, 652.281 695.136, 658.206 692.219 C 667.758 687.517, 672.460 681.840, 678.342 667.904 C 694.430 629.793, 715.204 607.467, 738.797 602.932 C 747.483 601.262, 764.856 602.249, 772.151 604.827 C 779.884 607.560, 782.174 609.142, 792.156 618.645 C 799.942 626.057, 801.535 627.105, 808.009 629.071 C 825.087 634.259, 843.087 626.704, 850.730 611.142 C 853.196 606.119, 853.500 604.403, 853.500 595.500 C 853.500 581.523, 851.947 578.484, 837.661 564.500 C 825.693 552.785, 816.122 546.273, 803.062 540.958 C 781.283 532.095, 755.622 529.095, 731 532.532 M 528 603.539 C 515.662 606.975, 505.007 617.941, 490.553 642.083 C 457.142 697.885, 436.626 779.385, 431.998 874.688 C 426.211 993.861, 442.132 1114.339, 478.125 1223.750 L 486.103 1248 524.051 1248 C 544.923 1248, 562 1247.787, 562 1247.526 C 562 1247.265, 560.600 1243.553, 558.890 1239.276 C 535.298 1180.298, 517.036 1106.153, 508.084 1033 C 498.068 951.161, 499.552 861.586, 512.044 794 C 522.469 737.599, 540.997 689.219, 562.405 662.500 C 569.562 653.567, 572 647.215, 572 637.500 C 572 627.947, 569.333 620.699, 563.381 614.079 C 554.582 604.292, 540.432 600.077, 528 603.539 M 312.500 888.742 C 304.860 891.488, 298.600 896.349, 294.180 902.969 C 287.379 913.153, 286.805 919.898, 289.963 952.500 C 293.105 984.928, 296.996 1007.662, 303.999 1034.500 C 317.085 1084.659, 336.922 1124.597, 363.156 1153.606 C 374.490 1166.138, 380.541 1169.742, 391.834 1170.689 C 403.401 1171.659, 413.579 1167.635, 421.368 1159.014 C 427.741 1151.960, 429.498 1146.987, 429.499 1136 C 429.500 1123.907, 427.220 1118.694, 417.047 1107.527 C 408.348 1097.980, 402.947 1090.507, 396.190 1078.673 C 375.587 1042.588, 362.186 988.431, 359.401 930 C 358.718 915.663, 357.845 911.402, 354.221 904.696 C 348.652 894.396, 337.724 887.883, 325.020 887.294 C 319.584 887.042, 316.115 887.443, 312.500 888.742 M 646.972 1175.339 C 636.147 1177.710, 627.139 1185.166, 622.157 1195.880 C 619.988 1200.544, 619.540 1202.958, 619.522 1210.075 C 619.501 1218.178, 619.733 1219.116, 623.721 1227.075 C 626.042 1231.709, 629.743 1238.313, 631.945 1241.750 L 635.949 1248 735.620 1248 L 835.290 1248 834.720 1241.198 C 833.609 1227.950, 826.617 1217.399, 815.231 1211.792 C 809.153 1208.799, 807.719 1208.500, 799.428 1208.500 C 790.979 1208.500, 789.807 1208.757, 783.456 1212 C 778.441 1214.561, 775.515 1216.907, 772.551 1220.746 C 770.323 1223.631, 766.684 1228.356, 764.463 1231.246 C 762.243 1234.136, 758.193 1238.006, 755.463 1239.847 C 750.772 1243.010, 750.171 1243.157, 744.500 1242.521 C 722.593 1240.064, 703.247 1224.663, 688.763 1198.150 C 678.645 1179.629, 663.966 1171.616, 646.972 1175.339 M 937 1218.594 C 930.546 1220.309, 922.206 1225.730, 918.455 1230.647 C 915.333 1234.741, 910.753 1245.914, 911.451 1247.734 C 911.831 1248.722, 919.606 1249, 946.862 1249 L 981.787 1249 980.871 1244.922 C 977.879 1231.605, 966.973 1221.042, 953.201 1218.123 C 946.494 1216.702, 943.826 1216.779, 937 1218.594 M 128.500 1249.670 C 119.740 1251.588, 109.371 1261.407, 105.713 1271.250 C 104.435 1274.689, 105.986 1272.922, 107.908 1268.750 C 109.822 1264.594, 119.292 1254.719, 123.736 1252.245 C 124.966 1251.560, 126.852 1251, 127.927 1251 C 129.002 1251, 130.160 1250.550, 130.500 1250 C 130.840 1249.450, 130.979 1249.052, 130.809 1249.116 C 130.639 1249.180, 129.600 1249.429, 128.500 1249.670 M 2007.558 1250.093 C 2007.866 1250.592, 2008.998 1251, 2010.073 1251 C 2011.148 1251, 2013.034 1251.560, 2014.264 1252.245 C 2018.708 1254.719, 2028.178 1264.594, 2030.092 1268.750 C 2032.014 1272.922, 2033.565 1274.689, 2032.287 1271.250 C 2029.508 1263.773, 2022.163 1255.361, 2015.641 1252.187 C 2010.827 1249.843, 2006.751 1248.788, 2007.558 1250.093 M 2033.168 1279.691 C 2033.076 1282.546, 2032.550 1285.160, 2032 1285.500 C 2031.450 1285.840, 2031 1287.190, 2031 1288.500 C 2031 1289.810, 2030.550 1291.160, 2030 1291.500 C 2029.450 1291.840, 2029 1293.190, 2029 1294.500 C 2029 1295.810, 2028.550 1297.160, 2028 1297.500 C 2027.450 1297.840, 2027 1298.568, 2027 1299.118 C 2027 1301.970, 2029.057 1298.098, 2031.450 1290.742 C 2033.188 1285.400, 2034.003 1281.036, 2033.742 1278.475 C 2033.375 1274.885, 2033.320 1275.003, 2033.168 1279.691" stroke="none" fill="#f3cdc1" fill-rule="evenodd"/><path d="M 1025.653 461.120 C 1018.146 463.659, 1013.442 466.661, 1008.632 471.986 C 1002.170 479.138, 1000.500 483.967, 1000.500 495.500 C 1000.500 504.129, 1000.828 506.117, 1002.894 510 C 1007.040 517.791, 1010.084 520.970, 1020.425 528.301 C 1053.760 551.936, 1077.373 579.107, 1093.601 612.500 C 1101.467 628.688, 1105.222 638.849, 1109.542 655.644 C 1127.740 726.383, 1115.455 815.924, 1075.329 905 C 1071.804 912.826, 1071.500 914.214, 1071.500 922.500 C 1071.500 930.347, 1071.861 932.235, 1074.318 937.239 C 1077.920 944.574, 1084.472 951.113, 1091.762 954.650 C 1096.723 957.056, 1098.718 957.435, 1106.500 957.451 C 1114.152 957.466, 1116.324 957.078, 1121 954.859 C 1131.077 950.078, 1134.431 946.201, 1141.982 930.608 C 1164.525 884.059, 1181.096 823.371, 1186.655 767 C 1188.942 743.818, 1188.921 707.976, 1186.609 686.500 C 1176.849 595.849, 1135.577 522.889, 1066 473.288 C 1046.189 459.165, 1038.389 456.813, 1025.653 461.120 M 853.814 587.013 C 857.112 600.513, 852.139 614.829, 841.120 623.550 C 828.919 633.207, 810.351 633.878, 798.322 625.097 L 794.500 622.307 798.702 630.815 C 807.515 648.664, 810.515 669.567, 809.700 707.459 C 808.830 747.929, 803.037 785.163, 790.401 831.496 C 785.152 850.746, 785.001 855.953, 789.412 865.589 C 800.510 889.831, 832.845 893.957, 849.651 873.276 C 854.525 867.278, 856.790 860.859, 863.506 834 C 884.978 748.133, 887.493 670.625, 870.502 618.354 C 867.041 607.705, 857.813 587.828, 854.138 583.107 C 852.307 580.754, 852.301 580.820, 853.814 587.013 M 993.990 596.250 C 993.969 611.644, 983.640 624.858, 968.068 629.412 C 955.200 633.175, 942.676 629.771, 932.707 619.802 C 929.963 617.058, 927.984 615.643, 928.310 616.657 C 940.106 653.388, 944.578 679.141, 945.649 716.500 C 946.785 756.128, 941.882 798.417, 932.085 833.500 C 927.159 851.140, 928.263 862.160, 936.030 872.883 C 942.538 881.866, 956.561 887.828, 968.047 886.495 C 979.588 885.155, 990.654 877.479, 995.916 867.164 C 998.421 862.255, 1002.978 846.515, 1006.387 831 C 1021.703 761.299, 1021.722 690.135, 1006.443 627.910 C 1003.064 614.148, 995.311 589, 994.447 589 C 994.201 589, 993.996 592.263, 993.990 596.250 M 430.500 645 C 422.264 653.250, 415.750 660, 416.025 660 C 416.300 660, 423.264 653.250, 431.500 645 C 439.736 636.750, 446.250 630, 445.975 630 C 445.700 630, 438.736 636.750, 430.500 645 M 602.748 668 C 588.433 713.411, 580.087 764.419, 574.935 838 C 573.202 862.742, 572.572 952.945, 573.922 983.084 C 578.335 1081.663, 591.250 1153.366, 614.632 1209.104 C 617.146 1215.097, 619.270 1219.999, 619.352 1219.999 C 619.433 1219.998, 619.510 1215.386, 619.521 1209.749 C 619.540 1201.073, 619.899 1198.776, 621.866 1194.784 C 627.865 1182.603, 639.477 1174.818, 652.636 1174.153 C 663.373 1173.611, 671.473 1176.572, 679.250 1183.881 C 681.313 1185.820, 683 1187.152, 683 1186.841 C 683 1186.531, 681.643 1183.283, 679.984 1179.625 C 672.680 1163.516, 663.069 1130.055, 658.118 1103.500 C 652.325 1072.429, 649.740 1049.894, 645.784 996 C 643.810 969.105, 644.156 873.306, 646.343 841 C 650.741 776.048, 658.464 728.841, 671.429 687.669 L 673.895 679.837 669.895 684.382 C 664.069 691.001, 654.658 695.377, 645.226 695.854 C 636.105 696.314, 630.389 694.775, 623.073 689.890 C 613.750 683.664, 608.666 674.936, 607.120 662.500 L 606.373 656.500 602.748 668 M 1310.500 674.399 C 1298.618 678.157, 1289.149 687.310, 1285.915 698.166 C 1285.369 700, 1284.487 709.600, 1283.956 719.500 C 1282.083 754.400, 1276.783 791.882, 1268.333 830 C 1257.340 879.587, 1242.577 923.190, 1221.913 967.106 C 1214.245 983.402, 1212.484 989.718, 1213.451 997.457 C 1216.158 1019.117, 1238.993 1034.123, 1259.121 1027.468 C 1273.742 1022.633, 1278.491 1016.421, 1293.500 982.500 C 1328.041 904.433, 1349.930 813.778, 1355.052 727.580 C 1356.309 706.426, 1355.950 701.929, 1352.375 694 C 1345.271 678.244, 1326.349 669.387, 1310.500 674.399 M 1450.150 959.939 C 1443.879 962.263, 1443.364 962.618, 1435.500 970.054 C 1404.304 999.552, 1370.893 1018.676, 1337 1026.434 C 1333.425 1027.253, 1325.944 1028.350, 1320.376 1028.872 C 1307.984 1030.035, 1301.196 1032.945, 1294.716 1039.872 C 1289.042 1045.939, 1286.459 1050.952, 1285.074 1058.591 C 1282.292 1073.932, 1290.473 1089.681, 1304.885 1096.732 C 1314.514 1101.443, 1329.642 1101.026, 1354.471 1095.366 C 1398.661 1085.292, 1441.663 1061.560, 1480.026 1026.075 C 1490.637 1016.260, 1493.891 1011.621, 1496.526 1002.560 C 1501.176 986.562, 1492.790 968.390, 1477.340 960.985 C 1470.458 957.687, 1457.564 957.191, 1450.150 959.939 M 812.929 1101.308 C 803.399 1104.002, 794.424 1111.260, 790.179 1119.705 C 787.146 1125.740, 786.164 1132.327, 785.588 1150.500 C 784.721 1177.895, 780.963 1198.358, 773.517 1216.244 C 773.031 1217.412, 774.757 1216.675, 778.745 1214.012 C 790.241 1206.335, 802.553 1205.260, 814.500 1210.890 C 826.666 1216.622, 834.116 1227.570, 834.828 1240.758 C 835.174 1247.182, 835.466 1248.077, 837.360 1248.537 C 838.537 1248.824, 855.475 1248.926, 875 1248.766 L 910.500 1248.474 873.805 1248.237 L 837.110 1248 839.519 1242.552 C 845.523 1228.976, 850.894 1208.807, 854.137 1187.656 C 857.012 1168.905, 857.892 1132.547, 855.654 1124.963 C 852.725 1115.036, 842.716 1104.793, 833.177 1101.963 C 827.286 1100.215, 817.873 1099.910, 812.929 1101.308 M 955.033 1101.543 C 940.649 1105.560, 930.208 1117.737, 929.363 1131.481 C 929.159 1134.791, 928.547 1145.150, 928.004 1154.500 C 926.289 1183.995, 922.427 1207.828, 915.441 1232.045 C 915.196 1232.895, 917.831 1230.824, 921.296 1227.443 C 929.864 1219.083, 936.231 1216.647, 948 1217.227 C 957.599 1217.700, 964.043 1220.333, 971.016 1226.633 C 974.929 1230.168, 982 1242.653, 982 1246.026 C 982 1247.071, 983.023 1248.040, 984.524 1248.417 C 985.913 1248.765, 1069.950 1248.927, 1171.274 1248.775 C 1272.598 1248.624, 1339.707 1248.382, 1320.404 1248.237 L 1285.309 1247.975 1284.654 1234.329 C 1284.294 1226.824, 1284 1216.046, 1284 1210.377 C 1284 1198.822, 1282.526 1193.079, 1277.793 1186.200 C 1269.006 1173.427, 1250.897 1168.163, 1235.703 1173.965 C 1228.221 1176.822, 1219.917 1184.805, 1216.222 1192.691 C 1213.526 1198.445, 1213.497 1198.734, 1213.160 1223.250 L 1212.821 1248 1176.303 1248 C 1142.432 1248, 1139.833 1247.878, 1140.434 1246.310 C 1140.791 1245.381, 1141.356 1235.143, 1141.689 1223.560 C 1142.198 1205.884, 1142.037 1201.613, 1140.687 1196.980 C 1133.115 1170.998, 1100.301 1162.811, 1081.205 1182.139 C 1078.842 1184.530, 1075.721 1188.914, 1074.270 1191.881 C 1071.839 1196.850, 1071.566 1198.719, 1070.811 1215.635 C 1070.360 1225.734, 1069.656 1237.034, 1069.246 1240.748 L 1068.500 1247.500 1026.639 1247.761 C 987.020 1248.008, 984.814 1247.928, 985.459 1246.261 C 986.836 1242.700, 991.855 1220.154, 993.866 1208.500 C 997.269 1188.769, 999.115 1167.984, 999.313 1147.156 C 999.498 1127.742, 999.467 1127.430, 996.820 1121.782 C 989.204 1105.533, 971.483 1096.950, 955.033 1101.543 M 427.684 1248.748 C 438.235 1248.910, 455.785 1248.911, 466.684 1248.749 C 477.583 1248.587, 468.950 1248.455, 447.500 1248.455 C 426.050 1248.454, 417.133 1248.587, 427.684 1248.748 M 580.750 1248.749 C 590.788 1248.912, 607.213 1248.912, 617.250 1248.749 C 627.288 1248.585, 619.075 1248.452, 599 1248.452 C 578.925 1248.452, 570.712 1248.585, 580.750 1248.749" stroke="none" fill="#e48d72" fill-rule="evenodd"/><path d="M 904.741 459.691 C 903.516 460.011, 904.779 461.048, 908.891 463.103 C 913.143 465.228, 917.564 468.930, 924.651 476.300 C 1001.894 556.632, 1033.080 676.333, 1010.940 807.500 C 1006.806 831.989, 999.930 859.297, 995.916 867.164 C 990.654 877.479, 979.588 885.155, 968.047 886.495 C 956.561 887.828, 942.538 881.866, 936.030 872.883 C 928.263 862.160, 927.159 851.140, 932.085 833.500 C 947.260 779.158, 950.099 711.336, 939.430 658 C 929.199 606.852, 907.778 564.085, 874.065 527.500 C 862.983 515.474, 860.643 512.019, 858.436 504.427 C 853.966 489.051, 861.989 470.669, 876.279 463.548 L 881.393 461 877.757 461 C 875.757 461, 865.881 461.684, 855.810 462.520 C 701.361 475.341, 571.462 525.430, 466.464 612.649 C 449.653 626.614, 412.140 664.036, 398.950 680 C 351.275 737.702, 319.243 797.538, 301.520 862 C 298.203 874.065, 293 898.086, 293 901.333 C 293 902.281, 294.904 900.869, 297.750 897.811 C 315.875 878.338, 347.438 884.702, 357.331 909.824 C 358.647 913.167, 359.429 919.062, 360.074 930.500 C 362.915 980.911, 371.835 1023.205, 387.168 1058.978 C 395.578 1078.599, 404.464 1092.752, 417.743 1107.677 C 427.810 1118.991, 430.511 1125.005, 430.464 1136 C 430.431 1143.474, 430.041 1145.298, 427.231 1151.107 C 421.863 1162.202, 412.969 1168.902, 400.792 1171.022 C 384.803 1173.807, 374.576 1168.337, 357.448 1147.838 C 321.193 1104.451, 297.500 1036.893, 289.115 953 L 288.266 944.500 288.133 956 C 287.941 972.689, 289.725 1002.010, 292.088 1021 C 299.602 1081.399, 318.354 1134.173, 348.314 1179.232 C 361.820 1199.547, 373.034 1213.148, 391.611 1231.750 L 407.839 1248 446.905 1248 L 485.971 1248 484.110 1243.250 C 483.087 1240.638, 479.522 1230.175, 476.189 1220 C 426.058 1066.974, 415.777 879.876, 449.976 743 C 466.021 678.784, 497.581 617.729, 521.144 605.320 C 526.034 602.746, 527.414 602.500, 537 602.500 C 545.932 602.500, 548.196 602.843, 552.162 604.797 C 559.186 608.257, 565.255 614.137, 569.071 621.179 C 572.328 627.190, 572.495 627.990, 572.474 637.500 C 572.454 646.525, 572.174 648.036, 569.596 653 C 568.026 656.025, 565.211 660.203, 563.341 662.285 C 556.926 669.428, 547.414 685.607, 540.286 701.500 C 520.378 745.887, 508.666 799.801, 503.573 870.500 C 502.221 889.266, 501.867 934.045, 502.876 958.500 C 506.740 1052.143, 523.243 1138.931, 552.955 1221.874 C 555.141 1227.977, 558.338 1236.353, 560.058 1240.486 L 563.187 1248 599.083 1248 L 634.978 1248 630.991 1241.485 C 609.717 1206.728, 592.832 1152.917, 583.614 1090.500 C 575.284 1034.102, 572.453 983.232, 573.294 905.084 C 573.939 845.130, 575.703 815.023, 581.060 772.500 C 599.443 626.567, 647.142 547.635, 726.074 532.532 C 739.652 529.933, 765.547 530.346, 780 533.392 C 824.857 542.843, 855.040 571.234, 870.542 618.558 C 887.496 670.314, 884.951 748.243, 863.506 834 C 856.790 860.859, 854.525 867.278, 849.651 873.276 C 832.845 893.957, 800.510 889.831, 789.412 865.589 C 785.001 855.953, 785.152 850.746, 790.401 831.496 C 802.982 785.363, 808.817 747.968, 809.702 707.791 C 810.529 670.233, 807.673 649.766, 799.028 631.319 C 791.433 615.111, 780.252 606.508, 762.659 603.334 C 733.676 598.106, 708.969 612.437, 689.933 645.519 C 666.673 685.941, 652.428 749.632, 646.436 840 C 645.498 854.139, 644.732 883.019, 644.514 912.500 C 644.290 942.600, 644.467 957.643, 644.971 951.500 C 646.612 931.506, 649.847 922.140, 657.782 914.413 C 668.119 904.347, 685.543 901.645, 698.263 908.134 C 708.376 913.294, 716.351 924.724, 717.683 935.971 L 718.278 940.995 720.711 933.748 C 729.179 908.523, 745.738 891.920, 766.901 887.434 C 775.545 885.601, 782.360 885.644, 791.775 887.588 C 840.117 897.574, 1091.085 1003.142, 1231.500 1072.556 C 1271.519 1092.339, 1286.189 1100.442, 1311.049 1116.492 C 1359.547 1147.805, 1383.077 1160.223, 1408 1167.660 C 1416.479 1170.191, 1419.004 1170.494, 1431.500 1170.482 C 1444.946 1170.469, 1445.817 1170.341, 1453.500 1167.238 C 1475.093 1158.516, 1491.219 1138.128, 1496.686 1112.635 C 1497.886 1107.038, 1498.091 1101.619, 1497.636 1087.500 C 1496.914 1065.080, 1493.845 1031.362, 1491.379 1018.751 C 1490.851 1016.051, 1490.658 1016.171, 1480.671 1025.458 C 1442.103 1061.321, 1398.947 1085.227, 1354.471 1095.366 C 1329.642 1101.026, 1314.514 1101.443, 1304.885 1096.732 C 1290.452 1089.671, 1282.250 1073.832, 1285.086 1058.495 C 1286.491 1050.890, 1289.065 1045.914, 1294.716 1039.872 C 1301.196 1032.945, 1307.984 1030.035, 1320.376 1028.872 C 1359.126 1025.236, 1399.040 1004.714, 1436.141 969.352 C 1445.504 960.429, 1450.005 958.582, 1462.500 958.538 C 1470.810 958.509, 1473.218 958.867, 1476.750 960.661 C 1479.088 961.847, 1481 962.592, 1481 962.314 C 1481 960.498, 1473.213 930.078, 1469.078 915.745 C 1423.262 756.894, 1335.722 625.723, 1224.065 548.610 C 1186.664 522.780, 1146.172 502.350, 1102.992 487.523 C 1088.612 482.586, 1075.849 478.818, 1075.314 479.353 C 1075.135 479.532, 1079.422 483.341, 1084.840 487.818 C 1126.599 522.325, 1159.176 572.400, 1174.865 626.198 C 1193.347 689.575, 1192.999 763.786, 1173.861 840.309 C 1165.459 873.904, 1154.742 904.260, 1141.982 930.608 C 1134.431 946.201, 1131.077 950.078, 1121 954.859 C 1116.324 957.078, 1114.152 957.466, 1106.500 957.451 C 1098.718 957.435, 1096.723 957.056, 1091.762 954.650 C 1084.472 951.113, 1077.920 944.574, 1074.318 937.239 C 1071.861 932.235, 1071.500 930.347, 1071.500 922.500 C 1071.500 914.214, 1071.804 912.826, 1075.329 905 C 1115.455 815.924, 1127.740 726.383, 1109.542 655.644 C 1105.222 638.849, 1101.467 628.688, 1093.601 612.500 C 1077.336 579.030, 1053.800 551.964, 1020.311 528.221 C 1010.081 520.967, 1007.033 517.779, 1002.894 510 C 1000.828 506.117, 1000.500 504.129, 1000.500 495.500 C 1000.500 483.626, 1002.257 478.846, 1009.452 471.155 C 1015.087 465.130, 1016.642 465.734, 988.500 463.021 C 976.950 461.908, 963.096 460.548, 957.714 459.999 C 948.117 459.019, 908.203 458.788, 904.741 459.691 M 1452.286 532.392 C 1437.726 537.146, 1428.303 549.028, 1427.233 563.981 C 1426.046 580.582, 1436.061 595.116, 1452.136 600.119 C 1459.469 602.402, 1463.728 602.477, 1471.540 600.464 C 1482.491 597.641, 1491.498 589.420, 1495.603 578.500 C 1498.475 570.860, 1498.104 559.126, 1494.759 551.801 C 1491.443 544.542, 1484.470 537.562, 1477.216 534.241 C 1470.364 531.104, 1458.845 530.250, 1452.286 532.392 M 1310.500 674.399 C 1298.618 678.157, 1289.149 687.310, 1285.915 698.166 C 1285.369 700, 1284.487 709.600, 1283.956 719.500 C 1282.083 754.400, 1276.783 791.882, 1268.333 830 C 1257.340 879.587, 1242.577 923.190, 1221.913 967.106 C 1214.245 983.402, 1212.484 989.718, 1213.451 997.457 C 1216.158 1019.117, 1238.993 1034.123, 1259.121 1027.468 C 1273.742 1022.633, 1278.491 1016.421, 1293.500 982.500 C 1328.041 904.433, 1349.930 813.778, 1355.052 727.580 C 1356.309 706.426, 1355.950 701.929, 1352.375 694 C 1345.271 678.244, 1326.349 669.387, 1310.500 674.399 M 1596.734 674.027 C 1584.962 676.992, 1574.254 687.001, 1570.910 698.166 C 1570.361 700, 1569.500 706.675, 1568.998 713 C 1568.453 719.848, 1567.031 728.140, 1565.482 733.500 C 1557.290 761.831, 1537.290 794.768, 1510.705 823.709 C 1503.074 832.016, 1500.707 836.194, 1499.031 844.316 C 1495.886 859.558, 1503.878 875.864, 1517.858 882.730 C 1522.881 885.196, 1524.597 885.500, 1533.500 885.500 C 1546.987 885.500, 1551.708 883.221, 1563.168 871.176 C 1595.200 837.509, 1622.276 792.554, 1632.978 755.270 C 1639.217 733.532, 1641.674 709.272, 1638.680 698.970 C 1635.515 688.084, 1627.173 679.049, 1617 675.488 C 1611.303 673.494, 1601.622 672.796, 1596.734 674.027 M 1664.332 888.792 C 1653.652 892.605, 1645.104 901.595, 1641.818 912.472 C 1641.315 914.137, 1640.496 922.250, 1639.998 930.500 C 1638.869 949.194, 1635.823 961.740, 1629.080 975.477 C 1617.302 999.469, 1596.495 1015.842, 1566.999 1024.328 C 1559.076 1026.608, 1543.483 1028.991, 1536.460 1028.996 C 1528.985 1029.001, 1520.201 1031.216, 1515.250 1034.344 C 1490.750 1049.825, 1493.283 1085.079, 1519.775 1097.317 C 1523.841 1099.196, 1526.103 1099.480, 1536 1099.360 C 1549.746 1099.192, 1566.306 1096.905, 1582 1093.006 C 1597.037 1089.270, 1606.068 1086.008, 1619.552 1079.442 C 1667.975 1055.862, 1698.792 1014.419, 1707.997 960.500 C 1709.135 953.835, 1710.310 941.164, 1710.639 932 C 1711.191 916.641, 1711.081 915.102, 1709.045 909.753 C 1706.187 902.241, 1698.568 893.914, 1691.298 890.358 C 1683.900 886.738, 1672.018 886.048, 1664.332 888.792 M 646.630 1004.500 C 648.808 1046.532, 654.728 1091.049, 662.654 1125 C 674.285 1174.826, 692.333 1211.385, 713.820 1228.643 C 726.821 1239.085, 747.085 1244.985, 754.027 1240.349 C 760.574 1235.977, 770.159 1223.988, 773.895 1215.500 C 777.848 1206.519, 782.007 1189.653, 784.006 1174.500 C 785.758 1161.211, 786.831 1128.668, 785.546 1127.765 C 784.971 1127.361, 781.575 1126.058, 778 1124.869 C 749.733 1115.469, 718.351 1100.727, 704.500 1090.340 C 693.003 1081.718, 680.118 1068.591, 672.131 1057.364 C 660.865 1041.525, 649.865 1016.519, 646.994 1000.219 C 646.374 996.696, 646.281 997.781, 646.630 1004.500 M 856.830 1151.500 C 855.763 1188.108, 849.854 1219.184, 839.514 1242.564 L 837.099 1248.025 873.639 1247.762 L 910.179 1247.500 913.695 1237 C 917.834 1224.639, 922.234 1205.709, 924.386 1191 C 926.630 1175.668, 928.303 1158.369, 927.690 1156.834 C 927.397 1156.100, 927.122 1156.666, 927.079 1158.090 L 927 1160.680 912.750 1158.385 C 900.010 1156.334, 877.668 1152.084, 863.285 1148.976 L 858.071 1147.849 857.785 1138.175 C 857.613 1132.335, 857.234 1137.618, 856.830 1151.500 M 998.607 1172.112 C 998.313 1173.975, 997.586 1180.225, 996.993 1186 C 995.212 1203.322, 988.497 1238.404, 985.459 1246.261 C 984.814 1247.928, 987.020 1248.008, 1026.639 1247.761 L 1068.500 1247.500 1069.246 1240.748 C 1069.656 1237.034, 1070.360 1225.734, 1070.811 1215.635 C 1071.566 1198.719, 1071.839 1196.850, 1074.270 1191.881 C 1077.776 1184.714, 1084.185 1178.356, 1091.344 1174.939 L 1097.189 1172.151 1092.844 1171.617 C 1090.455 1171.323, 1072.075 1170.845, 1052 1170.554 C 1031.925 1170.263, 1011.820 1169.732, 1007.321 1169.374 L 999.142 1168.724 998.607 1172.112 M 1122.782 1175.121 C 1128.986 1178.192, 1135.737 1185.205, 1138.819 1191.780 C 1141.487 1197.472, 1141.500 1197.612, 1141.426 1220 C 1141.385 1232.375, 1141.039 1243.737, 1140.657 1245.250 L 1139.962 1248 1176.391 1248 L 1212.821 1248 1213.174 1223.250 C 1213.500 1200.376, 1213.692 1198.141, 1215.703 1193.760 L 1217.878 1189.021 1212.689 1187.583 C 1199.275 1183.867, 1195.799 1183.021, 1186 1181.093 C 1166.989 1177.352, 1133.150 1173.084, 1122 1173.021 L 1118.500 1173.002 1122.782 1175.121 M 1338.624 1189.281 C 1342.462 1200.859, 1338.651 1216.402, 1329.804 1225.249 C 1319.262 1235.790, 1301.950 1238.606, 1288.831 1231.914 L 1285.053 1229.987 1284.675 1215.743 C 1284.466 1207.909, 1284.470 1211.828, 1284.682 1224.451 C 1284.895 1237.074, 1285.204 1247.537, 1285.369 1247.703 C 1285.535 1247.868, 1332.432 1248.155, 1389.585 1248.340 C 1446.738 1248.526, 1462.353 1248.522, 1424.284 1248.332 C 1364.873 1248.035, 1355.145 1247.784, 1355.615 1246.561 C 1356.505 1244.240, 1354.228 1225.138, 1352.032 1216.500 C 1350.089 1208.861, 1341.988 1190.728, 1338.629 1186.500 C 1337.176 1184.672, 1337.176 1184.911, 1338.624 1189.281 M 1601.250 1248.750 C 1620.912 1248.901, 1653.088 1248.901, 1672.750 1248.750 C 1692.412 1248.598, 1676.325 1248.474, 1637 1248.474 C 1597.675 1248.474, 1581.588 1248.598, 1601.250 1248.750 M 1797.816 1248.749 C 1808.440 1248.911, 1825.540 1248.911, 1835.816 1248.748 C 1846.092 1248.586, 1837.400 1248.453, 1816.500 1248.454 C 1795.600 1248.454, 1787.192 1248.587, 1797.816 1248.749" stroke="none" fill="#d65128" fill-rule="evenodd"/><path d="M 1013.500 5.101 C 783.721 17.425, 564.618 103.369, 388.334 250.326 C 361.736 272.499, 344.965 287.923, 316.444 316.444 C 263.162 369.726, 224.873 416.169, 184.077 477 C 76.069 638.048, 15.350 820.991, 5.015 1016.500 C 3.723 1040.934, 3.722 1101.043, 5.013 1125.500 C 7.009 1163.307, 10.393 1196.488, 16.130 1234.500 C 18.777 1252.038, 26.157 1292.366, 27.613 1297.250 C 28.099 1298.880, 30.959 1299, 69.267 1299 C 101.259 1299, 110.133 1298.733, 109.200 1297.800 C 108.540 1297.140, 108 1295.655, 108 1294.500 C 108 1293.345, 107.503 1291.903, 106.895 1291.295 C 106.288 1290.688, 105.553 1286.378, 105.262 1281.717 C 104.779 1273.984, 104.966 1272.769, 107.396 1267.801 C 110.354 1261.757, 116.411 1255.375, 122.500 1251.886 C 126.348 1249.681, 127.674 1249.568, 157.500 1248.893 C 174.550 1248.507, 237.675 1248.149, 297.777 1248.096 L 407.054 1248 391.751 1232.750 C 340.267 1181.445, 309.535 1121.887, 295.128 1045.500 C 289.611 1016.249, 288.643 1003.264, 288.569 957.500 C 288.509 919.843, 288.708 913.879, 290.173 909.500 C 291.092 906.750, 293.271 897.075, 295.014 888 C 307.274 824.170, 338.838 756.647, 383.755 698.162 C 412.791 660.356, 451.294 622.420, 490.707 592.785 C 591.888 516.706, 719.981 471.407, 861.500 461.657 C 872.500 460.900, 882.400 460.157, 883.500 460.008 C 884.600 459.859, 981.637 459.566, 1099.139 459.357 C 1289.794 459.019, 1312.841 459.142, 1313.362 460.502 C 1313.828 461.716, 1313.415 461.891, 1311.324 461.367 C 1309.482 460.904, 1308.912 461.049, 1309.410 461.854 C 1310.066 462.916, 1308.669 463.393, 1305.261 463.270 C 1304.579 463.246, 1304.268 463.625, 1304.570 464.113 C 1304.871 464.601, 1304.641 465, 1304.059 465 C 1302.213 465, 1301.679 465.393, 1296.570 470.500 C 1293.819 473.250, 1292.206 474.600, 1292.986 473.500 C 1294.218 471.762, 1294.215 471.669, 1292.963 472.788 C 1292.171 473.497, 1291.518 474.847, 1291.512 475.788 C 1291.505 476.730, 1290.904 477.376, 1290.176 477.225 C 1289.447 477.074, 1289.136 477.412, 1289.485 477.975 C 1289.833 478.539, 1289.615 479, 1289 479 C 1288.385 479, 1288.154 479.441, 1288.487 479.979 C 1289.200 481.132, 1286.983 489.107, 1286.102 488.563 C 1285.771 488.358, 1285.500 491.255, 1285.500 495 C 1285.500 498.752, 1285.902 501.561, 1286.395 501.256 C 1286.887 500.952, 1287.065 501.881, 1286.789 503.321 C 1286.479 504.943, 1286.674 505.701, 1287.302 505.313 C 1287.923 504.930, 1288.097 505.523, 1287.751 506.845 C 1287.386 508.241, 1287.566 508.768, 1288.263 508.337 C 1288.933 507.923, 1289.111 508.270, 1288.733 509.253 C 1288.374 510.190, 1288.754 511.075, 1289.667 511.426 C 1290.514 511.751, 1290.955 512.674, 1290.647 513.476 C 1290.339 514.279, 1290.587 515.245, 1291.198 515.622 C 1291.911 516.063, 1292.048 515.805, 1291.580 514.905 C 1291.180 514.132, 1291.546 514.354, 1292.394 515.397 C 1293.242 516.441, 1293.736 517.618, 1293.492 518.014 C 1293.247 518.409, 1293.937 519.538, 1295.024 520.521 C 1296.111 521.505, 1297 521.999, 1297 521.620 C 1297 521.240, 1297.913 521.418, 1299.028 522.015 C 1300.191 522.637, 1300.762 523.612, 1300.368 524.300 C 1299.989 524.960, 1300.045 525.169, 1300.491 524.766 C 1300.937 524.362, 1301.943 524.812, 1302.725 525.766 C 1303.508 526.719, 1303.863 526.938, 1303.515 526.250 C 1302.712 524.665, 1303.156 524.681, 1306.371 526.348 C 1307.800 527.090, 1308.736 527.931, 1308.450 528.216 C 1308.165 528.502, 1309.184 528.535, 1310.715 528.290 C 1312.351 528.028, 1313.022 528.186, 1312.341 528.674 C 1311.691 529.141, 1315.052 529.504, 1319.995 529.503 C 1325.015 529.501, 1328.566 529.109, 1328.247 528.592 C 1327.939 528.093, 1328.558 527.913, 1329.623 528.191 C 1330.688 528.470, 1332.154 528.060, 1332.882 527.281 C 1333.610 526.502, 1334.857 526.115, 1335.655 526.421 C 1336.464 526.731, 1336.834 526.540, 1336.493 525.989 C 1335.933 525.082, 1337.308 524.556, 1339.324 524.906 C 1339.778 524.985, 1339.864 524.588, 1339.515 524.025 C 1338.958 523.123, 1339.709 522.788, 1341.593 523.098 C 1342.372 523.226, 1347.926 517.895, 1347.834 517.108 C 1347.603 515.128, 1348.136 513.966, 1349.025 514.515 C 1349.588 514.864, 1349.985 514.778, 1349.906 514.324 C 1349.567 512.370, 1350.069 510.924, 1350.907 511.442 C 1351.405 511.751, 1351.560 511.032, 1351.249 509.845 C 1350.865 508.377, 1351.051 507.914, 1351.831 508.396 C 1352.598 508.869, 1352.759 508.536, 1352.319 507.388 C 1351.915 506.335, 1352.056 505.917, 1352.686 506.306 C 1353.328 506.703, 1353.524 505.962, 1353.211 504.321 C 1352.935 502.881, 1353.113 501.952, 1353.605 502.256 C 1354.102 502.563, 1354.500 499.341, 1354.500 495 C 1354.500 490.579, 1354.106 487.434, 1353.592 487.752 C 1353.093 488.060, 1352.939 487.342, 1353.249 486.155 C 1353.611 484.772, 1353.431 484.234, 1352.749 484.655 C 1352.067 485.076, 1351.888 484.538, 1352.249 483.155 C 1352.614 481.759, 1352.434 481.232, 1351.737 481.663 C 1351.067 482.077, 1350.889 481.730, 1351.267 480.747 C 1351.626 479.810, 1351.246 478.925, 1350.333 478.574 C 1349.486 478.249, 1349.045 477.326, 1349.353 476.524 C 1349.661 475.721, 1349.413 474.755, 1348.802 474.378 C 1348.060 473.919, 1347.977 474.158, 1348.552 475.095 C 1349.026 475.868, 1347.436 474.475, 1345.018 472 C 1342.601 469.525, 1340.708 467.163, 1340.812 466.750 C 1340.915 466.338, 1340.662 466.053, 1340.250 466.118 C 1338.153 466.449, 1336.958 465.876, 1337.595 464.845 C 1338.033 464.138, 1337.870 463.962, 1337.175 464.392 C 1335.822 465.228, 1332 463.373, 1332 461.879 C 1332 458.864, 1387.114 467.045, 1417 474.497 C 1445.851 481.690, 1466.563 488.574, 1493 499.757 C 1594.491 542.689, 1680.663 621.028, 1745.712 729.500 C 1800.786 821.338, 1837.894 931.060, 1851.063 1041 C 1854.060 1066.017, 1854.867 1105.006, 1852.599 1115.198 C 1848.710 1132.682, 1837.248 1149.857, 1822.373 1160.493 L 1818.246 1163.444 1825.503 1171.600 C 1844.294 1192.720, 1852.676 1211.918, 1853.718 1236.221 L 1854.263 1248.942 1932.882 1249.221 L 2011.500 1249.500 2015.500 1251.839 C 2025.195 1257.507, 2032.860 1268.483, 2033.775 1278.009 C 2034.101 1281.405, 2033.443 1284.899, 2031.315 1291.072 L 2028.410 1299.500 2070.903 1299.218 C 2094.275 1299.063, 2113.591 1298.742, 2113.830 1298.504 C 2114.551 1297.783, 2120.768 1266.003, 2123.977 1246.637 C 2138.169 1160.990, 2141.827 1067.367, 2134.433 979 C 2116.368 763.096, 2031.065 555.542, 1891.674 388.334 C 1869.501 361.736, 1854.077 344.965, 1825.556 316.444 C 1772.274 263.162, 1725.831 224.873, 1665 184.077 C 1503.952 76.069, 1321.009 15.350, 1125.500 5.015 C 1103.663 3.860, 1035.657 3.913, 1013.500 5.101 M 501.400 922.500 C 501.401 930.750, 501.556 933.992, 501.744 929.704 C 501.932 925.417, 501.931 918.667, 501.742 914.704 C 501.552 910.742, 501.399 914.250, 501.400 922.500 M 1231.250 1248.748 C 1241.013 1248.912, 1256.987 1248.912, 1266.750 1248.748 C 1276.513 1248.585, 1268.525 1248.451, 1249 1248.451 C 1229.475 1248.451, 1221.487 1248.585, 1231.250 1248.748" stroke="none" fill="#ee9c93" fill-rule="evenodd"/><path d="M 956.500 459.891 C 959.250 460.226, 975.675 460.250, 993 459.943 L 1024.500 459.387 988 459.334 C 967.925 459.305, 953.750 459.556, 956.500 459.891 M 1108.172 459.750 C 1142.092 459.896, 1197.892 459.896, 1232.172 459.750 C 1266.453 459.604, 1238.700 459.485, 1170.500 459.485 C 1102.300 459.484, 1074.253 459.604, 1108.172 459.750 M 675.932 905.009 C 665.640 906.751, 655.219 914.695, 650.576 924.336 C 645.377 935.131, 643.848 956.195, 645.988 987.529 C 647.198 1005.242, 650.641 1017.522, 659.437 1035.500 C 670.355 1057.815, 685.171 1075.845, 704.500 1090.340 C 718.255 1100.654, 745.600 1113.621, 775.500 1124.007 C 779.900 1125.536, 784.288 1127.108, 785.250 1127.500 C 786.514 1128.016, 787 1127.737, 787 1126.497 C 787 1123.398, 793.216 1113.037, 797.276 1109.370 C 799.463 1107.393, 804.143 1104.424, 807.676 1102.771 C 813.679 1099.962, 814.697 1099.794, 823.299 1100.200 C 834.181 1100.713, 840.442 1103.389, 847.667 1110.615 C 854.813 1117.760, 857.360 1124.422, 857.826 1137.190 L 858.217 1147.881 863.359 1148.992 C 877.629 1152.075, 900.019 1156.335, 912.648 1158.369 L 926.796 1160.648 927.387 1157.074 C 927.712 1155.108, 927.983 1148.485, 927.989 1142.355 C 928.002 1129.129, 930.198 1120.722, 935.308 1114.337 C 943.328 1104.315, 950.193 1100.785, 962.811 1100.193 C 971.902 1099.766, 972.296 1099.842, 979.496 1103.400 C 987.610 1107.411, 993.395 1113.108, 997.203 1120.838 C 999.384 1125.265, 999.500 1126.589, 999.500 1147.118 L 999.500 1168.737 1008.500 1169.381 C 1018.745 1170.114, 1054.178 1171.006, 1089.500 1171.422 C 1130.854 1171.908, 1176.284 1177.615, 1208.474 1186.367 L 1217.447 1188.807 1218.901 1186.653 C 1221.923 1182.176, 1228.585 1176.619, 1233.943 1174.106 C 1238.709 1171.871, 1240.852 1171.500, 1249 1171.500 C 1257.312 1171.500, 1259.192 1171.840, 1264.033 1174.218 C 1271.097 1177.687, 1278.313 1184.903, 1281.782 1191.967 C 1284.340 1197.174, 1284.521 1198.460, 1284.853 1213.782 L 1285.207 1230.065 1288.908 1231.953 C 1301.948 1238.606, 1319.290 1235.763, 1329.804 1225.249 C 1338.395 1216.657, 1342.224 1201.877, 1338.887 1190.187 C 1338.150 1187.609, 1337.537 1185.204, 1337.524 1184.843 C 1337.466 1183.269, 1326.107 1170.344, 1319.126 1163.909 C 1273.052 1121.440, 1186.721 1100.066, 1061 1100 C 965.013 1099.950, 857.359 1080.747, 780.159 1049.904 C 753.841 1039.390, 744.775 1033.667, 733.868 1020.680 C 726.644 1012.079, 720.767 1000.812, 717.847 989.970 C 715.929 982.847, 715.592 979.274, 715.727 967.500 C 715.821 959.362, 716.480 951.114, 717.301 947.802 C 720.925 933.181, 712.355 915.323, 698.263 908.134 C 694.997 906.468, 683.006 903.684, 681 904.125 C 680.725 904.186, 678.444 904.583, 675.932 905.009 M 1511.750 1248.749 C 1521.787 1248.912, 1538.213 1248.912, 1548.250 1248.749 C 1558.287 1248.585, 1550.075 1248.452, 1530 1248.452 C 1509.925 1248.452, 1501.713 1248.585, 1511.750 1248.749 M 1725.815 1248.749 C 1735.888 1248.912, 1752.088 1248.912, 1761.815 1248.748 C 1771.542 1248.585, 1763.300 1248.451, 1743.500 1248.451 C 1723.700 1248.452, 1715.742 1248.586, 1725.815 1248.749" stroke="none" fill="#bc3d19" fill-rule="evenodd"/><path d="M 48.250 1299.749 C 59.663 1299.909, 78.338 1299.909, 89.750 1299.749 C 101.163 1299.588, 91.825 1299.457, 69 1299.457 C 46.175 1299.457, 36.838 1299.588, 48.250 1299.749 M 2050.750 1299.749 C 2062.438 1299.909, 2081.563 1299.909, 2093.250 1299.749 C 2104.938 1299.589, 2095.375 1299.458, 2072 1299.458 C 2048.625 1299.458, 2039.063 1299.589, 2050.750 1299.749 M 170.986 1416.250 C 178.403 1423.813, 184.591 1430, 184.736 1430 C 185.453 1430, 184.023 1428.514, 171.250 1415.986 L 157.500 1402.500 170.986 1416.250 M 1965.986 1416.750 L 1952.500 1430.500 1966.250 1417.014 C 1979.023 1404.486, 1980.453 1403, 1979.736 1403 C 1979.591 1403, 1973.403 1409.188, 1965.986 1416.750 M 289.269 1487.750 C 289.483 1488.162, 290.884 1491.071, 292.384 1494.213 C 295.955 1501.694, 306.306 1512.045, 313.787 1515.616 C 316.929 1517.116, 319.837 1518.517, 320.250 1518.731 C 320.663 1518.944, 321 1518.889, 321 1518.610 C 321 1518.331, 318.188 1516.753, 314.750 1515.104 C 306.839 1511.309, 296.395 1500.776, 292.584 1492.750 C 291.082 1489.588, 289.634 1487, 289.367 1487 C 289.100 1487, 289.056 1487.338, 289.269 1487.750 M 1863.079 1493.291 C 1862.600 1494.551, 1861.486 1496.181, 1860.604 1496.914 C 1859.722 1497.646, 1859 1498.768, 1859 1499.407 C 1859 1500.854, 1848.825 1511, 1847.374 1511 C 1846.789 1511, 1845.495 1511.900, 1844.500 1513 C 1843.505 1514.100, 1842.111 1515, 1841.404 1515 C 1840.697 1515, 1839.866 1515.408, 1839.558 1515.907 C 1838.541 1517.552, 1842.835 1515.840, 1844.590 1513.900 C 1845.536 1512.855, 1846.847 1512, 1847.503 1512 C 1848.159 1512, 1851.239 1509.457, 1854.348 1506.348 C 1857.457 1503.239, 1860 1500.159, 1860 1499.503 C 1860 1498.847, 1860.855 1497.536, 1861.900 1496.590 C 1862.945 1495.644, 1864.028 1494, 1864.307 1492.935 C 1865.008 1490.252, 1864.139 1490.504, 1863.079 1493.291" stroke="none" fill="#b1a8c2" fill-rule="evenodd"/></svg>